<?xml version="1.0" encoding="UTF-8"?>
<svg xmlns="http://www.w3.org/2000/svg" width="20" height="20" viewBox="0 0 20 20">
  <g id="ic-instagram" transform="translate(2777.426 5372.666)">
    <path id="Path_23720" data-name="Path 23720" d="M370.4,755.862a2.872,2.872,0,0,1-2.869,2.869h-9.91a2.872,2.872,0,0,1-2.868-2.869v-9.91a2.872,2.872,0,0,1,2.868-2.868h9.91a2.872,2.872,0,0,1,2.869,2.868Zm-2.869-14.955h-9.91a5.05,5.05,0,0,0-5.045,5.045v9.91a5.05,5.05,0,0,0,5.045,5.045h9.91a5.05,5.05,0,0,0,5.045-5.045v-9.91a5.05,5.05,0,0,0-5.045-5.045" transform="translate(-3130 -6113.573)" fill="#fff"></path>
    <path id="Path_23721" data-name="Path 23721" d="M367.891,746.821a1.219,1.219,0,1,1,1.219-1.219,1.22,1.22,0,0,1-1.219,1.219" transform="translate(-3130 -6113.573)" fill="#fff"></path>
    <path id="Path_23722" data-name="Path 23722" d="M362.574,753.882a2.975,2.975,0,1,1,2.974-2.975,2.979,2.979,0,0,1-2.974,2.975m0-8.126a5.151,5.151,0,1,0,5.151,5.151,5.157,5.157,0,0,0-5.151-5.151" transform="translate(-3130 -6113.573)" fill="#fff"></path>
  </g>
</svg>
