<?xml version="1.0" encoding="UTF-8"?>
<svg xmlns="http://www.w3.org/2000/svg" width="17" height="16.246" viewBox="0 0 17 16.246">
  <g id="ic-linkedin" transform="translate(2704.051 5372.653)">
    <path id="Path_23713" data-name="Path 23713" d="M426.164,757.166h3.643V746.2h-3.643Zm1.848-16.246a1.9,1.9,0,1,0-.048,3.788h.022a1.9,1.9,0,1,0,.026-3.788m14.937,9.959v6.287H439.3V751.3c0-1.473-.524-2.479-1.846-2.479a1.993,1.993,0,0,0-1.867,1.334,2.439,2.439,0,0,0-.121.888v6.122h-3.646s.048-9.934,0-10.963h3.646v1.554l-.025.036h.025v-.036a3.62,3.62,0,0,1,3.285-1.811c2.4,0,4.2,1.567,4.2,4.933" transform="translate(-3130 -6113.573)" fill="#fff"></path>
  </g>
</svg>
