<?xml version="1.0" encoding="UTF-8"?>
<svg xmlns="http://www.w3.org/2000/svg" width="16.751" height="13.614" viewBox="0 0 16.751 13.614">
  <path id="Path_23712" data-name="Path 23712" d="M222.494,745.711a6.879,6.879,0,0,1-1.974.541,3.456,3.456,0,0,0,1.512-1.9,6.9,6.9,0,0,1-2.182.833,3.442,3.442,0,0,0-5.858,3.135,9.757,9.757,0,0,1-7.083-3.592,3.442,3.442,0,0,0,1.062,4.59,3.42,3.42,0,0,1-1.556-.431v.044a3.439,3.439,0,0,0,2.757,3.369,3.413,3.413,0,0,1-1.552.06,3.442,3.442,0,0,0,3.211,2.387,6.966,6.966,0,0,1-5.088,1.423,9.774,9.774,0,0,0,15.046-8.235c0-.149,0-.3-.01-.444a6.973,6.973,0,0,0,1.715-1.779" transform="translate(-205.743 -744.099)" fill="#fff"></path>
</svg>
