<?xml version="1.0" encoding="UTF-8"?>
<svg xmlns="http://www.w3.org/2000/svg" width="18.327" height="12.772" viewBox="0 0 18.327 12.772">
  <g id="ic-youtube" transform="translate(2633.677 5369.053)">
    <path id="Path_23711" data-name="Path 23711" d="M508.948,750.73c-1.948,1.011-3.878,2.012-5.826,3.02v-6.06l5.826,3.04m5.7.177a19.591,19.591,0,0,0-.317-4.333,2.314,2.314,0,0,0-1.982-1.8,92.83,92.83,0,0,0-13.724,0,2.314,2.314,0,0,0-1.981,1.8,29.353,29.353,0,0,0,0,8.665,2.312,2.312,0,0,0,1.979,1.8,92.857,92.857,0,0,0,13.726,0,2.316,2.316,0,0,0,1.982-1.8,19.71,19.71,0,0,0,.32-4.332" transform="translate(-3130 -6113.573)" fill="#fff"></path>
  </g>
</svg>
