<?xml version="1.0" standalone="no"?>
<!DOCTYPE svg PUBLIC "-//W3C//DTD SVG 1.1//EN" "http://www.w3.org/Graphics/SVG/1.1/DTD/svg11.dtd" >
<svg xmlns="http://www.w3.org/2000/svg" xmlns:xlink="http://www.w3.org/1999/xlink" version="1.1">
<metadata>
Created by FontForge 20190801 at Tue Dec  6 13:57:52 2016
 By root
Copyright 2016 The Unna Project Authors (omnibus.type@gmail.com)
</metadata>
<defs>
<font id="Unna-Italic" horiz-adv-x="466" >
  <font-face 
    font-family="Unna"
    font-weight="400"
    font-style="italic"
    font-stretch="normal"
    units-per-em="1000"
    panose-1="2 4 5 3 7 7 5 9 2 3"
    ascent="800"
    descent="-200"
    x-height="426"
    cap-height="597"
    bbox="-226 -269 929 878"
    underline-thickness="50"
    underline-position="-100"
    slope="-8"
    unicode-range="U+000D-FB02"
  />
<missing-glyph horiz-adv-x="488" 
d="M400 730v-975h-309v975h309zM325 665h-161v-32h63v-37h-64v-32h162v32h-65v37h65v32zM260 539h-97v-101h162v33h-65v68zM227 506v-35h-32v35h32zM325 411h-162v-32h64v-36h-64v-32h97v68h65v32zM325 353h-32v-65h-130v-33h162v98zM325 234h-98v-55h33v23h33v-46h-98v78
h-32v-110h162v110zM325 65h-162v-110h162v110zM293 33v-46h-98v46h98zM325 -68h-162v-32h68l-68 -46v-32h162v32h-100l68 46h32v32z" />
    <glyph glyph-name="f_j" unicode="fj" horiz-adv-x="530" 
d="M483.5 687q35.5 -14 35.5 -48q0 -25 -17 -39.5t-44 -14.5q-21 0 -34.5 11t-13.5 30q0 24 -11 35.5t-40 11.5q-128 0 -150 -219l-4 -34h105v-15l-29 -16h-79l-32 -287q-39 -347 -207 -347q-41 0 -70 18.5t-29 48.5q0 18 11.5 31t33.5 13q15 0 26 -6.5t11 -21.5
q0 -6 -3 -16t-3 -15q0 -12 8.5 -18.5t22.5 -6.5q31 0 51 31t33 93t25 166l35 317h-86l27 31h63l2 20q9 74 42.5 133t89.5 93.5t131 34.5q64 0 99.5 -14zM469 421.5q8 -4.5 8 -18.5q-8 -48 -30 -192.5t-29 -199.5q-17 -126 -57 -191t-114 -65q-41 0 -70 18.5t-29 48.5
q0 18 11.5 31t33.5 13q15 0 26 -6.5t11 -21.5q0 -6 -3 -16t-3 -15q0 -12 8.5 -18.5t21.5 -6.5q27 0 43 30.5t26.5 86.5t26.5 173l21 153q13 96 13 117q0 31 -30 31q-9 0 -17 -2l-5 29q63 26 114 26q15 0 23 -4.5z" />
    <glyph glyph-name="fi" unicode="fi" horiz-adv-x="547" 
d="M483.5 687q35.5 -14 35.5 -48q0 -25 -17 -39.5t-44 -14.5q-21 0 -34.5 11t-13.5 30q0 24 -11 35.5t-40 11.5q-128 0 -150 -219l-4 -34h105v-15l-29 -16h-79l-32 -287q-39 -347 -207 -347q-41 0 -70 18.5t-29 48.5q0 18 11.5 31t33.5 13q15 0 26 -6.5t11 -21.5
q0 -6 -3 -16t-3 -15q0 -12 8.5 -18.5t22.5 -6.5q31 0 51 31t33 93t25 166l35 317h-86l27 31h63l2 20q9 74 42.5 133t89.5 93.5t131 34.5q64 0 99.5 -14zM488 80l12 -20q-32 -33 -60.5 -51.5t-50.5 -18.5q-18 0 -28 11.5t-10 34.5q0 17 6 57.5t8 53.5l12 76q13 87 13 124
q0 14 -9.5 20t-21.5 6q-8 0 -16 -2l-5 29q63 26 114 26q15 0 23 -4.5t8 -17.5q0 -8 -12 -70q-19 -99 -20 -104q-16 -91 -16 -136q0 -27 17 -27q16 0 36 13z" />
    <glyph glyph-name=".notdef" horiz-adv-x="488" 
d="M400 730v-975h-309v975h309zM325 665h-161v-32h63v-37h-64v-32h162v32h-65v37h65v32zM260 539h-97v-101h162v33h-65v68zM227 506v-35h-32v35h32zM325 411h-162v-32h64v-36h-64v-32h97v68h65v32zM325 353h-32v-65h-130v-33h162v98zM325 234h-98v-55h33v23h33v-46h-98v78
h-32v-110h162v110zM325 65h-162v-110h162v110zM293 33v-46h-98v46h98zM325 -68h-162v-32h68l-68 -46v-32h162v32h-100l68 46h32v32z" />
    <glyph glyph-name="NULL" horiz-adv-x="0" 
 />
    <glyph glyph-name="NULL" horiz-adv-x="0" 
 />
    <glyph glyph-name="nonmarkingreturn" unicode="&#xd;" horiz-adv-x="220" 
 />
    <glyph glyph-name="space" unicode=" " horiz-adv-x="220" 
 />
    <glyph glyph-name="A" unicode="A" horiz-adv-x="580" 
d="M575 29l-4 -29h-259l4 29l53 -2q27 -1 27 31q0 19 -4 32l-31 118h-222l-60 -112q-21 -38 -21 -55q0 -15 14 -15l51 3l-4 -29h-170l4 29l31 -2q17 0 32.5 19t36.5 58l273 503h29l131 -505q11 -41 21 -58t29 -17h5zM154 236h199l-65 248z" />
    <glyph glyph-name="Aacute" unicode="&#xc1;" horiz-adv-x="580" 
d="M0 0zM575 29l-4 -29h-259l4 29l53 -2q27 -1 27 31q0 19 -4 32l-31 118h-222l-60 -112q-21 -38 -21 -55q0 -15 14 -15l51 3l-4 -29h-170l4 29l31 -2q17 0 32.5 19t36.5 58l273 503h29l131 -505q11 -41 21 -58t29 -17h5zM154 236h199l-65 248zM498 788l-171 -113
q-12 -9 -21 -9q-14 0 -14 7q0 4 9 13l11 11l107 108q12 13 18 17t17 4q17 0 35.5 -9.5t18.5 -16.5q0 -4 -10 -12z" />
    <glyph glyph-name="Abreve" unicode="&#x102;" horiz-adv-x="580" 
d="M0 0zM575 29l-4 -29h-259l4 29l53 -2q27 -1 27 31q0 19 -4 32l-31 118h-222l-60 -112q-21 -38 -21 -55q0 -15 14 -15l51 3l-4 -29h-170l4 29l31 -2q17 0 32.5 19t36.5 58l273 503h29l131 -505q11 -41 21 -58t29 -17h5zM154 236h199l-65 248zM449 699.5
q-37 -33.5 -92 -33.5t-82.5 33.5t-25.5 90.5h44q3 -32 19 -53t52 -21q35 0 58.5 21.5t34.5 52.5h43q-14 -57 -51 -90.5z" />
    <glyph glyph-name="Acircumflex" unicode="&#xc2;" horiz-adv-x="580" 
d="M0 0zM575 29l-4 -29h-259l4 29l53 -2q27 -1 27 31q0 19 -4 32l-31 118h-222l-60 -112q-21 -38 -21 -55q0 -15 14 -15l51 3l-4 -29h-170l4 29l31 -2q17 0 32.5 19t36.5 58l273 503h29l131 -505q11 -41 21 -58t29 -17h5zM154 236h199l-65 248zM209 673q0 4 27 25q7 6 25 21
t34 30l50 48q27 25 34 25q3 0 10.5 -7t15.5 -18l36 -48q19 -25 49 -55q16 -16 16 -20q0 -3 -3 -5.5t-10 -2.5q-10 0 -27 12l-97 73l-120 -73q-22 -12 -29 -12q-11 0 -11 7z" />
    <glyph glyph-name="Adieresis" unicode="&#xc4;" horiz-adv-x="580" 
d="M0 0zM575 29l-4 -29h-259l4 29l53 -2q27 -1 27 31q0 19 -4 32l-31 118h-222l-60 -112q-21 -38 -21 -55q0 -15 14 -15l51 3l-4 -29h-170l4 29l31 -2q17 0 32.5 19t36.5 58l273 503h29l131 -505q11 -41 21 -58t29 -17h5zM154 236h199l-65 248zM224 677zM320.5 761
q12.5 -11 12.5 -30q0 -25 -17 -39.5t-44 -14.5q-21 0 -34.5 11t-13.5 30q0 24 18 39t44 15q22 0 34.5 -11zM494.5 761q12.5 -11 12.5 -30q0 -25 -17 -39.5t-44 -14.5q-21 0 -34.5 11t-13.5 30q0 24 18 39t44 15q22 0 34.5 -11z" />
    <glyph glyph-name="Agrave" unicode="&#xc0;" horiz-adv-x="580" 
d="M0 0zM575 29l-4 -29h-259l4 29l53 -2q27 -1 27 31q0 19 -4 32l-31 118h-222l-60 -112q-21 -38 -21 -55q0 -15 14 -15l51 3l-4 -29h-170l4 29l31 -2q17 0 32.5 19t36.5 58l273 503h29l131 -505q11 -41 21 -58t29 -17h5zM154 236h199l-65 248zM314.5 823q4.5 -3 9 -9.5
t6.5 -8.5l82 -114q9 -14 9 -17q0 -8 -17 -8q-9 0 -18 9l-139 113q-6 6 -6 11q0 7 21 17t39 10q9 0 13.5 -3z" />
    <glyph glyph-name="Amacron" unicode="&#x100;" horiz-adv-x="580" 
d="M0 0zM575 29l-4 -29h-259l4 29l53 -2q27 -1 27 31q0 19 -4 32l-31 118h-222l-60 -112q-21 -38 -21 -55q0 -15 14 -15l51 3l-4 -29h-170l4 29l31 -2q17 0 32.5 19t36.5 58l273 503h29l131 -505q11 -41 21 -58t29 -17h5zM154 236h199l-65 248zM483 716l-6 -40h-242l6 40
h242z" />
    <glyph glyph-name="Aogonek" unicode="&#x104;" horiz-adv-x="580" 
d="M629 -99q-27 -29 -58.5 -44.5t-62.5 -15.5q-26 0 -44.5 16.5t-18.5 45.5q0 27 16 52.5t46 44.5h-195l4 29l53 -2q27 -1 27 31q0 19 -4 32l-31 118h-222l-60 -112q-21 -38 -21 -55q0 -15 14 -15l51 3l-4 -29h-170l4 29l31 -2q17 0 32.5 19t36.5 58l273 503h29l131 -505
q11 -41 21 -58t29 -17h5l34 2l-4 -29h-32q-36 -29 -36 -71q0 -20 11 -32.5t34 -12.5q30 0 69 31zM154 236h199l-65 248z" />
    <glyph glyph-name="Aring" unicode="&#xc5;" horiz-adv-x="580" 
d="M0 0zM575 29l-4 -29h-259l4 29l53 -2q27 -1 27 31q0 19 -4 32l-31 118h-222l-60 -112q-21 -38 -21 -55q0 -15 14 -15l51 3l-4 -29h-170l4 29l31 -2q17 0 32.5 19t36.5 58l273 503h29l131 -505q11 -41 21 -58t29 -17h5zM154 236h199l-65 248zM314.5 802.5
q27.5 26.5 64.5 26.5q34 0 52.5 -19t18.5 -52q0 -40 -26.5 -66t-67.5 -26q-33 0 -51 19.5t-18 52.5q0 38 27.5 64.5zM339.5 713q7.5 -11 21.5 -11q18 0 30.5 15.5t12.5 36.5q0 18 -7.5 28.5t-22.5 10.5q-18 0 -30 -15t-12 -36q0 -18 7.5 -29z" />
    <glyph glyph-name="Atilde" unicode="&#xc3;" horiz-adv-x="580" 
d="M0 0zM575 29l-4 -29h-259l4 29l53 -2q27 -1 27 31q0 19 -4 32l-31 118h-222l-60 -112q-21 -38 -21 -55q0 -15 14 -15l51 3l-4 -29h-170l4 29l31 -2q17 0 32.5 19t36.5 58l273 503h29l131 -505q11 -41 21 -58t29 -17h5zM154 236h199l-65 248zM376 745q53 -21 75 -21
q14 0 25.5 12t13.5 30h20q-5 -37 -27.5 -64t-49.5 -27q-15 0 -34 5.5t-49 16.5q-53 21 -75 21q-14 0 -25 -12t-14 -30h-20q5 37 27.5 64t49.5 27q23 0 83 -22z" />
    <glyph glyph-name="AE" unicode="&#xc6;" horiz-adv-x="818" 
d="M789 443h-28q2 11 2 31q0 49 -29.5 72t-90.5 23h-156l9 -245h79q30 0 54 28.5t31 73.5h29l-33 -231h-29q2 16 2 24q0 35 -16 56.5t-42 21.5h-75l10 -251q3 -19 17 -19h64q135 0 154 144h29l-24 -174q-36 3 -86 3h-334l4 30l56 -3h2q8 0 13.5 6t7.5 14l-6 161h-235
l-91 -128q-17 -24 -17 -41q0 -12 11 -12l54 3l-4 -30h-172l4 30l35 -3q10 0 24.5 14.5t36.5 44.5l334 457q3 5 3 9q0 5 -4 10t-9 5l-51 -2l5 32h450q18 0 34 2zM390 511l-202 -275h213z" />
    <glyph glyph-name="B" unicode="B" horiz-adv-x="555" 
d="M482.5 566.5q38.5 -30.5 38.5 -90.5q0 -62 -43 -104.5t-112 -54.5q63 0 104 -39t41 -98q0 -88 -60 -134t-179 -46h-254l4 29l50 -2q15 0 18 22l70 500v3q0 17 -11 17l-51 -2l4 30h268q74 0 112.5 -30.5zM266 569q-9 0 -12 -12l-32 -230h72q65 0 98 38t33 106
q0 46 -26.5 72t-76.5 26h-56zM218 299l-36 -258l-1 -4q0 -9 11 -9h68q69 0 112 43.5t43 119.5q0 108 -99 108h-98z" />
    <glyph glyph-name="C" unicode="C" horiz-adv-x="585" 
d="M90.5 436.5q41.5 81.5 118 126t179.5 44.5q44 0 68.5 -6.5t51.5 -18.5q21 -9 37 -13.5t39 -4.5q-8 -32 -13.5 -66t-5.5 -50q0 -14 1 -15h-26q-3 41 -25 75t-57.5 54t-77.5 20q-67 0 -119.5 -45t-81.5 -123.5t-29 -173.5q0 -101 41.5 -162t113.5 -61q67 0 123 42.5
t79 107.5h31q-14 -59 -18 -80t-4 -40v-12h-7q-20 0 -38 -4.5t-45 -14.5q-36 -13 -64 -19.5t-65 -6.5q-117 0 -182.5 68t-65.5 187q0 110 41.5 191.5z" />
    <glyph glyph-name="Cacute" unicode="&#x106;" horiz-adv-x="585" 
d="M49 0zM90.5 436.5q41.5 81.5 118 126t179.5 44.5q44 0 68.5 -6.5t51.5 -18.5q21 -9 37 -13.5t39 -4.5q-8 -32 -13.5 -66t-5.5 -50q0 -14 1 -15h-26q-3 41 -25 75t-57.5 54t-77.5 20q-67 0 -119.5 -45t-81.5 -123.5t-29 -173.5q0 -101 41.5 -162t113.5 -61q67 0 123 42.5
t79 107.5h31q-14 -59 -18 -80t-4 -40v-12h-7q-20 0 -38 -4.5t-45 -14.5q-36 -13 -64 -19.5t-65 -6.5q-117 0 -182.5 68t-65.5 187q0 110 41.5 191.5zM506 788l-171 -113q-12 -9 -21 -9q-14 0 -14 7q0 4 9 13l11 11l107 108q12 13 18 17t17 4q17 0 35.5 -9.5t18.5 -16.5
q0 -4 -10 -12z" />
    <glyph glyph-name="Ccaron" unicode="&#x10c;" horiz-adv-x="585" 
d="M49 0zM90.5 436.5q41.5 81.5 118 126t179.5 44.5q44 0 68.5 -6.5t51.5 -18.5q21 -9 37 -13.5t39 -4.5q-8 -32 -13.5 -66t-5.5 -50q0 -14 1 -15h-26q-3 41 -25 75t-57.5 54t-77.5 20q-67 0 -119.5 -45t-81.5 -123.5t-29 -173.5q0 -101 41.5 -162t113.5 -61q67 0 123 42.5
t79 107.5h31q-14 -59 -18 -80t-4 -40v-12h-7q-20 0 -38 -4.5t-45 -14.5q-36 -13 -64 -19.5t-65 -6.5q-117 0 -182.5 68t-65.5 187q0 110 41.5 191.5zM534 817q0 -4 -27 -25q-7 -6 -25 -21t-34 -30l-50 -48q-27 -25 -34 -25q-3 0 -10.5 7t-15.5 18l-36 48q-19 25 -49 55
q-16 16 -16 20q0 3 3 5.5t10 2.5q10 0 27 -12l97 -73l120 73q22 12 29 12q11 0 11 -7z" />
    <glyph glyph-name="Ccedilla" unicode="&#xc7;" horiz-adv-x="585" 
d="M570.5 498q-5.5 -34 -5.5 -50q0 -14 1 -15h-26q-3 41 -25 75t-57.5 54t-77.5 20q-67 0 -119.5 -45t-81.5 -123.5t-29 -173.5q0 -101 41.5 -162t113.5 -61q67 0 123 42.5t79 107.5h31q-14 -59 -18 -80t-4 -40v-12h-7q-20 0 -38 -4.5t-45 -14.5q-36 -13 -64 -19.5t-65 -6.5
h-13l-24 -33q-9 -12 -9 -20q0 -6 6.5 -9t21.5 -7q23 -7 34.5 -14t11.5 -24q0 -42 -27.5 -69.5t-76.5 -27.5q-44 0 -66 16l12 27q10 -16 32 -16q23 0 40.5 17t17.5 40q0 17 -25 36l-20 14q-10 7 -10 14q0 6 9 14l39 45q-96 13 -148.5 79t-52.5 173q0 110 41.5 191.5t118 126
t179.5 44.5q44 0 68.5 -6.5t51.5 -18.5q21 -9 37 -13.5t39 -4.5q-8 -32 -13.5 -66z" />
    <glyph glyph-name="D" unicode="D" horiz-adv-x="613" 
d="M522 541.5q66 -55.5 66 -179.5q0 -175 -84.5 -268.5t-255.5 -93.5h-230l4 29l43 -2q12 0 16 22l70 499v5q0 7 -3.5 11.5t-10.5 4.5l-39 -2l4 30h218q136 0 202 -55.5zM256 569q-11 0 -12 -13l-72 -515l-1 -4q0 -9 9 -9h44q76 0 123.5 20t74 57.5t42.5 96.5q23 85 23 171
q0 104 -44 150t-143 46h-44z" />
    <glyph glyph-name="Eth" unicode="&#xd0;" horiz-adv-x="613" 
d="M522 541.5q66 -55.5 66 -179.5q0 -175 -84.5 -268.5t-255.5 -93.5h-230l4 29l43 -2q12 0 16 22l34 244h-64l5 36h64l31 219v5q0 7 -3.5 11.5t-10.5 4.5l-39 -2l4 30h218q136 0 202 -55.5zM487 373q0 104 -44 150t-143 46h-44q-11 0 -12 -13l-32 -227h184l-5 -36h-184
l-35 -252l-1 -4q0 -9 9 -9h44q76 0 123.5 20t74 57.5t42.5 96.5q23 85 23 171z" />
    <glyph glyph-name="Dcaron" unicode="&#x10e;" horiz-adv-x="613" 
d="M18 0zM522 541.5q66 -55.5 66 -179.5q0 -175 -84.5 -268.5t-255.5 -93.5h-230l4 29l43 -2q12 0 16 22l70 499v5q0 7 -3.5 11.5t-10.5 4.5l-39 -2l4 30h218q136 0 202 -55.5zM256 569q-11 0 -12 -13l-72 -515l-1 -4q0 -9 9 -9h44q76 0 123.5 20t74 57.5t42.5 96.5
q23 85 23 171q0 104 -44 150t-143 46h-44zM539 817q0 -4 -27 -25q-7 -6 -25 -21t-34 -30l-50 -48q-27 -25 -34 -25q-3 0 -10.5 7t-15.5 18l-36 48q-19 25 -49 55q-16 16 -16 20q0 3 3 5.5t10 2.5q10 0 27 -12l97 -73l120 73q22 12 29 12q11 0 11 -7z" />
    <glyph glyph-name="Dcroat" unicode="&#x110;" horiz-adv-x="613" 
d="M18 0zM522 541.5q66 -55.5 66 -179.5q0 -175 -84.5 -268.5t-255.5 -93.5h-230l4 29l43 -2q12 0 16 22l34 244h-64l5 36h64l31 219v5q0 7 -3.5 11.5t-10.5 4.5l-39 -2l4 30h218q136 0 202 -55.5zM487 373q0 104 -44 150t-143 46h-44q-11 0 -12 -13l-32 -227h184l-5 -36
h-184l-35 -252l-1 -4q0 -9 9 -9h44q76 0 123.5 20t74 57.5t42.5 96.5q23 85 23 171z" />
    <glyph glyph-name="E" unicode="E" horiz-adv-x="545" 
d="M506 443h-29q3 18 3 32q0 49 -29 71.5t-91 22.5h-104q-10 0 -12 -14l-32 -230h90q31 0 54.5 27t30.5 74h30l-33 -231h-30q2 16 2 23q0 35 -16.5 57t-41.5 22h-90l-36 -256v-3q0 -10 8 -10h136q64 0 103.5 39t49.5 112h29l-25 -182q-22 3 -86 3h-369l4 30l40 -3
q16 0 19 22l70 499v5q0 16 -15 16l-38 -2l4 30h408q13 0 18 2z" />
    <glyph glyph-name="Eacute" unicode="&#xc9;" horiz-adv-x="545" 
d="M18 0zM506 443h-29q3 18 3 32q0 49 -29 71.5t-91 22.5h-104q-10 0 -12 -14l-32 -230h90q31 0 54.5 27t30.5 74h30l-33 -231h-30q2 16 2 23q0 35 -16.5 57t-41.5 22h-90l-36 -256v-3q0 -10 8 -10h136q64 0 103.5 39t49.5 112h29l-25 -182q-22 3 -86 3h-369l4 30l40 -3
q16 0 19 22l70 499v5q0 16 -15 16l-38 -2l4 30h408q13 0 18 2zM481 788l-171 -113q-12 -9 -21 -9q-14 0 -14 7q0 4 9 13l11 11l107 108q12 13 18 17t17 4q17 0 35.5 -9.5t18.5 -16.5q0 -4 -10 -12z" />
    <glyph glyph-name="Ecaron" unicode="&#x11a;" horiz-adv-x="545" 
d="M18 0zM506 443h-29q3 18 3 32q0 49 -29 71.5t-91 22.5h-104q-10 0 -12 -14l-32 -230h90q31 0 54.5 27t30.5 74h30l-33 -231h-30q2 16 2 23q0 35 -16.5 57t-41.5 22h-90l-36 -256v-3q0 -10 8 -10h136q64 0 103.5 39t49.5 112h29l-25 -182q-22 3 -86 3h-369l4 30l40 -3
q16 0 19 22l70 499v5q0 16 -15 16l-38 -2l4 30h408q13 0 18 2zM509 817q0 -4 -27 -25q-7 -6 -25 -21t-34 -30l-50 -48q-27 -25 -34 -25q-3 0 -10.5 7t-15.5 18l-36 48q-19 25 -49 55q-16 16 -16 20q0 3 3 5.5t10 2.5q10 0 27 -12l97 -73l120 73q22 12 29 12q11 0 11 -7z" />
    <glyph glyph-name="Ecircumflex" unicode="&#xca;" horiz-adv-x="545" 
d="M18 0zM506 443h-29q3 18 3 32q0 49 -29 71.5t-91 22.5h-104q-10 0 -12 -14l-32 -230h90q31 0 54.5 27t30.5 74h30l-33 -231h-30q2 16 2 23q0 35 -16.5 57t-41.5 22h-90l-36 -256v-3q0 -10 8 -10h136q64 0 103.5 39t49.5 112h29l-25 -182q-22 3 -86 3h-369l4 30l40 -3
q16 0 19 22l70 499v5q0 16 -15 16l-38 -2l4 30h408q13 0 18 2zM192 673q0 4 27 25q7 6 25 21t34 30l50 48q27 25 34 25q3 0 10.5 -7t15.5 -18l36 -48q19 -25 49 -55q16 -16 16 -20q0 -3 -3 -5.5t-10 -2.5q-10 0 -27 12l-97 73l-120 -73q-22 -12 -29 -12q-11 0 -11 7z" />
    <glyph glyph-name="Edieresis" unicode="&#xcb;" horiz-adv-x="545" 
d="M18 0zM506 443h-29q3 18 3 32q0 49 -29 71.5t-91 22.5h-104q-10 0 -12 -14l-32 -230h90q31 0 54.5 27t30.5 74h30l-33 -231h-30q2 16 2 23q0 35 -16.5 57t-41.5 22h-90l-36 -256v-3q0 -10 8 -10h136q64 0 103.5 39t49.5 112h29l-25 -182q-22 3 -86 3h-369l4 30l40 -3
q16 0 19 22l70 499v5q0 16 -15 16l-38 -2l4 30h408q13 0 18 2zM303.5 761q12.5 -11 12.5 -30q0 -25 -17 -39.5t-44 -14.5q-21 0 -34.5 11t-13.5 30q0 24 18 39t44 15q22 0 34.5 -11zM477.5 761q12.5 -11 12.5 -30q0 -25 -17 -39.5t-44 -14.5q-21 0 -34.5 11t-13.5 30
q0 24 18 39t44 15q22 0 34.5 -11z" />
    <glyph glyph-name="Edotaccent" unicode="&#x116;" horiz-adv-x="545" 
d="M18 0zM506 443h-29q3 18 3 32q0 49 -29 71.5t-91 22.5h-104q-10 0 -12 -14l-32 -230h90q31 0 54.5 27t30.5 74h30l-33 -231h-30q2 16 2 23q0 35 -16.5 57t-41.5 22h-90l-36 -256v-3q0 -10 8 -10h136q64 0 103.5 39t49.5 112h29l-25 -182q-22 3 -86 3h-369l4 30l40 -3
q16 0 19 22l70 499v5q0 16 -15 16l-38 -2l4 30h408q13 0 18 2zM389.5 762q12.5 -11 12.5 -30q0 -25 -17 -39.5t-44 -14.5q-21 0 -34.5 11t-13.5 30q0 24 18 39t44 15q22 0 34.5 -11z" />
    <glyph glyph-name="Egrave" unicode="&#xc8;" horiz-adv-x="545" 
d="M18 0zM506 443h-29q3 18 3 32q0 49 -29 71.5t-91 22.5h-104q-10 0 -12 -14l-32 -230h90q31 0 54.5 27t30.5 74h30l-33 -231h-30q2 16 2 23q0 35 -16.5 57t-41.5 22h-90l-36 -256v-3q0 -10 8 -10h136q64 0 103.5 39t49.5 112h29l-25 -182q-22 3 -86 3h-369l4 30l40 -3
q16 0 19 22l70 499v5q0 16 -15 16l-38 -2l4 30h408q13 0 18 2zM297.5 823q4.5 -3 9 -9.5t6.5 -8.5l82 -114q9 -14 9 -17q0 -8 -17 -8q-9 0 -18 9l-139 113q-6 6 -6 11q0 7 21 17t39 10q9 0 13.5 -3z" />
    <glyph glyph-name="Emacron" unicode="&#x112;" horiz-adv-x="545" 
d="M18 0zM506 443h-29q3 18 3 32q0 49 -29 71.5t-91 22.5h-104q-10 0 -12 -14l-32 -230h90q31 0 54.5 27t30.5 74h30l-33 -231h-30q2 16 2 23q0 35 -16.5 57t-41.5 22h-90l-36 -256v-3q0 -10 8 -10h136q64 0 103.5 39t49.5 112h29l-25 -182q-22 3 -86 3h-369l4 30l40 -3
q16 0 19 22l70 499v5q0 16 -15 16l-38 -2l4 30h408q13 0 18 2zM466 716l-6 -40h-242l6 40h242z" />
    <glyph glyph-name="Eogonek" unicode="&#x118;" horiz-adv-x="545" 
d="M477 443q3 18 3 32q0 49 -29 71.5t-91 22.5h-104q-10 0 -12 -14l-32 -230h90q31 0 54.5 27t30.5 74h30l-33 -231h-30q2 16 2 23q0 35 -16.5 57t-41.5 22h-90l-36 -256v-3q0 -10 8 -10h136q64 0 103.5 39t49.5 112h29l-25 -182q-19 3 -67 3q-36 -29 -36 -71
q0 -20 11 -32.5t34 -12.5q30 0 69 31l12 -14q-27 -29 -58.5 -44.5t-62.5 -15.5q-26 0 -44.5 16.5t-18.5 45.5q0 27 16 52.5t46 44.5h-356l4 30l40 -3q16 0 19 22l70 499v5q0 16 -15 16l-38 -2l4 30h408q13 0 18 2l-22 -156h-29z" />
    <glyph glyph-name="F" unicode="F" horiz-adv-x="513" 
d="M516 443h-29q3 18 3 32q0 49 -29.5 71.5t-91.5 22.5h-113q-11 0 -12 -13l-34 -241h71q34 0 58.5 27.5t31.5 74.5h29l-33 -230h-29q2 16 2 24q0 35 -17 55.5t-46 20.5h-70l-34 -239v-4q0 -7 4 -12t10 -5l52 3l-4 -30h-217l4 30l40 -3q16 0 19 22l70 499v6q0 15 -12 15
l-41 -2l4 30h420q11 0 16 2z" />
    <glyph glyph-name="G" unicode="G" horiz-adv-x="626" 
d="M472.5 599q31.5 -8 61.5 -21q31 -14 51 -14q-6 -20 -12.5 -63.5t-5.5 -67.5h-42q5 13 5 34q0 58 -40.5 86.5t-108.5 28.5q-65 0 -117.5 -41t-83.5 -122t-31 -195q0 -105 40.5 -156t116.5 -51q43 0 71 10t57 36l23 160v7q0 15 -14 15l-58 -2l4 29h226l-4 -29l-42 2
q-7 0 -12.5 -6.5t-6.5 -14.5l-27 -189q-6 1 -14 1q-13 0 -46 -13q-36 -15 -73 -24t-92 -9q-119 0 -184 63.5t-65 185.5q0 177 89.5 272.5t250.5 95.5q52 0 83.5 -8z" />
    <glyph glyph-name="Gbreve" unicode="&#x11e;" horiz-adv-x="626" 
d="M49 0zM472.5 599q31.5 -8 61.5 -21q31 -14 51 -14q-6 -20 -12.5 -63.5t-5.5 -67.5h-42q5 13 5 34q0 58 -40.5 86.5t-108.5 28.5q-65 0 -117.5 -41t-83.5 -122t-31 -195q0 -105 40.5 -156t116.5 -51q43 0 71 10t57 36l23 160v7q0 15 -14 15l-58 -2l4 29h226l-4 -29l-42 2
q-7 0 -12.5 -6.5t-6.5 -14.5l-27 -189q-6 1 -14 1q-13 0 -46 -13q-36 -15 -73 -24t-92 -9q-119 0 -184 63.5t-65 185.5q0 177 89.5 272.5t250.5 95.5q52 0 83.5 -8zM453 699.5q-37 -33.5 -92 -33.5t-82.5 33.5t-25.5 90.5h44q3 -32 19 -53t52 -21q35 0 58.5 21.5t34.5 52.5
h43q-14 -57 -51 -90.5z" />
    <glyph glyph-name="Gcommaaccent" unicode="&#x122;" horiz-adv-x="626" 
d="M49 0zM472.5 599q31.5 -8 61.5 -21q31 -14 51 -14q-6 -20 -12.5 -63.5t-5.5 -67.5h-42q5 13 5 34q0 58 -40.5 86.5t-108.5 28.5q-65 0 -117.5 -41t-83.5 -122t-31 -195q0 -105 40.5 -156t116.5 -51q43 0 71 10t57 36l23 160v7q0 15 -14 15l-58 -2l4 29h226l-4 -29l-42 2
q-7 0 -12.5 -6.5t-6.5 -14.5l-27 -189q-6 1 -14 1q-13 0 -46 -13q-36 -15 -73 -24t-92 -9q-119 0 -184 63.5t-65 185.5q0 177 89.5 272.5t250.5 95.5q52 0 83.5 -8zM320 -49.5q14 -15.5 14 -37.5q0 -40 -30 -74t-69 -52l-14 13q21 12 38.5 29.5t18.5 30.5q4 29 -24 29
q-12 0 -19 9t-7 21q0 18 14.5 32.5t38.5 14.5q25 0 39 -15.5z" />
    <glyph glyph-name="H" unicode="H" horiz-adv-x="674" 
d="M676 567l-40 2q-16 0 -19 -21l-70 -499v-7q0 -15 13 -15l40 2l-4 -29h-215l4 29l49 -2q17 0 20 22l34 245h-281l-34 -245v-5q0 -17 15 -17l49 2l-4 -29h-215l4 29l39 -2q17 0 20 22l70 499l1 6q0 16 -15 15l-39 -2l4 30h215l-4 -30l-49 2q-8 0 -13.5 -5.5t-7.5 -15.5
l-32 -226h281l32 226v5q0 16 -14 16l-49 -2l4 30h215z" />
    <glyph glyph-name="I" unicode="I" horiz-adv-x="301" 
d="M303 567l-39 2q-8 0 -13.5 -5.5t-7.5 -15.5l-70 -499v-5q0 -17 15 -17l39 2l-4 -29h-205l4 29l39 -2q17 0 20 22l70 499v5q0 7 -3.5 11.5t-10.5 4.5l-39 -2l4 30h205z" />
    <glyph glyph-name="IJ" unicode="&#x132;" horiz-adv-x="738" 
d="M18 0zM303 567l-39 2q-8 0 -13.5 -5.5t-7.5 -15.5l-70 -499v-5q0 -17 15 -17l39 2l-4 -29h-205l4 29l39 -2q17 0 20 22l70 499v5q0 7 -3.5 11.5t-10.5 4.5l-39 -2l4 30h205zM744 567l-37 2q-18 0 -21 -20l-52 -370q-27 -189 -189 -189q-38 0 -80 10q-23 5 -36 5
q-22 0 -36 -9l25 176h37q-3 -18 -3 -39q0 -49 19 -83t62 -34q46 0 70.5 37t37.5 126l52 369v5q0 16 -13 16l-69 -2l4 30h233z" />
    <glyph glyph-name="Iacute" unicode="&#xcd;" horiz-adv-x="301" 
d="M18 0zM303 567l-39 2q-8 0 -13.5 -5.5t-7.5 -15.5l-70 -499v-5q0 -17 15 -17l39 2l-4 -29h-205l4 29l39 -2q17 0 20 22l70 499v5q0 7 -3.5 11.5t-10.5 4.5l-39 -2l4 30h205zM352 788l-171 -113q-12 -9 -21 -9q-14 0 -14 7q0 4 9 13l11 11l107 108q12 13 18 17t17 4
q17 0 35.5 -9.5t18.5 -16.5q0 -4 -10 -12z" />
    <glyph glyph-name="Icircumflex" unicode="&#xce;" horiz-adv-x="301" 
d="M18 0zM303 567l-39 2q-8 0 -13.5 -5.5t-7.5 -15.5l-70 -499v-5q0 -17 15 -17l39 2l-4 -29h-205l4 29l39 -2q17 0 20 22l70 499v5q0 7 -3.5 11.5t-10.5 4.5l-39 -2l4 30h205zM63 673q0 4 27 25q7 6 25 21t34 30l50 48q27 25 34 25q3 0 10.5 -7t15.5 -18l36 -48
q19 -25 49 -55q16 -16 16 -20q0 -3 -3 -5.5t-10 -2.5q-10 0 -27 12l-97 73l-120 -73q-22 -12 -29 -12q-11 0 -11 7z" />
    <glyph glyph-name="Idieresis" unicode="&#xcf;" horiz-adv-x="301" 
d="M18 0zM303 567l-39 2q-8 0 -13.5 -5.5t-7.5 -15.5l-70 -499v-5q0 -17 15 -17l39 2l-4 -29h-205l4 29l39 -2q17 0 20 22l70 499v5q0 7 -3.5 11.5t-10.5 4.5l-39 -2l4 30h205zM174.5 761q12.5 -11 12.5 -30q0 -25 -17 -39.5t-44 -14.5q-21 0 -34.5 11t-13.5 30q0 24 18 39
t44 15q22 0 34.5 -11zM348.5 761q12.5 -11 12.5 -30q0 -25 -17 -39.5t-44 -14.5q-21 0 -34.5 11t-13.5 30q0 24 18 39t44 15q22 0 34.5 -11z" />
    <glyph glyph-name="Idotaccent" unicode="&#x130;" horiz-adv-x="301" 
d="M18 0zM303 567l-39 2q-8 0 -13.5 -5.5t-7.5 -15.5l-70 -499v-5q0 -17 15 -17l39 2l-4 -29h-205l4 29l39 -2q17 0 20 22l70 499v5q0 7 -3.5 11.5t-10.5 4.5l-39 -2l4 30h205zM260.5 762q12.5 -11 12.5 -30q0 -25 -17 -39.5t-44 -14.5q-21 0 -34.5 11t-13.5 30q0 24 18 39
t44 15q22 0 34.5 -11z" />
    <glyph glyph-name="Igrave" unicode="&#xcc;" horiz-adv-x="301" 
d="M18 0zM303 567l-39 2q-8 0 -13.5 -5.5t-7.5 -15.5l-70 -499v-5q0 -17 15 -17l39 2l-4 -29h-205l4 29l39 -2q17 0 20 22l70 499v5q0 7 -3.5 11.5t-10.5 4.5l-39 -2l4 30h205zM168.5 823q4.5 -3 9 -9.5t6.5 -8.5l82 -114q9 -14 9 -17q0 -8 -17 -8q-9 0 -18 9l-139 113
q-6 6 -6 11q0 7 21 17t39 10q9 0 13.5 -3z" />
    <glyph glyph-name="Imacron" unicode="&#x12a;" horiz-adv-x="301" 
d="M18 0zM303 567l-39 2q-8 0 -13.5 -5.5t-7.5 -15.5l-70 -499v-5q0 -17 15 -17l39 2l-4 -29h-205l4 29l39 -2q17 0 20 22l70 499v5q0 7 -3.5 11.5t-10.5 4.5l-39 -2l4 30h205zM337 716l-6 -40h-242l6 40h242z" />
    <glyph glyph-name="Iogonek" unicode="&#x12e;" horiz-adv-x="301" 
d="M307 597l-4 -30l-39 2q-8 0 -13.5 -5.5t-7.5 -15.5l-70 -499v-5q0 -17 15 -17l39 2l-4 -29h-55q-36 -29 -36 -71q0 -20 11 -32.5t34 -12.5q30 0 69 31l12 -14q-27 -29 -58.5 -44.5t-62.5 -15.5q-26 0 -44.5 16.5t-18.5 45.5q0 27 16 52.5t46 44.5h-118l4 29l39 -2
q17 0 20 22l70 499v5q0 7 -3.5 11.5t-10.5 4.5l-39 -2l4 30h205z" />
    <glyph glyph-name="J" unicode="J" horiz-adv-x="437" 
d="M443 567l-37 2q-18 0 -21 -20l-52 -370q-27 -189 -189 -189q-38 0 -80 10q-23 5 -36 5q-22 0 -36 -9l25 176h37q-3 -18 -3 -39q0 -49 19 -83t62 -34q46 0 70.5 37t37.5 126l52 369v5q0 16 -13 16l-69 -2l4 30h233z" />
    <glyph glyph-name="K" unicode="K" horiz-adv-x="598" 
d="M499 540l-171 -175l184 -324q8 -14 20 -14q1 0 34 3l-4 -30h-232l4 30l54 -3q16 0 16 14q0 5 -3 11l-139 246l-63 -64l-26 -185v-5q0 -17 15 -17l49 2l-4 -29h-215l4 29l39 -2q17 0 20 22l70 499v5q0 16 -14 16l-39 -2l4 30h215l-4 -30l-49 2q-18 0 -21 -22l-37 -266
l253 267q7 9 7 14q0 7 -7 7l-42 -2l4 30h175l-4 -30l-39 2q-24 1 -54 -29z" />
    <glyph glyph-name="Kcommaaccent" unicode="&#x136;" horiz-adv-x="598" 
d="M18 0zM499 540l-171 -175l184 -324q8 -14 20 -14q1 0 34 3l-4 -30h-232l4 30l54 -3q16 0 16 14q0 5 -3 11l-139 246l-63 -64l-26 -185v-5q0 -17 15 -17l49 2l-4 -29h-215l4 29l39 -2q17 0 20 22l70 499v5q0 16 -14 16l-39 -2l4 30h215l-4 -30l-49 2q-18 0 -21 -22
l-37 -266l253 267q7 9 7 14q0 7 -7 7l-42 -2l4 30h175l-4 -30l-39 2q-24 1 -54 -29zM307 -49.5q14 -15.5 14 -37.5q0 -40 -30 -74t-69 -52l-14 13q21 12 38.5 29.5t18.5 30.5q4 29 -24 29q-12 0 -19 9t-7 21q0 18 14.5 32.5t38.5 14.5q25 0 39 -15.5z" />
    <glyph glyph-name="L" unicode="L" horiz-adv-x="498" 
d="M313 567l-49 2q-8 0 -13.5 -5.5t-7.5 -15.5l-71 -507v-3q0 -10 8 -10h109q66 0 105 36.5t49 106.5h28l-24 -174q-19 3 -121 3h-308l4 30l43 -3q12 0 16 22l70 499v4q0 8 -3.5 12.5t-10.5 4.5l-39 -2l4 30h215z" />
    <glyph glyph-name="Lacute" unicode="&#x139;" horiz-adv-x="498" 
d="M18 0zM313 567l-49 2q-8 0 -13.5 -5.5t-7.5 -15.5l-71 -507v-3q0 -10 8 -10h109q66 0 105 36.5t49 106.5h28l-24 -174q-19 3 -121 3h-308l4 30l43 -3q12 0 16 22l70 499v4q0 8 -3.5 12.5t-10.5 4.5l-39 -2l4 30h215zM374 788l-171 -113q-12 -9 -21 -9q-14 0 -14 7
q0 4 9 13l11 11l107 108q12 13 18 17t17 4q17 0 35.5 -9.5t18.5 -16.5q0 -4 -10 -12z" />
    <glyph glyph-name="Lcaron" unicode="&#x13d;" horiz-adv-x="498" 
d="M18 0zM313 567l-49 2q-8 0 -13.5 -5.5t-7.5 -15.5l-71 -507v-3q0 -10 8 -10h109q66 0 105 36.5t49 106.5h28l-24 -174q-19 3 -121 3h-308l4 30l43 -3q12 0 16 22l70 499v4q0 8 -3.5 12.5t-10.5 4.5l-39 -2l4 30h215zM496 591.5q13 -15.5 13 -37.5q0 -36 -27 -68t-62 -48
l-14 13q18 12 32 29.5t15 30.5v4q0 15 -14 15q-12 0 -19 9t-7 21q0 18 12.5 32.5t35.5 14.5q22 0 35 -15.5z" />
    <glyph glyph-name="Lcommaaccent" unicode="&#x13b;" horiz-adv-x="498" 
d="M18 0zM313 567l-49 2q-8 0 -13.5 -5.5t-7.5 -15.5l-71 -507v-3q0 -10 8 -10h109q66 0 105 36.5t49 106.5h28l-24 -174q-19 3 -121 3h-308l4 30l43 -3q12 0 16 22l70 499v4q0 8 -3.5 12.5t-10.5 4.5l-39 -2l4 30h215zM254 -49.5q14 -15.5 14 -37.5q0 -40 -30 -74t-69 -52
l-14 13q21 12 38.5 29.5t18.5 30.5q4 29 -24 29q-12 0 -19 9t-7 21q0 18 14.5 32.5t38.5 14.5q25 0 39 -15.5z" />
    <glyph glyph-name="Ldot" unicode="&#x13f;" horiz-adv-x="498" 
d="M18 0zM313 567l-49 2q-8 0 -13.5 -5.5t-7.5 -15.5l-71 -507v-3q0 -10 8 -10h109q66 0 105 36.5t49 106.5h28l-24 -174q-19 3 -121 3h-308l4 30l43 -3q12 0 16 22l70 499v4q0 8 -3.5 12.5t-10.5 4.5l-39 -2l4 30h215zM369.5 373.5q20.5 18.5 50.5 18.5q24 0 39 -13.5
t15 -36.5q0 -29 -20.5 -47t-49.5 -18q-25 0 -40 13.5t-15 35.5q0 29 20.5 47.5z" />
    <glyph glyph-name="Lslash" unicode="&#x141;" horiz-adv-x="498" 
d="M471 171l-24 -174q-19 3 -121 3h-308l4 30l43 -3q12 0 16 22l24 172l-63 -48l7 47l63 48l39 280v4q0 8 -3.5 12.5t-10.5 4.5l-39 -2l4 30h215l-4 -30l-49 2q-8 0 -13.5 -5.5t-7.5 -15.5l-29 -205l107 82l-7 -48l-106 -82l-36 -254v-3q0 -10 8 -10h109q66 0 105 36.5
t49 106.5h28z" />
    <glyph glyph-name="M" unicode="M" horiz-adv-x="830" 
d="M827 567l-34 2q-8 0 -13.5 -5.5t-7.5 -14.5l-70 -500v-6q0 -16 15 -16l39 2l-4 -29h-215l4 29l49 -2q17 0 20 22l65 464l-299 -523h-26l-171 530l-66 -471v-7q0 -15 13 -15l49 2l-4 -29h-158l4 29l39 -2q18 0 21 22l72 514q2 6 -4 6l-45 -2l4 30h151l155 -482l277 482
h144z" />
    <glyph glyph-name="N" unicode="N" horiz-adv-x="641" 
d="M648 567l-41 2q-15 0 -18 -21l-78 -554h-32l-300 527l-66 -472v-7q0 -15 13 -15l49 2l-4 -29h-158l4 29l39 -2q18 0 21 22l70 499v5q0 7 -4 11.5t-11 4.5l-39 -2l4 30h152l249 -439l55 391l1 6q-2 14 -13 14l-52 -2l4 30h159z" />
    <glyph glyph-name="Nacute" unicode="&#x143;" horiz-adv-x="641" 
d="M13 0zM648 567l-41 2q-15 0 -18 -21l-78 -554h-32l-300 527l-66 -472v-7q0 -15 13 -15l49 2l-4 -29h-158l4 29l39 -2q18 0 21 22l70 499v5q0 7 -4 11.5t-11 4.5l-39 -2l4 30h152l249 -439l55 391l1 6q-2 14 -13 14l-52 -2l4 30h159zM527 788l-171 -113q-12 -9 -21 -9
q-14 0 -14 7q0 4 9 13l11 11l107 108q12 13 18 17t17 4q17 0 35.5 -9.5t18.5 -16.5q0 -4 -10 -12z" />
    <glyph glyph-name="Ncaron" unicode="&#x147;" horiz-adv-x="641" 
d="M13 0zM648 567l-41 2q-15 0 -18 -21l-78 -554h-32l-300 527l-66 -472v-7q0 -15 13 -15l49 2l-4 -29h-158l4 29l39 -2q18 0 21 22l70 499v5q0 7 -4 11.5t-11 4.5l-39 -2l4 30h152l249 -439l55 391l1 6q-2 14 -13 14l-52 -2l4 30h159zM555 817q0 -4 -27 -25q-7 -6 -25 -21
t-34 -30l-50 -48q-27 -25 -34 -25q-3 0 -10.5 7t-15.5 18l-36 48q-19 25 -49 55q-16 16 -16 20q0 3 3 5.5t10 2.5q10 0 27 -12l97 -73l120 73q22 12 29 12q11 0 11 -7z" />
    <glyph glyph-name="Ncommaaccent" unicode="&#x145;" horiz-adv-x="641" 
d="M13 0zM648 567l-41 2q-15 0 -18 -21l-78 -554h-32l-300 527l-66 -472v-7q0 -15 13 -15l49 2l-4 -29h-158l4 29l39 -2q18 0 21 22l70 499v5q0 7 -4 11.5t-11 4.5l-39 -2l4 30h152l249 -439l55 391l1 6q-2 14 -13 14l-52 -2l4 30h159zM355 -49.5q14 -15.5 14 -37.5
q0 -40 -30 -74t-69 -52l-14 13q21 12 38.5 29.5t18.5 30.5q4 29 -24 29q-12 0 -19 9t-7 21q0 18 14.5 32.5t38.5 14.5q25 0 39 -15.5z" />
    <glyph glyph-name="Ntilde" unicode="&#xd1;" horiz-adv-x="641" 
d="M13 0zM648 567l-41 2q-15 0 -18 -21l-78 -554h-32l-300 527l-66 -472v-7q0 -15 13 -15l49 2l-4 -29h-158l4 29l39 -2q18 0 21 22l70 499v5q0 7 -4 11.5t-11 4.5l-39 -2l4 30h152l249 -439l55 391l1 6q-2 14 -13 14l-52 -2l4 30h159zM405 745q53 -21 75 -21q14 0 25.5 12
t13.5 30h20q-5 -37 -27.5 -64t-49.5 -27q-15 0 -34 5.5t-49 16.5q-53 21 -75 21q-14 0 -25 -12t-14 -30h-20q5 37 27.5 64t49.5 27q23 0 83 -22z" />
    <glyph glyph-name="O" unicode="O" horiz-adv-x="649" 
d="M105 470q55 81 129 109t145 28q93 0 168.5 -53t75.5 -198q0 -147 -55.5 -228t-129.5 -109.5t-145 -28.5q-93 0 -168 54t-75 198q0 147 55 228zM164.5 97q16.5 -43 51 -61.5t90.5 -18.5q119 0 172 122q46 108 46 244q0 74 -16.5 117t-50.5 61.5t-91 18.5q-126 0 -177 -137
q-41 -108 -41 -228q0 -75 16.5 -118z" />
    <glyph glyph-name="Oacute" unicode="&#xd3;" horiz-adv-x="649" 
d="M50 0zM105 470q55 81 129 109t145 28q93 0 168.5 -53t75.5 -198q0 -147 -55.5 -228t-129.5 -109.5t-145 -28.5q-93 0 -168 54t-75 198q0 147 55 228zM164.5 97q16.5 -43 51 -61.5t90.5 -18.5q119 0 172 122q46 108 46 244q0 74 -16.5 117t-50.5 61.5t-91 18.5
q-126 0 -177 -137q-41 -108 -41 -228q0 -75 16.5 -118zM527 788l-171 -113q-12 -9 -21 -9q-14 0 -14 7q0 4 9 13l11 11l107 108q12 13 18 17t17 4q17 0 35.5 -9.5t18.5 -16.5q0 -4 -10 -12z" />
    <glyph glyph-name="Ocircumflex" unicode="&#xd4;" horiz-adv-x="649" 
d="M50 0zM105 470q55 81 129 109t145 28q93 0 168.5 -53t75.5 -198q0 -147 -55.5 -228t-129.5 -109.5t-145 -28.5q-93 0 -168 54t-75 198q0 147 55 228zM164.5 97q16.5 -43 51 -61.5t90.5 -18.5q119 0 172 122q46 108 46 244q0 74 -16.5 117t-50.5 61.5t-91 18.5
q-126 0 -177 -137q-41 -108 -41 -228q0 -75 16.5 -118zM238 673q0 4 27 25q7 6 25 21t34 30l50 48q27 25 34 25q3 0 10.5 -7t15.5 -18l36 -48q19 -25 49 -55q16 -16 16 -20q0 -3 -3 -5.5t-10 -2.5q-10 0 -27 12l-97 73l-120 -73q-22 -12 -29 -12q-11 0 -11 7z" />
    <glyph glyph-name="Odieresis" unicode="&#xd6;" horiz-adv-x="649" 
d="M50 0zM105 470q55 81 129 109t145 28q93 0 168.5 -53t75.5 -198q0 -147 -55.5 -228t-129.5 -109.5t-145 -28.5q-93 0 -168 54t-75 198q0 147 55 228zM164.5 97q16.5 -43 51 -61.5t90.5 -18.5q119 0 172 122q46 108 46 244q0 74 -16.5 117t-50.5 61.5t-91 18.5
q-126 0 -177 -137q-41 -108 -41 -228q0 -75 16.5 -118zM349.5 761q12.5 -11 12.5 -30q0 -25 -17 -39.5t-44 -14.5q-21 0 -34.5 11t-13.5 30q0 24 18 39t44 15q22 0 34.5 -11zM523.5 761q12.5 -11 12.5 -30q0 -25 -17 -39.5t-44 -14.5q-21 0 -34.5 11t-13.5 30q0 24 18 39
t44 15q22 0 34.5 -11z" />
    <glyph glyph-name="Ograve" unicode="&#xd2;" horiz-adv-x="649" 
d="M50 0zM105 470q55 81 129 109t145 28q93 0 168.5 -53t75.5 -198q0 -147 -55.5 -228t-129.5 -109.5t-145 -28.5q-93 0 -168 54t-75 198q0 147 55 228zM164.5 97q16.5 -43 51 -61.5t90.5 -18.5q119 0 172 122q46 108 46 244q0 74 -16.5 117t-50.5 61.5t-91 18.5
q-126 0 -177 -137q-41 -108 -41 -228q0 -75 16.5 -118zM343.5 823q4.5 -3 9 -9.5t6.5 -8.5l82 -114q9 -14 9 -17q0 -8 -17 -8q-9 0 -18 9l-139 113q-6 6 -6 11q0 7 21 17t39 10q9 0 13.5 -3z" />
    <glyph glyph-name="Ohungarumlaut" unicode="&#x150;" horiz-adv-x="649" 
d="M50 0zM105 470q55 81 129 109t145 28q93 0 168.5 -53t75.5 -198q0 -147 -55.5 -228t-129.5 -109.5t-145 -28.5q-93 0 -168 54t-75 198q0 147 55 228zM164.5 97q16.5 -43 51 -61.5t90.5 -18.5q119 0 172 122q46 108 46 244q0 74 -16.5 117t-50.5 61.5t-91 18.5
q-126 0 -177 -137q-41 -108 -41 -228q0 -75 16.5 -118zM421 817q17 -9 17 -16q0 -3 -9 -12q-10 -11 -126 -117q-6 -6 -17 -6q-10 0 -10 7q0 5 4 10q52 76 93 134q4 6 7 7.5t9 1.5q15 0 32 -9zM532 817.5q17 -8.5 17 -15.5q0 -4 -8 -13q-17 -20 -126 -117q-7 -6 -17 -6
q-5 0 -8 2t-3 5q0 2 4 10q44 60 66.5 93.5t27.5 40.5q5 6 8 7.5t8 1.5q14 0 31 -8.5z" />
    <glyph glyph-name="Omacron" unicode="&#x14c;" horiz-adv-x="649" 
d="M50 0zM105 470q55 81 129 109t145 28q93 0 168.5 -53t75.5 -198q0 -147 -55.5 -228t-129.5 -109.5t-145 -28.5q-93 0 -168 54t-75 198q0 147 55 228zM164.5 97q16.5 -43 51 -61.5t90.5 -18.5q119 0 172 122q46 108 46 244q0 74 -16.5 117t-50.5 61.5t-91 18.5
q-126 0 -177 -137q-41 -108 -41 -228q0 -75 16.5 -118zM512 716l-6 -40h-242l6 40h242z" />
    <glyph glyph-name="Oslash" unicode="&#xd8;" horiz-adv-x="644" 
d="M623 356q0 -147 -55.5 -228t-129.5 -109.5t-145 -28.5q-76 0 -132 31l-80 -113l-35 18l82 116q-78 66 -78 200q0 147 55 228t129 109t145 28q73 0 129 -28l76 108l35 -21l-77 -109q81 -63 81 -201zM166 95l316 447q-37 38 -116 38q-126 0 -177 -137q-41 -108 -41 -228
q0 -75 18 -120zM524 383q0 79 -19 123l-317 -448q35 -41 118 -41q119 0 172 122q46 108 46 244z" />
    <glyph glyph-name="Otilde" unicode="&#xd5;" horiz-adv-x="649" 
d="M50 0zM105 470q55 81 129 109t145 28q93 0 168.5 -53t75.5 -198q0 -147 -55.5 -228t-129.5 -109.5t-145 -28.5q-93 0 -168 54t-75 198q0 147 55 228zM164.5 97q16.5 -43 51 -61.5t90.5 -18.5q119 0 172 122q46 108 46 244q0 74 -16.5 117t-50.5 61.5t-91 18.5
q-126 0 -177 -137q-41 -108 -41 -228q0 -75 16.5 -118zM405 745q53 -21 75 -21q14 0 25.5 12t13.5 30h20q-5 -37 -27.5 -64t-49.5 -27q-15 0 -34 5.5t-49 16.5q-53 21 -75 21q-14 0 -25 -12t-14 -30h-20q5 37 27.5 64t49.5 27q23 0 83 -22z" />
    <glyph glyph-name="OE" unicode="&#x152;" horiz-adv-x="834" 
d="M427 605q20 -2 26 -3q30 -5 57 -5h317l-22 -154h-29q3 18 3 33q0 50 -29 71.5t-91 21.5h-91q-11 0 -13 -14l-32 -231h72q32 0 56 27.5t31 74.5h29l-33 -231h-29q2 16 2 22q0 36 -17 58t-43 22h-72l-36 -257v-3q0 -10 9 -10h111q66 0 105.5 39.5t49.5 112.5h29l-25 -182
q-25 3 -87 3h-241q-60 0 -97.5 -5t-38.5 -5q-120 0 -184 64t-64 183q0 173 83 271.5t254 98.5q20 0 40 -2zM172 422q-28 -75 -28 -210q0 -101 37 -147.5t117 -46.5q52 0 75.5 20.5t28.5 51.5l61 436q3 23 -22 39t-64 16q-156 0 -205 -159z" />
    <glyph glyph-name="P" unicode="P" horiz-adv-x="507" 
d="M463.5 563.5q43.5 -33.5 43.5 -100.5q0 -59 -25.5 -104t-71.5 -70.5t-107 -25.5h-100l-30 -214v-5q0 -17 15 -17l49 2l-4 -29h-215l4 29l39 -2q17 0 20 22l70 498l1 7q0 7 -4 11.5t-12 3.5l-38 -2l4 30h228q90 0 133.5 -33.5zM256 569q-3 0 -7 -3.5t-5 -8.5l-37 -266h80
q33 0 61.5 22.5t45.5 61t17 83.5q0 50 -27 80.5t-74 30.5h-54z" />
    <glyph glyph-name="Thorn" unicode="&#xde;" horiz-adv-x="508" 
d="M313 567l-49 2q-7 0 -12.5 -6t-7.5 -15l-7 -52h77q92 0 136 -32.5t44 -101.5q0 -90 -56 -145t-150 -55h-98l-16 -113l-1 -7q0 -16 15 -15l49 2l-4 -29h-215l4 29l39 -2q17 0 20 22l70 499v5q0 16 -14 16l-39 -2l4 30h215zM233 471l-38 -270v-2q0 -5 2.5 -8t6.5 -3h66
q31 0 61 23t48.5 62t18.5 84q0 52 -27 83t-76 31h-62z" />
    <glyph glyph-name="Q" unicode="Q" horiz-adv-x="649" 
d="M582 -86l7 -26q-70 -44 -123 -44q-45 0 -86 35t-87 111q-93 0 -168 54t-75 198q0 147 55 228t129 109t145 28q93 0 168.5 -53t75.5 -198q0 -175 -76.5 -257.5t-182.5 -101.5q39 -53 71.5 -74t68.5 -21q28 0 78 12zM164.5 97q16.5 -43 51 -61.5t90.5 -18.5q119 0 172 122
q46 108 46 244q0 74 -16.5 117t-50.5 61.5t-91 18.5q-126 0 -177 -137q-41 -108 -41 -228q0 -75 16.5 -118z" />
    <glyph glyph-name="R" unicode="R" horiz-adv-x="563" 
d="M460 566q45 -31 45 -98t-39.5 -111t-100.5 -60q51 -7 75 -40t24 -85l-2 -55l-2 -48q0 -22 7 -32.5t22 -10.5q12 0 21 6l8 -19q-17 -9 -41 -16t-46 -7q-31 0 -45.5 17.5t-14.5 56.5q0 16 1 28.5t2 21.5q3 26 3 47q0 62 -34.5 92.5t-89.5 32.5h-47l-33 -245q0 -14 15 -14
l49 2l-4 -29h-215l4 29l39 -2q17 0 20 22l69 493l1 9q0 9 -4 13.5t-14 4.5l-35 -2l4 30h218q95 0 140 -31zM256 569q-10 0 -11 -10l-35 -246h89q51 0 82 41.5t31 110.5q0 55 -23 79.5t-73 24.5h-60z" />
    <glyph glyph-name="Racute" unicode="&#x154;" horiz-adv-x="563" 
d="M18 0zM460 566q45 -31 45 -98t-39.5 -111t-100.5 -60q51 -7 75 -40t24 -85l-2 -55l-2 -48q0 -22 7 -32.5t22 -10.5q12 0 21 6l8 -19q-17 -9 -41 -16t-46 -7q-31 0 -45.5 17.5t-14.5 56.5q0 16 1 28.5t2 21.5q3 26 3 47q0 62 -34.5 92.5t-89.5 32.5h-47l-33 -245
q0 -14 15 -14l49 2l-4 -29h-215l4 29l39 -2q17 0 20 22l69 493l1 9q0 9 -4 13.5t-14 4.5l-35 -2l4 30h218q95 0 140 -31zM256 569q-10 0 -11 -10l-35 -246h89q51 0 82 41.5t31 110.5q0 55 -23 79.5t-73 24.5h-60zM483 788l-171 -113q-12 -9 -21 -9q-14 0 -14 7q0 4 9 13
l11 11l107 108q12 13 18 17t17 4q17 0 35.5 -9.5t18.5 -16.5q0 -4 -10 -12z" />
    <glyph glyph-name="Rcaron" unicode="&#x158;" horiz-adv-x="563" 
d="M18 0zM460 566q45 -31 45 -98t-39.5 -111t-100.5 -60q51 -7 75 -40t24 -85l-2 -55l-2 -48q0 -22 7 -32.5t22 -10.5q12 0 21 6l8 -19q-17 -9 -41 -16t-46 -7q-31 0 -45.5 17.5t-14.5 56.5q0 16 1 28.5t2 21.5q3 26 3 47q0 62 -34.5 92.5t-89.5 32.5h-47l-33 -245
q0 -14 15 -14l49 2l-4 -29h-215l4 29l39 -2q17 0 20 22l69 493l1 9q0 9 -4 13.5t-14 4.5l-35 -2l4 30h218q95 0 140 -31zM256 569q-10 0 -11 -10l-35 -246h89q51 0 82 41.5t31 110.5q0 55 -23 79.5t-73 24.5h-60zM511 817q0 -4 -27 -25q-7 -6 -25 -21t-34 -30l-50 -48
q-27 -25 -34 -25q-3 0 -10.5 7t-15.5 18l-36 48q-19 25 -49 55q-16 16 -16 20q0 3 3 5.5t10 2.5q10 0 27 -12l97 -73l120 73q22 12 29 12q11 0 11 -7z" />
    <glyph glyph-name="Rcommaaccent" unicode="&#x156;" horiz-adv-x="563" 
d="M18 0zM460 566q45 -31 45 -98t-39.5 -111t-100.5 -60q51 -7 75 -40t24 -85l-2 -55l-2 -48q0 -22 7 -32.5t22 -10.5q12 0 21 6l8 -19q-17 -9 -41 -16t-46 -7q-31 0 -45.5 17.5t-14.5 56.5q0 16 1 28.5t2 21.5q3 26 3 47q0 62 -34.5 92.5t-89.5 32.5h-47l-33 -245
q0 -14 15 -14l49 2l-4 -29h-215l4 29l39 -2q17 0 20 22l69 493l1 9q0 9 -4 13.5t-14 4.5l-35 -2l4 30h218q95 0 140 -31zM256 569q-10 0 -11 -10l-35 -246h89q51 0 82 41.5t31 110.5q0 55 -23 79.5t-73 24.5h-60zM288 -49.5q14 -15.5 14 -37.5q0 -40 -30 -74t-69 -52l-14 13
q21 12 38.5 29.5t18.5 30.5q4 29 -24 29q-12 0 -19 9t-7 21q0 18 14.5 32.5t38.5 14.5q25 0 39 -15.5z" />
    <glyph glyph-name="S" unicode="S" horiz-adv-x="479" 
d="M339 601.5q21 -5.5 70 -23.5q15 -6 25 -6q17 0 31 5q-1 -4 -6.5 -19t-9 -40t-3.5 -60q0 -19 1 -24h-28q2 16 2 24q0 55 -34.5 88.5t-89.5 33.5t-90 -27t-36 -72q0 -38 24.5 -63.5t71.5 -52.5l62 -35q52 -30 80.5 -65.5t28.5 -88.5q0 -54 -29.5 -96.5t-78 -66
t-102.5 -23.5q-39 0 -89 13l-25 6q-34 9 -45 9q-13 0 -28 -3t-21 -5q1 4 8 21t12 53t5 88q0 27 -1 31h27q-5 -185 150 -185q31 0 59.5 15t45.5 41t17 58q0 44 -25.5 73t-73.5 56l-49 27q-54 30 -83 64t-29 89q0 43 24.5 81.5t71.5 61.5t110 23q29 0 50 -5.5z" />
    <glyph glyph-name="Sacute" unicode="&#x15a;" horiz-adv-x="479" 
d="M20 0zM339 601.5q21 -5.5 70 -23.5q15 -6 25 -6q17 0 31 5q-1 -4 -6.5 -19t-9 -40t-3.5 -60q0 -19 1 -24h-28q2 16 2 24q0 55 -34.5 88.5t-89.5 33.5t-90 -27t-36 -72q0 -38 24.5 -63.5t71.5 -52.5l62 -35q52 -30 80.5 -65.5t28.5 -88.5q0 -54 -29.5 -96.5t-78 -66
t-102.5 -23.5q-39 0 -89 13l-25 6q-34 9 -45 9q-13 0 -28 -3t-21 -5q1 4 8 21t12 53t5 88q0 27 -1 31h27q-5 -185 150 -185q31 0 59.5 15t45.5 41t17 58q0 44 -25.5 73t-73.5 56l-49 27q-54 30 -83 64t-29 89q0 43 24.5 81.5t71.5 61.5t110 23q29 0 50 -5.5zM446 788
l-171 -113q-12 -9 -21 -9q-14 0 -14 7q0 4 9 13l11 11l107 108q12 13 18 17t17 4q17 0 35.5 -9.5t18.5 -16.5q0 -4 -10 -12z" />
    <glyph glyph-name="Scaron" unicode="&#x160;" horiz-adv-x="479" 
d="M20 0zM339 601.5q21 -5.5 70 -23.5q15 -6 25 -6q17 0 31 5q-1 -4 -6.5 -19t-9 -40t-3.5 -60q0 -19 1 -24h-28q2 16 2 24q0 55 -34.5 88.5t-89.5 33.5t-90 -27t-36 -72q0 -38 24.5 -63.5t71.5 -52.5l62 -35q52 -30 80.5 -65.5t28.5 -88.5q0 -54 -29.5 -96.5t-78 -66
t-102.5 -23.5q-39 0 -89 13l-25 6q-34 9 -45 9q-13 0 -28 -3t-21 -5q1 4 8 21t12 53t5 88q0 27 -1 31h27q-5 -185 150 -185q31 0 59.5 15t45.5 41t17 58q0 44 -25.5 73t-73.5 56l-49 27q-54 30 -83 64t-29 89q0 43 24.5 81.5t71.5 61.5t110 23q29 0 50 -5.5zM474 817
q0 -4 -27 -25q-7 -6 -25 -21t-34 -30l-50 -48q-27 -25 -34 -25q-3 0 -10.5 7t-15.5 18l-36 48q-19 25 -49 55q-16 16 -16 20q0 3 3 5.5t10 2.5q10 0 27 -12l97 -73l120 73q22 12 29 12q11 0 11 -7z" />
    <glyph glyph-name="Scedilla" unicode="&#x15e;" horiz-adv-x="479" 
d="M419 434q2 16 2 24q0 55 -34.5 88.5t-89.5 33.5t-90 -27t-36 -72q0 -38 24.5 -63.5t71.5 -52.5l62 -35q52 -30 80.5 -65.5t28.5 -88.5q0 -51 -26 -91.5t-69.5 -64.5t-94.5 -29l-24 -34q-9 -12 -9 -20q0 -6 6.5 -9t21.5 -7q23 -7 34.5 -14t11.5 -24q0 -42 -27.5 -69.5
t-76.5 -27.5q-44 0 -66 16l12 27q10 -16 32 -16q23 0 40.5 17t17.5 40q0 17 -25 36l-20 14q-10 7 -10 14q0 6 9 14l37 43q-34 1 -73 12l-25 6q-34 9 -45 9q-13 0 -28 -3t-21 -5q1 4 8 21t12 53t5 88q0 27 -1 31h27q-5 -185 150 -185q31 0 59.5 15t45.5 41t17 58
q0 44 -25.5 73t-73.5 56l-49 27q-54 30 -83 64t-29 89q0 43 24.5 81.5t71.5 61.5t110 23q29 0 50 -5.5t70 -23.5q15 -6 25 -6q17 0 31 5q-1 -4 -6.5 -19t-9 -40t-3.5 -60q0 -19 1 -24h-28z" />
    <glyph glyph-name="Scommaaccent" unicode="&#x218;" horiz-adv-x="479" 
d="M20 0zM339 601.5q21 -5.5 70 -23.5q15 -6 25 -6q17 0 31 5q-1 -4 -6.5 -19t-9 -40t-3.5 -60q0 -19 1 -24h-28q2 16 2 24q0 55 -34.5 88.5t-89.5 33.5t-90 -27t-36 -72q0 -38 24.5 -63.5t71.5 -52.5l62 -35q52 -30 80.5 -65.5t28.5 -88.5q0 -54 -29.5 -96.5t-78 -66
t-102.5 -23.5q-39 0 -89 13l-25 6q-34 9 -45 9q-13 0 -28 -3t-21 -5q1 4 8 21t12 53t5 88q0 27 -1 31h27q-5 -185 150 -185q31 0 59.5 15t45.5 41t17 58q0 44 -25.5 73t-73.5 56l-49 27q-54 30 -83 64t-29 89q0 43 24.5 81.5t71.5 61.5t110 23q29 0 50 -5.5zM264 -49.5
q14 -15.5 14 -37.5q0 -40 -30 -74t-69 -52l-14 13q21 12 38.5 29.5t18.5 30.5q4 29 -24 29q-12 0 -19 9t-7 21q0 18 14.5 32.5t38.5 14.5q25 0 39 -15.5z" />
    <glyph glyph-name="T" unicode="T" horiz-adv-x="512" 
d="M530 443h-28q3 20 3 36q0 46 -24.5 68t-77.5 22h-40q-4 0 -7.5 -3t-4.5 -8l-71 -509v-6q0 -16 14 -16l53 2l-4 -29h-234l4 29l54 -2q8 0 13 7t7 18l71 505v3q0 9 -8 9h-40q-63 0 -95 -30.5t-41 -95.5h-28l22 156q16 -2 40 -2h404q34 0 40 3z" />
    <glyph glyph-name="Tcaron" unicode="&#x164;" horiz-adv-x="512" 
d="M46 0zM530 443h-28q3 20 3 36q0 46 -24.5 68t-77.5 22h-40q-4 0 -7.5 -3t-4.5 -8l-71 -509v-6q0 -16 14 -16l53 2l-4 -29h-234l4 29l54 -2q8 0 13 7t7 18l71 505v3q0 9 -8 9h-40q-63 0 -95 -30.5t-41 -95.5h-28l22 156q16 -2 40 -2h404q34 0 40 3zM482 817q0 -4 -27 -25
q-7 -6 -25 -21t-34 -30l-50 -48q-27 -25 -34 -25q-3 0 -10.5 7t-15.5 18l-36 48q-19 25 -49 55q-16 16 -16 20q0 3 3 5.5t10 2.5q10 0 27 -12l97 -73l120 73q22 12 29 12q11 0 11 -7z" />
    <glyph glyph-name="uni0162" unicode="&#x162;" horiz-adv-x="512" 
d="M46 0zM530 443h-28q3 20 3 36q0 46 -24.5 68t-77.5 22h-40q-4 0 -7.5 -3t-4.5 -8l-71 -509v-6q0 -16 14 -16l53 2l-4 -29h-234l4 29l54 -2q8 0 13 7t7 18l71 505v3q0 9 -8 9h-40q-63 0 -95 -30.5t-41 -95.5h-28l22 156q16 -2 40 -2h404q34 0 40 3zM223 -43q-9 -12 -9 -20
q0 -6 6.5 -9t21.5 -7q23 -7 34.5 -14t11.5 -24q0 -42 -27.5 -69.5t-76.5 -27.5q-44 0 -66 16l12 27q10 -16 32 -16q23 0 40.5 17t17.5 40q0 17 -25 36l-20 14q-10 7 -10 14q0 6 9 14l45 52h35z" />
    <glyph glyph-name="uni021A" unicode="&#x21a;" horiz-adv-x="512" 
d="M46 0zM530 443h-28q3 20 3 36q0 46 -24.5 68t-77.5 22h-40q-4 0 -7.5 -3t-4.5 -8l-71 -509v-6q0 -16 14 -16l53 2l-4 -29h-234l4 29l54 -2q8 0 13 7t7 18l71 505v3q0 9 -8 9h-40q-63 0 -95 -30.5t-41 -95.5h-28l22 156q16 -2 40 -2h404q34 0 40 3zM263 -49.5
q14 -15.5 14 -37.5q0 -40 -30 -74t-69 -52l-14 13q21 12 38.5 29.5t18.5 30.5q4 29 -24 29q-12 0 -19 9t-7 21q0 18 14.5 32.5t38.5 14.5q25 0 39 -15.5z" />
    <glyph glyph-name="U" unicode="U" horiz-adv-x="631" 
d="M657 567l-39 2q-16 0 -19 -20l-51 -360q-14 -101 -75 -150t-170 -49q-106 0 -162.5 43.5t-56.5 127.5q0 19 3 38l49 349v5q0 7 -3.5 11.5t-9.5 4.5l-39 -2l4 30h215l-4 -30l-49 2q-18 0 -21 -20l-49 -350q-3 -19 -3 -36q0 -65 38.5 -101t108.5 -36q85 0 130 42t58 130
l49 350v5q0 16 -13 16l-49 -2l4 30h158z" />
    <glyph glyph-name="Uacute" unicode="&#xda;" horiz-adv-x="631" 
d="M84 0zM657 567l-39 2q-16 0 -19 -20l-51 -360q-14 -101 -75 -150t-170 -49q-106 0 -162.5 43.5t-56.5 127.5q0 19 3 38l49 349v5q0 7 -3.5 11.5t-9.5 4.5l-39 -2l4 30h215l-4 -30l-49 2q-18 0 -21 -20l-49 -350q-3 -19 -3 -36q0 -65 38.5 -101t108.5 -36q85 0 130 42
t58 130l49 350v5q0 16 -13 16l-49 -2l4 30h158zM527 788l-171 -113q-12 -9 -21 -9q-14 0 -14 7q0 4 9 13l11 11l107 108q12 13 18 17t17 4q17 0 35.5 -9.5t18.5 -16.5q0 -4 -10 -12z" />
    <glyph glyph-name="Ucircumflex" unicode="&#xdb;" horiz-adv-x="631" 
d="M84 0zM657 567l-39 2q-16 0 -19 -20l-51 -360q-14 -101 -75 -150t-170 -49q-106 0 -162.5 43.5t-56.5 127.5q0 19 3 38l49 349v5q0 7 -3.5 11.5t-9.5 4.5l-39 -2l4 30h215l-4 -30l-49 2q-18 0 -21 -20l-49 -350q-3 -19 -3 -36q0 -65 38.5 -101t108.5 -36q85 0 130 42
t58 130l49 350v5q0 16 -13 16l-49 -2l4 30h158zM238 673q0 4 27 25q7 6 25 21t34 30l50 48q27 25 34 25q3 0 10.5 -7t15.5 -18l36 -48q19 -25 49 -55q16 -16 16 -20q0 -3 -3 -5.5t-10 -2.5q-10 0 -27 12l-97 73l-120 -73q-22 -12 -29 -12q-11 0 -11 7z" />
    <glyph glyph-name="Udieresis" unicode="&#xdc;" horiz-adv-x="631" 
d="M84 0zM657 567l-39 2q-16 0 -19 -20l-51 -360q-14 -101 -75 -150t-170 -49q-106 0 -162.5 43.5t-56.5 127.5q0 19 3 38l49 349v5q0 7 -3.5 11.5t-9.5 4.5l-39 -2l4 30h215l-4 -30l-49 2q-18 0 -21 -20l-49 -350q-3 -19 -3 -36q0 -65 38.5 -101t108.5 -36q85 0 130 42
t58 130l49 350v5q0 16 -13 16l-49 -2l4 30h158zM349.5 761q12.5 -11 12.5 -30q0 -25 -17 -39.5t-44 -14.5q-21 0 -34.5 11t-13.5 30q0 24 18 39t44 15q22 0 34.5 -11zM523.5 761q12.5 -11 12.5 -30q0 -25 -17 -39.5t-44 -14.5q-21 0 -34.5 11t-13.5 30q0 24 18 39t44 15
q22 0 34.5 -11z" />
    <glyph glyph-name="Ugrave" unicode="&#xd9;" horiz-adv-x="631" 
d="M84 0zM657 567l-39 2q-16 0 -19 -20l-51 -360q-14 -101 -75 -150t-170 -49q-106 0 -162.5 43.5t-56.5 127.5q0 19 3 38l49 349v5q0 7 -3.5 11.5t-9.5 4.5l-39 -2l4 30h215l-4 -30l-49 2q-18 0 -21 -20l-49 -350q-3 -19 -3 -36q0 -65 38.5 -101t108.5 -36q85 0 130 42
t58 130l49 350v5q0 16 -13 16l-49 -2l4 30h158zM343.5 823q4.5 -3 9 -9.5t6.5 -8.5l82 -114q9 -14 9 -17q0 -8 -17 -8q-9 0 -18 9l-139 113q-6 6 -6 11q0 7 21 17t39 10q9 0 13.5 -3z" />
    <glyph glyph-name="Uhungarumlaut" unicode="&#x170;" horiz-adv-x="631" 
d="M84 0zM657 567l-39 2q-16 0 -19 -20l-51 -360q-14 -101 -75 -150t-170 -49q-106 0 -162.5 43.5t-56.5 127.5q0 19 3 38l49 349v5q0 7 -3.5 11.5t-9.5 4.5l-39 -2l4 30h215l-4 -30l-49 2q-18 0 -21 -20l-49 -350q-3 -19 -3 -36q0 -65 38.5 -101t108.5 -36q85 0 130 42
t58 130l49 350v5q0 16 -13 16l-49 -2l4 30h158zM421 817q17 -9 17 -16q0 -3 -9 -12q-10 -11 -126 -117q-6 -6 -17 -6q-10 0 -10 7q0 5 4 10q52 76 93 134q4 6 7 7.5t9 1.5q15 0 32 -9zM532 817.5q17 -8.5 17 -15.5q0 -4 -8 -13q-17 -20 -126 -117q-7 -6 -17 -6q-5 0 -8 2
t-3 5q0 2 4 10q44 60 66.5 93.5t27.5 40.5q5 6 8 7.5t8 1.5q14 0 31 -8.5z" />
    <glyph glyph-name="Umacron" unicode="&#x16a;" horiz-adv-x="631" 
d="M84 0zM657 567l-39 2q-16 0 -19 -20l-51 -360q-14 -101 -75 -150t-170 -49q-106 0 -162.5 43.5t-56.5 127.5q0 19 3 38l49 349v5q0 7 -3.5 11.5t-9.5 4.5l-39 -2l4 30h215l-4 -30l-49 2q-18 0 -21 -20l-49 -350q-3 -19 -3 -36q0 -65 38.5 -101t108.5 -36q85 0 130 42
t58 130l49 350v5q0 16 -13 16l-49 -2l4 30h158zM512 716l-6 -40h-242l6 40h242z" />
    <glyph glyph-name="Uogonek" unicode="&#x172;" horiz-adv-x="631" 
d="M661 597l-4 -30l-39 2q-16 0 -19 -20l-51 -360q-18 -132 -118 -176q-26 -13 -41 -35.5t-15 -48.5q0 -20 11 -32.5t34 -12.5q30 0 69 31l12 -14q-27 -29 -58.5 -44.5t-62.5 -15.5q-26 0 -44.5 16.5t-18.5 45.5q0 25 14 49.5t41 43.5q-32 -6 -68 -6q-106 0 -162.5 43.5
t-56.5 127.5q0 19 3 38l49 349v5q0 7 -3.5 11.5t-9.5 4.5l-39 -2l4 30h215l-4 -30l-49 2q-18 0 -21 -20l-49 -350q-3 -19 -3 -36q0 -65 38.5 -101t108.5 -36q85 0 130 42t58 130l49 350v5q0 16 -13 16l-49 -2l4 30h158z" />
    <glyph glyph-name="Uring" unicode="&#x16e;" horiz-adv-x="631" 
d="M84 0zM657 567l-39 2q-16 0 -19 -20l-51 -360q-14 -101 -75 -150t-170 -49q-106 0 -162.5 43.5t-56.5 127.5q0 19 3 38l49 349v5q0 7 -3.5 11.5t-9.5 4.5l-39 -2l4 30h215l-4 -30l-49 2q-18 0 -21 -20l-49 -350q-3 -19 -3 -36q0 -65 38.5 -101t108.5 -36q85 0 130 42
t58 130l49 350v5q0 16 -13 16l-49 -2l4 30h158zM343.5 802.5q27.5 26.5 64.5 26.5q34 0 52.5 -19t18.5 -52q0 -40 -26.5 -66t-67.5 -26q-33 0 -51 19.5t-18 52.5q0 38 27.5 64.5zM368.5 713q7.5 -11 21.5 -11q18 0 30.5 15.5t12.5 36.5q0 18 -7.5 28.5t-22.5 10.5
q-18 0 -30 -15t-12 -36q0 -18 7.5 -29z" />
    <glyph glyph-name="V" unicode="V" horiz-adv-x="564" 
d="M639 597l-4 -30l-36 2q-6 0 -10.5 -5t-11.5 -18l-302 -550h-29l-155 550q-6 23 -18 23l-28 -2l4 30h210l-4 -30l-53 2q-5 0 -8.5 -4t-3.5 -10q0 -4 2 -10l119 -411l225 412q5 8 5 15q0 8 -9 8l-51 -2l4 30h154z" />
    <glyph glyph-name="W" unicode="W" horiz-adv-x="854" 
d="M929 597l-4 -30l-31 2q-14 0 -25 -21l-249 -558h-18l-131 515l-229 -515h-21l-130 557q-4 22 -16 22l-30 -2l4 30h211l-4 -30l-56 2q-10 0 -10 -10l2 -12l92 -387l174 396v1q-2 6 -5 9t-10 3l-41 -2l4 30h203l-4 -30l-44 2q-10 0 -10 -13q0 -6 1 -9l105 -402l175 404
q3 6 3 12q0 8 -9 8l-52 -2l4 30h151z" />
    <glyph glyph-name="Wacute" unicode="&#x1e82;" horiz-adv-x="854" 
d="M45 0zM929 597l-4 -30l-31 2q-14 0 -25 -21l-249 -558h-18l-131 515l-229 -515h-21l-130 557q-4 22 -16 22l-30 -2l4 30h211l-4 -30l-56 2q-10 0 -10 -10l2 -12l92 -387l174 396v1q-2 6 -5 9t-10 3l-41 -2l4 30h203l-4 -30l-44 2q-10 0 -10 -13q0 -6 1 -9l105 -402
l175 404q3 6 3 12q0 8 -9 8l-52 -2l4 30h151zM656 788l-171 -113q-12 -9 -21 -9q-14 0 -14 7q0 4 9 13l11 11l107 108q12 13 18 17t17 4q17 0 35.5 -9.5t18.5 -16.5q0 -4 -10 -12z" />
    <glyph glyph-name="Wcircumflex" unicode="&#x174;" horiz-adv-x="854" 
d="M45 0zM929 597l-4 -30l-31 2q-14 0 -25 -21l-249 -558h-18l-131 515l-229 -515h-21l-130 557q-4 22 -16 22l-30 -2l4 30h211l-4 -30l-56 2q-10 0 -10 -10l2 -12l92 -387l174 396v1q-2 6 -5 9t-10 3l-41 -2l4 30h203l-4 -30l-44 2q-10 0 -10 -13q0 -6 1 -9l105 -402
l175 404q3 6 3 12q0 8 -9 8l-52 -2l4 30h151zM367 673q0 4 27 25q7 6 25 21t34 30l50 48q27 25 34 25q3 0 10.5 -7t15.5 -18l36 -48q19 -25 49 -55q16 -16 16 -20q0 -3 -3 -5.5t-10 -2.5q-10 0 -27 12l-97 73l-120 -73q-22 -12 -29 -12q-11 0 -11 7z" />
    <glyph glyph-name="Wdieresis" unicode="&#x1e84;" horiz-adv-x="854" 
d="M45 0zM929 597l-4 -30l-31 2q-14 0 -25 -21l-249 -558h-18l-131 515l-229 -515h-21l-130 557q-4 22 -16 22l-30 -2l4 30h211l-4 -30l-56 2q-10 0 -10 -10l2 -12l92 -387l174 396v1q-2 6 -5 9t-10 3l-41 -2l4 30h203l-4 -30l-44 2q-10 0 -10 -13q0 -6 1 -9l105 -402
l175 404q3 6 3 12q0 8 -9 8l-52 -2l4 30h151zM478.5 761q12.5 -11 12.5 -30q0 -25 -17 -39.5t-44 -14.5q-21 0 -34.5 11t-13.5 30q0 24 18 39t44 15q22 0 34.5 -11zM652.5 761q12.5 -11 12.5 -30q0 -25 -17 -39.5t-44 -14.5q-21 0 -34.5 11t-13.5 30q0 24 18 39t44 15
q22 0 34.5 -11z" />
    <glyph glyph-name="Wgrave" unicode="&#x1e80;" horiz-adv-x="854" 
d="M45 0zM929 597l-4 -30l-31 2q-14 0 -25 -21l-249 -558h-18l-131 515l-229 -515h-21l-130 557q-4 22 -16 22l-30 -2l4 30h211l-4 -30l-56 2q-10 0 -10 -10l2 -12l92 -387l174 396v1q-2 6 -5 9t-10 3l-41 -2l4 30h203l-4 -30l-44 2q-10 0 -10 -13q0 -6 1 -9l105 -402
l175 404q3 6 3 12q0 8 -9 8l-52 -2l4 30h151zM472.5 823q4.5 -3 9 -9.5t6.5 -8.5l82 -114q9 -14 9 -17q0 -8 -17 -8q-9 0 -18 9l-139 113q-6 6 -6 11q0 7 21 17t39 10q9 0 13.5 -3z" />
    <glyph glyph-name="X" unicode="X" horiz-adv-x="549" 
d="M578 597l-4 -30l-31 2q-15 2 -32 -20l-164 -220l123 -285q4 -7 10.5 -12.5t15.5 -4.5l39 3l-4 -30h-230l4 30l49 -3q11 0 11 11q0 6 -3 13l-90 210l-159 -214q-5 -7 -5 -13q0 -7 6 -7l46 3l-4 -30h-157l4 30l37 -2q18 0 34 22l184 245l-111 255q-8 19 -26 19l-33 -2l4 30
h223l-4 -30l-42 2q-12 0 -15.5 -7t0.5 -14l78 -185l139 186q6 8 6 13q0 3 -2.5 5t-6.5 2l-43 -2l4 30h149z" />
    <glyph glyph-name="Y" unicode="Y" horiz-adv-x="491" 
d="M555 597l-4 -30l-30 2q-14 0 -29 -21l-177 -260l-34 -240v-6q0 -15 15 -15l48 2l-4 -29h-224l4 29l49 -2q17 0 20 22l30 214l-127 287q-5 11 -9 15t-10 4l-28 -2l4 30h216l-4 -30l-53 2q-11 0 -11 -11q0 -4 3 -13l99 -226l157 230q4 6 4 12q0 8 -7 8l-51 -2l4 30h149z
" />
    <glyph glyph-name="Yacute" unicode="&#xdd;" horiz-adv-x="491" 
d="M45 0zM555 597l-4 -30l-30 2q-14 0 -29 -21l-177 -260l-34 -240v-6q0 -15 15 -15l48 2l-4 -29h-224l4 29l49 -2q17 0 20 22l30 214l-127 287q-5 11 -9 15t-10 4l-28 -2l4 30h216l-4 -30l-53 2q-11 0 -11 -11q0 -4 3 -13l99 -226l157 230q4 6 4 12q0 8 -7 8l-51 -2l4 30
h149zM458 788l-171 -113q-12 -9 -21 -9q-14 0 -14 7q0 4 9 13l11 11l107 108q12 13 18 17t17 4q17 0 35.5 -9.5t18.5 -16.5q0 -4 -10 -12z" />
    <glyph glyph-name="Ycircumflex" unicode="&#x176;" horiz-adv-x="491" 
d="M45 0zM555 597l-4 -30l-30 2q-14 0 -29 -21l-177 -260l-34 -240v-6q0 -15 15 -15l48 2l-4 -29h-224l4 29l49 -2q17 0 20 22l30 214l-127 287q-5 11 -9 15t-10 4l-28 -2l4 30h216l-4 -30l-53 2q-11 0 -11 -11q0 -4 3 -13l99 -226l157 230q4 6 4 12q0 8 -7 8l-51 -2l4 30
h149zM169 673q0 4 27 25q7 6 25 21t34 30l50 48q27 25 34 25q3 0 10.5 -7t15.5 -18l36 -48q19 -25 49 -55q16 -16 16 -20q0 -3 -3 -5.5t-10 -2.5q-10 0 -27 12l-97 73l-120 -73q-22 -12 -29 -12q-11 0 -11 7z" />
    <glyph glyph-name="Ydieresis" unicode="&#x178;" horiz-adv-x="491" 
d="M45 0zM555 597l-4 -30l-30 2q-14 0 -29 -21l-177 -260l-34 -240v-6q0 -15 15 -15l48 2l-4 -29h-224l4 29l49 -2q17 0 20 22l30 214l-127 287q-5 11 -9 15t-10 4l-28 -2l4 30h216l-4 -30l-53 2q-11 0 -11 -11q0 -4 3 -13l99 -226l157 230q4 6 4 12q0 8 -7 8l-51 -2l4 30
h149zM280.5 761q12.5 -11 12.5 -30q0 -25 -17 -39.5t-44 -14.5q-21 0 -34.5 11t-13.5 30q0 24 18 39t44 15q22 0 34.5 -11zM454.5 761q12.5 -11 12.5 -30q0 -25 -17 -39.5t-44 -14.5q-21 0 -34.5 11t-13.5 30q0 24 18 39t44 15q22 0 34.5 -11z" />
    <glyph glyph-name="Ygrave" unicode="&#x1ef2;" horiz-adv-x="491" 
d="M45 0zM555 597l-4 -30l-30 2q-14 0 -29 -21l-177 -260l-34 -240v-6q0 -15 15 -15l48 2l-4 -29h-224l4 29l49 -2q17 0 20 22l30 214l-127 287q-5 11 -9 15t-10 4l-28 -2l4 30h216l-4 -30l-53 2q-11 0 -11 -11q0 -4 3 -13l99 -226l157 230q4 6 4 12q0 8 -7 8l-51 -2l4 30
h149zM274.5 823q4.5 -3 9 -9.5t6.5 -8.5l82 -114q9 -14 9 -17q0 -8 -17 -8q-9 0 -18 9l-139 113q-6 6 -6 11q0 7 21 17t39 10q9 0 13.5 -3z" />
    <glyph glyph-name="Z" unicode="Z" horiz-adv-x="497" 
d="M502 574l-389 -546h167q66 0 109.5 37t52.5 103h29l-32 -172q-11 5 -109 5h-327l4 27l384 542h-143q-69 0 -106.5 -30.5t-46.5 -95.5h-29l22 157l49 -1l58 -2h310z" />
    <glyph glyph-name="Zacute" unicode="&#x179;" horiz-adv-x="497" 
d="M3 0zM502 574l-389 -546h167q66 0 109.5 37t52.5 103h29l-32 -172q-11 5 -109 5h-327l4 27l384 542h-143q-69 0 -106.5 -30.5t-46.5 -95.5h-29l22 157l49 -1l58 -2h310zM455 788l-171 -113q-12 -9 -21 -9q-14 0 -14 7q0 4 9 13l11 11l107 108q12 13 18 17t17 4
q17 0 35.5 -9.5t18.5 -16.5q0 -4 -10 -12z" />
    <glyph glyph-name="Zcaron" unicode="&#x17d;" horiz-adv-x="497" 
d="M3 0zM502 574l-389 -546h167q66 0 109.5 37t52.5 103h29l-32 -172q-11 5 -109 5h-327l4 27l384 542h-143q-69 0 -106.5 -30.5t-46.5 -95.5h-29l22 157l49 -1l58 -2h310zM483 817q0 -4 -27 -25q-7 -6 -25 -21t-34 -30l-50 -48q-27 -25 -34 -25q-3 0 -10.5 7t-15.5 18
l-36 48q-19 25 -49 55q-16 16 -16 20q0 3 3 5.5t10 2.5q10 0 27 -12l97 -73l120 73q22 12 29 12q11 0 11 -7z" />
    <glyph glyph-name="Zdotaccent" unicode="&#x17b;" horiz-adv-x="497" 
d="M3 0zM502 574l-389 -546h167q66 0 109.5 37t52.5 103h29l-32 -172q-11 5 -109 5h-327l4 27l384 542h-143q-69 0 -106.5 -30.5t-46.5 -95.5h-29l22 157l49 -1l58 -2h310zM363.5 762q12.5 -11 12.5 -30q0 -25 -17 -39.5t-44 -14.5q-21 0 -34.5 11t-13.5 30q0 24 18 39
t44 15q22 0 34.5 -11z" />
    <glyph glyph-name="a" unicode="a" 
d="M428 80l12 -20q-30 -36 -63.5 -53t-58.5 -17q-14 0 -19 11t-5 35q0 29 21 151q-57 -108 -102 -152.5t-93 -44.5q-44 0 -68 32.5t-24 89.5q0 70 34.5 144.5t92 124t120.5 49.5q24 0 44.5 -10t33.5 -27l6 22l84 14l-24 -99q-18 -80 -30 -150t-12 -96q0 -17 13 -17
q18 0 38 13zM229.5 99q44.5 54 77.5 126t33 121q0 23 -18 38.5t-45 15.5q-54 0 -91.5 -47.5t-54.5 -120.5q-14 -52 -14 -109q0 -38 11 -58t28 -20q29 0 73.5 54z" />
    <glyph glyph-name="aacute" unicode="&#xe1;" 
d="M28 0zM428 80l12 -20q-30 -36 -63.5 -53t-58.5 -17q-14 0 -19 11t-5 35q0 29 21 151q-57 -108 -102 -152.5t-93 -44.5q-44 0 -68 32.5t-24 89.5q0 70 34.5 144.5t92 124t120.5 49.5q24 0 44.5 -10t33.5 -27l6 22l84 14l-24 -99q-18 -80 -30 -150t-12 -96q0 -17 13 -17
q18 0 38 13zM229.5 99q44.5 54 77.5 126t33 121q0 23 -18 38.5t-45 15.5q-54 0 -91.5 -47.5t-54.5 -120.5q-14 -52 -14 -109q0 -38 11 -58t28 -20q29 0 73.5 54zM423 615l-171 -113q-12 -9 -21 -9q-14 0 -14 7q0 4 9 13l11 11l107 108q12 13 18 17t17 4q17 0 35.5 -9.5
t18.5 -16.5q0 -4 -10 -12z" />
    <glyph glyph-name="abreve" unicode="&#x103;" 
d="M28 0zM428 80l12 -20q-30 -36 -63.5 -53t-58.5 -17q-14 0 -19 11t-5 35q0 29 21 151q-57 -108 -102 -152.5t-93 -44.5q-44 0 -68 32.5t-24 89.5q0 70 34.5 144.5t92 124t120.5 49.5q24 0 44.5 -10t33.5 -27l6 22l84 14l-24 -99q-18 -80 -30 -150t-12 -96q0 -17 13 -17
q18 0 38 13zM229.5 99q44.5 54 77.5 126t33 121q0 23 -18 38.5t-45 15.5q-54 0 -91.5 -47.5t-54.5 -120.5q-14 -52 -14 -109q0 -38 11 -58t28 -20q29 0 73.5 54zM378 551.5q-37 -33.5 -92 -33.5t-82.5 33.5t-25.5 90.5h44q3 -32 19 -53t52 -21q35 0 58.5 21.5t34.5 52.5h43
q-14 -57 -51 -90.5z" />
    <glyph glyph-name="acircumflex" unicode="&#xe2;" 
d="M28 0zM428 80l12 -20q-30 -36 -63.5 -53t-58.5 -17q-14 0 -19 11t-5 35q0 29 21 151q-57 -108 -102 -152.5t-93 -44.5q-44 0 -68 32.5t-24 89.5q0 70 34.5 144.5t92 124t120.5 49.5q24 0 44.5 -10t33.5 -27l6 22l84 14l-24 -99q-18 -80 -30 -150t-12 -96q0 -17 13 -17
q18 0 38 13zM229.5 99q44.5 54 77.5 126t33 121q0 23 -18 38.5t-45 15.5q-54 0 -91.5 -47.5t-54.5 -120.5q-14 -52 -14 -109q0 -38 11 -58t28 -20q29 0 73.5 54zM134 500q0 4 27 25q7 6 25 21t34 30l50 48q27 25 34 25q3 0 10.5 -7t15.5 -18l36 -48q19 -25 49 -55
q16 -16 16 -20q0 -3 -3 -5.5t-10 -2.5q-10 0 -27 12l-97 73l-120 -73q-22 -12 -29 -12q-11 0 -11 7z" />
    <glyph glyph-name="adieresis" unicode="&#xe4;" 
d="M28 0zM428 80l12 -20q-30 -36 -63.5 -53t-58.5 -17q-14 0 -19 11t-5 35q0 29 21 151q-57 -108 -102 -152.5t-93 -44.5q-44 0 -68 32.5t-24 89.5q0 70 34.5 144.5t92 124t120.5 49.5q24 0 44.5 -10t33.5 -27l6 22l84 14l-24 -99q-18 -80 -30 -150t-12 -96q0 -17 13 -17
q18 0 38 13zM229.5 99q44.5 54 77.5 126t33 121q0 23 -18 38.5t-45 15.5q-54 0 -91.5 -47.5t-54.5 -120.5q-14 -52 -14 -109q0 -38 11 -58t28 -20q29 0 73.5 54zM250.5 632q12.5 -11 12.5 -30q0 -25 -17 -39.5t-44 -14.5q-21 0 -34.5 11t-13.5 30q0 24 18 39t44 15
q22 0 34.5 -11zM424.5 632q12.5 -11 12.5 -30q0 -25 -17 -39.5t-44 -14.5q-21 0 -34.5 11t-13.5 30q0 24 18 39t44 15q22 0 34.5 -11z" />
    <glyph glyph-name="agrave" unicode="&#xe0;" 
d="M28 0zM428 80l12 -20q-30 -36 -63.5 -53t-58.5 -17q-14 0 -19 11t-5 35q0 29 21 151q-57 -108 -102 -152.5t-93 -44.5q-44 0 -68 32.5t-24 89.5q0 70 34.5 144.5t92 124t120.5 49.5q24 0 44.5 -10t33.5 -27l6 22l84 14l-24 -99q-18 -80 -30 -150t-12 -96q0 -17 13 -17
q18 0 38 13zM229.5 99q44.5 54 77.5 126t33 121q0 23 -18 38.5t-45 15.5q-54 0 -91.5 -47.5t-54.5 -120.5q-14 -52 -14 -109q0 -38 11 -58t28 -20q29 0 73.5 54zM241.5 650q4.5 -3 9 -9.5t6.5 -8.5l82 -114q9 -14 9 -17q0 -8 -17 -8q-9 0 -18 9l-139 113q-6 6 -6 11
q0 7 21 17t39 10q9 0 13.5 -3z" />
    <glyph glyph-name="amacron" unicode="&#x101;" 
d="M28 0zM428 80l12 -20q-30 -36 -63.5 -53t-58.5 -17q-14 0 -19 11t-5 35q0 29 21 151q-57 -108 -102 -152.5t-93 -44.5q-44 0 -68 32.5t-24 89.5q0 70 34.5 144.5t92 124t120.5 49.5q24 0 44.5 -10t33.5 -27l6 22l84 14l-24 -99q-18 -80 -30 -150t-12 -96q0 -17 13 -17
q18 0 38 13zM229.5 99q44.5 54 77.5 126t33 121q0 23 -18 38.5t-45 15.5q-54 0 -91.5 -47.5t-54.5 -120.5q-14 -52 -14 -109q0 -38 11 -58t28 -20q29 0 73.5 54zM419 607l-6 -40h-242l6 40h242z" />
    <glyph glyph-name="aogonek" unicode="&#x105;" 
d="M456 -99q-27 -29 -58.5 -44.5t-62.5 -15.5q-26 0 -44.5 16.5t-18.5 45.5q0 49 48 87h-2q-14 0 -19 11t-5 35q0 29 21 151q-57 -108 -102 -152.5t-93 -44.5q-44 0 -68 32.5t-24 89.5q0 70 34.5 144.5t92 124t120.5 49.5q24 0 44.5 -10t33.5 -27l6 22l84 14l-24 -99
q-18 -80 -30 -150t-12 -96q0 -17 13 -17q18 0 38 13l12 -20q-31 -38 -68 -55q-20 -14 -31 -34t-11 -42q0 -20 11 -32.5t34 -12.5q30 0 69 31zM229.5 99q44.5 54 77.5 126t33 121q0 23 -18 38.5t-45 15.5q-54 0 -91.5 -47.5t-54.5 -120.5q-14 -52 -14 -109q0 -38 11 -58
t28 -20q29 0 73.5 54z" />
    <glyph glyph-name="aring" unicode="&#xe5;" 
d="M28 0zM428 80l12 -20q-30 -36 -63.5 -53t-58.5 -17q-14 0 -19 11t-5 35q0 29 21 151q-57 -108 -102 -152.5t-93 -44.5q-44 0 -68 32.5t-24 89.5q0 70 34.5 144.5t92 124t120.5 49.5q24 0 44.5 -10t33.5 -27l6 22l84 14l-24 -99q-18 -80 -30 -150t-12 -96q0 -17 13 -17
q18 0 38 13zM229.5 99q44.5 54 77.5 126t33 121q0 23 -18 38.5t-45 15.5q-54 0 -91.5 -47.5t-54.5 -120.5q-14 -52 -14 -109q0 -38 11 -58t28 -20q29 0 73.5 54zM241.5 629.5q27.5 26.5 64.5 26.5q34 0 52.5 -19t18.5 -52q0 -40 -26.5 -66t-67.5 -26q-33 0 -51 19.5
t-18 52.5q0 38 27.5 64.5zM266.5 540q7.5 -11 21.5 -11q18 0 30.5 15.5t12.5 36.5q0 18 -7.5 28.5t-22.5 10.5q-18 0 -30 -15t-12 -36q0 -18 7.5 -29z" />
    <glyph glyph-name="atilde" unicode="&#xe3;" 
d="M28 0zM428 80l12 -20q-30 -36 -63.5 -53t-58.5 -17q-14 0 -19 11t-5 35q0 29 21 151q-57 -108 -102 -152.5t-93 -44.5q-44 0 -68 32.5t-24 89.5q0 70 34.5 144.5t92 124t120.5 49.5q24 0 44.5 -10t33.5 -27l6 22l84 14l-24 -99q-18 -80 -30 -150t-12 -96q0 -17 13 -17
q18 0 38 13zM229.5 99q44.5 54 77.5 126t33 121q0 23 -18 38.5t-45 15.5q-54 0 -91.5 -47.5t-54.5 -120.5q-14 -52 -14 -109q0 -38 11 -58t28 -20q29 0 73.5 54zM306 599q53 -21 75 -21q14 0 25.5 12t13.5 30h20q-5 -37 -27.5 -64t-49.5 -27q-15 0 -34 5.5t-49 16.5
q-53 21 -75 21q-14 0 -25 -12t-14 -30h-20q5 37 27.5 64t49.5 27q23 0 83 -22z" />
    <glyph glyph-name="ae" unicode="&#xe6;" horiz-adv-x="643" 
d="M606 265q-28 -32 -89.5 -54.5t-156.5 -29.5q-1 -9 -1 -27q0 -50 21.5 -79.5t55.5 -29.5q45 0 132 55l22 -16q-40 -41 -86.5 -67t-92.5 -26q-57 0 -96 38t-44 101q-40 -74 -79 -107t-86 -33q-44 0 -68.5 32t-24.5 81q0 72 52 143.5t136 117.5t175 46q28 0 44 -4
q43 24 88 24q54 0 90 -28.5t36 -69.5q0 -35 -28 -67zM548.5 382q-14.5 18 -42.5 18q-66 0 -109 -81q-26 -51 -33 -106q95 7 147 41.5t52 83.5q0 26 -14.5 44zM311.5 295q28.5 50 70.5 85h-2q-74 0 -131 -33t-94 -86q-26 -36 -39.5 -75t-13.5 -71q0 -26 10 -48t29 -22
q32 0 69 42.5t64 103.5q9 54 37.5 104z" />
    <glyph glyph-name="b" unicode="b" horiz-adv-x="457" 
d="M204.5 725q8.5 -5 8.5 -17q0 -7 -19 -123q-40 -251 -52 -345q44 97 94.5 143.5t98.5 46.5q46 0 73 -35.5t27 -93.5q0 -71 -34.5 -142.5t-95.5 -118.5t-137 -47q-56 0 -85.5 23.5t-29.5 67.5q0 34 11 121.5t24 179.5q12 84 22 161t10 105q0 12 -8.5 18.5t-22.5 6.5
q-11 0 -26 -3l-6 25q30 16 63 24t55 8q21 0 29.5 -5zM228.5 326q-42.5 -49 -74 -116t-31.5 -115q0 -41 21.5 -56.5t49.5 -15.5q51 0 85.5 43.5t51.5 107.5q15 59 15 105q0 43 -13.5 69.5t-33.5 26.5q-28 0 -70.5 -49z" />
    <glyph glyph-name="c" unicode="c" horiz-adv-x="406" 
d="M352 403q35 -27 35 -66q0 -23 -13.5 -41t-41.5 -18q-32 0 -32 26q0 9 8 25t8 29q0 20 -15 31t-38 11q-68 0 -114 -93q-34 -70 -34 -149q0 -52 20.5 -82.5t56.5 -30.5q27 0 59 15t73 40l22 -16q-39 -41 -85.5 -67t-89.5 -26q-67 0 -106 42.5t-39 111.5q0 72 34 138
t89 106.5t116 40.5q52 0 87 -27z" />
    <glyph glyph-name="cacute" unicode="&#x107;" horiz-adv-x="406" 
d="M26 0zM352 403q35 -27 35 -66q0 -23 -13.5 -41t-41.5 -18q-32 0 -32 26q0 9 8 25t8 29q0 20 -15 31t-38 11q-68 0 -114 -93q-34 -70 -34 -149q0 -52 20.5 -82.5t56.5 -30.5q27 0 59 15t73 40l22 -16q-39 -41 -85.5 -67t-89.5 -26q-67 0 -106 42.5t-39 111.5q0 72 34 138
t89 106.5t116 40.5q52 0 87 -27zM376 615l-171 -113q-12 -9 -21 -9q-14 0 -14 7q0 4 9 13l11 11l107 108q12 13 18 17t17 4q17 0 35.5 -9.5t18.5 -16.5q0 -4 -10 -12z" />
    <glyph glyph-name="ccaron" unicode="&#x10d;" horiz-adv-x="406" 
d="M26 0zM352 403q35 -27 35 -66q0 -23 -13.5 -41t-41.5 -18q-32 0 -32 26q0 9 8 25t8 29q0 20 -15 31t-38 11q-68 0 -114 -93q-34 -70 -34 -149q0 -52 20.5 -82.5t56.5 -30.5q27 0 59 15t73 40l22 -16q-39 -41 -85.5 -67t-89.5 -26q-67 0 -106 42.5t-39 111.5q0 72 34 138
t89 106.5t116 40.5q52 0 87 -27zM406 650q0 -4 -27 -25q-7 -6 -25 -21t-34 -30l-50 -48q-27 -25 -34 -25q-3 0 -10.5 7t-15.5 18l-36 48q-19 25 -49 55q-16 16 -16 20q0 3 3 5.5t10 2.5q10 0 27 -12l97 -73l120 73q22 12 29 12q11 0 11 -7z" />
    <glyph glyph-name="ccedilla" unicode="&#xe7;" horiz-adv-x="406" 
d="M300 304q0 9 8 25t8 29q0 20 -15 31t-38 11q-68 0 -114 -93q-34 -70 -34 -149q0 -52 20.5 -82.5t56.5 -30.5q27 0 59 15t73 40l22 -16q-34 -35 -73.5 -60t-77.5 -31l-26 -36q-9 -12 -9 -20q0 -6 6.5 -9t21.5 -7q23 -7 34.5 -14t11.5 -24q0 -42 -27.5 -69.5t-76.5 -27.5
q-44 0 -66 16l12 27q10 -16 32 -16q23 0 40.5 17t17.5 40q0 17 -25 36l-20 14q-10 7 -10 14q0 6 9 14l38 43q-61 4 -96.5 46.5t-35.5 107.5q0 72 34 138t89 106.5t116 40.5q52 0 87 -27t35 -66q0 -23 -13.5 -41t-41.5 -18q-32 0 -32 26z" />
    <glyph glyph-name="d" unicode="d" horiz-adv-x="476" 
d="M463 651l-6 -34q-30 -177 -50 -316t-20 -207q0 -27 17 -27t37 13l12 -20q-34 -36 -66.5 -53t-55.5 -17q-17 0 -23.5 13t-6.5 36q0 61 15 147q-44 -101 -94 -148.5t-99 -47.5q-46 0 -73 35.5t-27 94.5q0 71 31 143.5t84 119.5t115 47q31 0 55 -11t38 -28q9 49 20.5 149
t11.5 111q0 24 -35 24q-15 0 -24 -2l-6 25q57 32 119 32q20 0 29 -4.5t9 -17.5q0 -15 -7 -57zM229 95q42 50 73.5 117t31.5 114q0 42 -24.5 58t-52.5 16q-49 0 -83 -44.5t-50 -110.5q-13 -52 -13 -101q0 -46 14 -72.5t34 -26.5q28 0 70 50z" />
    <glyph glyph-name="eth" unicode="&#xf0;" horiz-adv-x="449" 
d="M393 429.5q29 -71.5 29 -160.5q0 -77 -32.5 -141t-89 -101t-125.5 -37q-78 0 -112.5 46.5t-34.5 114.5q0 80 33.5 143.5t85 99.5t103.5 36q38 0 67 -19q-9 33 -25.5 61.5t-35.5 44.5l-111 -61l-11 27l101 55q-58 47 -99 47l22 22q32 0 66 -11t62 -30l100 55l10 -27
l-86 -48q54 -45 83 -116.5zM325 194q9 41 9 82q0 62 -20.5 94t-54.5 32q-33 0 -62 -28t-49 -74q-32 -72 -32 -151q0 -61 20.5 -94t55.5 -33q31 0 59.5 26.5t48.5 70.5q16 34 25 75z" />
    <glyph glyph-name="dcaron" unicode="&#x10f;" horiz-adv-x="476" 
d="M23 0zM463 651l-6 -34q-30 -177 -50 -316t-20 -207q0 -27 17 -27t37 13l12 -20q-34 -36 -66.5 -53t-55.5 -17q-17 0 -23.5 13t-6.5 36q0 61 15 147q-44 -101 -94 -148.5t-99 -47.5q-46 0 -73 35.5t-27 94.5q0 71 31 143.5t84 119.5t115 47q31 0 55 -11t38 -28
q9 49 20.5 149t11.5 111q0 24 -35 24q-15 0 -24 -2l-6 25q57 32 119 32q20 0 29 -4.5t9 -17.5q0 -15 -7 -57zM229 95q42 50 73.5 117t31.5 114q0 42 -24.5 58t-52.5 16q-49 0 -83 -44.5t-50 -110.5q-13 -52 -13 -101q0 -46 14 -72.5t34 -26.5q28 0 70 50zM566 591.5
q13 -15.5 13 -37.5q0 -36 -27 -68t-62 -48l-14 13q18 12 32 29.5t15 30.5v4q0 15 -14 15q-12 0 -19 9t-7 21q0 18 12.5 32.5t35.5 14.5q22 0 35 -15.5z" />
    <glyph glyph-name="dcroat" unicode="&#x111;" horiz-adv-x="476" 
d="M447 558q-26 -162 -43 -283t-17 -181q0 -27 17 -27t37 13l12 -20q-34 -36 -66.5 -53t-55.5 -17q-17 0 -23.5 13t-6.5 36q0 61 15 147q-44 -101 -94 -148.5t-99 -47.5q-46 0 -73 35.5t-27 94.5q0 71 31 143.5t84 119.5t115 47q31 0 55 -11t38 -28q12 68 22 167h-91l6 40
h90l5 53q0 24 -35 24q-15 0 -24 -2l-6 25q57 32 119 32q20 0 29 -4.5t9 -17.5q0 -15 -7 -57q-3 -24 -9 -53h71l-6 -40h-72zM229 95q42 50 73.5 117t31.5 114q0 42 -24.5 58t-52.5 16q-49 0 -83 -44.5t-50 -110.5q-13 -52 -13 -101q0 -46 14 -72.5t34 -26.5q28 0 70 50z" />
    <glyph glyph-name="e" unicode="e" horiz-adv-x="399" 
d="M362 265q-28 -32 -89.5 -54.5t-156.5 -29.5q-1 -9 -1 -27q0 -50 21.5 -79.5t55.5 -29.5q45 0 132 55l22 -16q-40 -41 -86.5 -67t-92.5 -26q-61 0 -101 43t-40 113q0 67 33.5 133t88.5 108t116 42q54 0 90 -28.5t36 -69.5q0 -35 -28 -67zM153 319q-26 -51 -33 -106
q95 7 147 41.5t52 83.5q0 26 -14.5 44t-42.5 18q-66 0 -109 -81z" />
    <glyph glyph-name="eacute" unicode="&#xe9;" horiz-adv-x="399" 
d="M26 0zM362 265q-28 -32 -89.5 -54.5t-156.5 -29.5q-1 -9 -1 -27q0 -50 21.5 -79.5t55.5 -29.5q45 0 132 55l22 -16q-40 -41 -86.5 -67t-92.5 -26q-61 0 -101 43t-40 113q0 67 33.5 133t88.5 108t116 42q54 0 90 -28.5t36 -69.5q0 -35 -28 -67zM153 319q-26 -51 -33 -106
q95 7 147 41.5t52 83.5q0 26 -14.5 44t-42.5 18q-66 0 -109 -81zM388 615l-171 -113q-12 -9 -21 -9q-14 0 -14 7q0 4 9 13l11 11l107 108q12 13 18 17t17 4q17 0 35.5 -9.5t18.5 -16.5q0 -4 -10 -12z" />
    <glyph glyph-name="ecaron" unicode="&#x11b;" horiz-adv-x="399" 
d="M26 0zM362 265q-28 -32 -89.5 -54.5t-156.5 -29.5q-1 -9 -1 -27q0 -50 21.5 -79.5t55.5 -29.5q45 0 132 55l22 -16q-40 -41 -86.5 -67t-92.5 -26q-61 0 -101 43t-40 113q0 67 33.5 133t88.5 108t116 42q54 0 90 -28.5t36 -69.5q0 -35 -28 -67zM153 319q-26 -51 -33 -106
q95 7 147 41.5t52 83.5q0 26 -14.5 44t-42.5 18q-66 0 -109 -81zM418 650q0 -4 -27 -25q-7 -6 -25 -21t-34 -30l-50 -48q-27 -25 -34 -25q-3 0 -10.5 7t-15.5 18l-36 48q-19 25 -49 55q-16 16 -16 20q0 3 3 5.5t10 2.5q10 0 27 -12l97 -73l120 73q22 12 29 12q11 0 11 -7z
" />
    <glyph glyph-name="ecircumflex" unicode="&#xea;" horiz-adv-x="399" 
d="M26 0zM362 265q-28 -32 -89.5 -54.5t-156.5 -29.5q-1 -9 -1 -27q0 -50 21.5 -79.5t55.5 -29.5q45 0 132 55l22 -16q-40 -41 -86.5 -67t-92.5 -26q-61 0 -101 43t-40 113q0 67 33.5 133t88.5 108t116 42q54 0 90 -28.5t36 -69.5q0 -35 -28 -67zM153 319q-26 -51 -33 -106
q95 7 147 41.5t52 83.5q0 26 -14.5 44t-42.5 18q-66 0 -109 -81zM99 500q0 4 27 25q7 6 25 21t34 30l50 48q27 25 34 25q3 0 10.5 -7t15.5 -18l36 -48q19 -25 49 -55q16 -16 16 -20q0 -3 -3 -5.5t-10 -2.5q-10 0 -27 12l-97 73l-120 -73q-22 -12 -29 -12q-11 0 -11 7z" />
    <glyph glyph-name="edieresis" unicode="&#xeb;" horiz-adv-x="399" 
d="M26 0zM362 265q-28 -32 -89.5 -54.5t-156.5 -29.5q-1 -9 -1 -27q0 -50 21.5 -79.5t55.5 -29.5q45 0 132 55l22 -16q-40 -41 -86.5 -67t-92.5 -26q-61 0 -101 43t-40 113q0 67 33.5 133t88.5 108t116 42q54 0 90 -28.5t36 -69.5q0 -35 -28 -67zM153 319q-26 -51 -33 -106
q95 7 147 41.5t52 83.5q0 26 -14.5 44t-42.5 18q-66 0 -109 -81zM215.5 632q12.5 -11 12.5 -30q0 -25 -17 -39.5t-44 -14.5q-21 0 -34.5 11t-13.5 30q0 24 18 39t44 15q22 0 34.5 -11zM389.5 632q12.5 -11 12.5 -30q0 -25 -17 -39.5t-44 -14.5q-21 0 -34.5 11t-13.5 30
q0 24 18 39t44 15q22 0 34.5 -11z" />
    <glyph glyph-name="edotaccent" unicode="&#x117;" horiz-adv-x="399" 
d="M26 0zM362 265q-28 -32 -89.5 -54.5t-156.5 -29.5q-1 -9 -1 -27q0 -50 21.5 -79.5t55.5 -29.5q45 0 132 55l22 -16q-40 -41 -86.5 -67t-92.5 -26q-61 0 -101 43t-40 113q0 67 33.5 133t88.5 108t116 42q54 0 90 -28.5t36 -69.5q0 -35 -28 -67zM153 319q-26 -51 -33 -106
q95 7 147 41.5t52 83.5q0 26 -14.5 44t-42.5 18q-66 0 -109 -81zM301.5 632q12.5 -11 12.5 -30q0 -25 -17 -39.5t-44 -14.5q-21 0 -34.5 11t-13.5 30q0 24 18 39t44 15q22 0 34.5 -11z" />
    <glyph glyph-name="egrave" unicode="&#xe8;" horiz-adv-x="399" 
d="M26 0zM362 265q-28 -32 -89.5 -54.5t-156.5 -29.5q-1 -9 -1 -27q0 -50 21.5 -79.5t55.5 -29.5q45 0 132 55l22 -16q-40 -41 -86.5 -67t-92.5 -26q-61 0 -101 43t-40 113q0 67 33.5 133t88.5 108t116 42q54 0 90 -28.5t36 -69.5q0 -35 -28 -67zM153 319q-26 -51 -33 -106
q95 7 147 41.5t52 83.5q0 26 -14.5 44t-42.5 18q-66 0 -109 -81zM206.5 650q4.5 -3 9 -9.5t6.5 -8.5l82 -114q9 -14 9 -17q0 -8 -17 -8q-9 0 -18 9l-139 113q-6 6 -6 11q0 7 21 17t39 10q9 0 13.5 -3z" />
    <glyph glyph-name="emacron" unicode="&#x113;" horiz-adv-x="399" 
d="M26 0zM362 265q-28 -32 -89.5 -54.5t-156.5 -29.5q-1 -9 -1 -27q0 -50 21.5 -79.5t55.5 -29.5q45 0 132 55l22 -16q-40 -41 -86.5 -67t-92.5 -26q-61 0 -101 43t-40 113q0 67 33.5 133t88.5 108t116 42q54 0 90 -28.5t36 -69.5q0 -35 -28 -67zM153 319q-26 -51 -33 -106
q95 7 147 41.5t52 83.5q0 26 -14.5 44t-42.5 18q-66 0 -109 -81zM384 607l-6 -40h-242l6 40h242z" />
    <glyph glyph-name="eogonek" unicode="&#x119;" horiz-adv-x="399" 
d="M362 265q-28 -32 -89.5 -54.5t-156.5 -29.5q-1 -9 -1 -27q0 -50 21.5 -79.5t55.5 -29.5q45 0 132 55l22 -16q-47 -49 -97 -73q-24 -13 -38.5 -35t-14.5 -47q0 -20 11 -32.5t34 -12.5q30 0 69 31l12 -14q-27 -29 -58.5 -44.5t-62.5 -15.5q-26 0 -44.5 16.5t-18.5 45.5
q0 24 13 47.5t38 42.5q-14 -2 -22 -2q-61 0 -101 43t-40 113q0 67 33.5 133t88.5 108t116 42q54 0 90 -28.5t36 -69.5q0 -35 -28 -67zM153 319q-26 -51 -33 -106q95 7 147 41.5t52 83.5q0 26 -14.5 44t-42.5 18q-66 0 -109 -81z" />
    <glyph glyph-name="f" unicode="f" horiz-adv-x="284" 
d="M402.5 704q30.5 -26 30.5 -65q0 -22 -11.5 -36.5t-35.5 -14.5q-36 0 -36 29q0 7 4 21q5 12 5 25q0 17 -9 28.5t-31 11.5q-40 0 -67 -54.5t-43 -194.5l-4 -34h105v-15l-29 -16h-79l-32 -287q-39 -347 -207 -347q-41 0 -70 18.5t-29 48.5q0 18 11.5 31t33.5 13
q15 0 26 -6.5t11 -21.5q0 -6 -3 -16t-3 -15q0 -12 8.5 -18.5t22.5 -6.5q31 0 51 31t33 93t25 166l35 317h-86l27 31h63l2 20q14 128 66.5 209t136.5 81q48 0 78.5 -26z" />
    <glyph glyph-name="g" unicode="g" horiz-adv-x="428" 
d="M461.5 493.5q9.5 -11.5 9.5 -26.5t-11.5 -29t-27.5 -14q-12 0 -17.5 3.5t-10.5 11.5t-12 8q-9 0 -29 -9.5t-35 -23.5q51 -29 51 -95q0 -50 -28.5 -93.5t-78 -69.5t-107.5 -26q-30 0 -54 8q-20 -24 -20 -37q0 -17 20 -27t63 -22q9 -3 21 -6.5t26 -8.5q55 -19 84 -32.5
t50.5 -39.5t21.5 -67q0 -69 -72 -106t-179 -37q-162 0 -162 105q0 43 34 79t89 64q-30 13 -46 29.5t-16 38.5q0 21 14.5 37.5t41.5 34.5l7 5q-47 28 -47 93q0 50 28 93.5t77 69.5t107 26q28 0 54 -7q30 33 67 57.5t56 24.5q22 0 31.5 -11.5zM289 279.5q4 29.5 4 54.5
q0 33 -14.5 51t-45.5 18q-32 0 -54 -17.5t-36 -55.5q-8 -20 -12 -49.5t-4 -54.5q0 -33 14.5 -51t45.5 -18q32 0 54 17.5t36 55.5q8 20 12 49.5zM275 -67q-33 21 -94 40l-61 18q-41 -16 -72.5 -50.5t-31.5 -78.5q0 -81 113 -81q75 0 127 26t52 68q0 37 -33 58z" />
    <glyph glyph-name="gbreve" unicode="&#x11f;" horiz-adv-x="428" 
d="M0 0zM461.5 493.5q9.5 -11.5 9.5 -26.5t-11.5 -29t-27.5 -14q-12 0 -17.5 3.5t-10.5 11.5t-12 8q-9 0 -29 -9.5t-35 -23.5q51 -29 51 -95q0 -50 -28.5 -93.5t-78 -69.5t-107.5 -26q-30 0 -54 8q-20 -24 -20 -37q0 -17 20 -27t63 -22q9 -3 21 -6.5t26 -8.5
q55 -19 84 -32.5t50.5 -39.5t21.5 -67q0 -69 -72 -106t-179 -37q-162 0 -162 105q0 43 34 79t89 64q-30 13 -46 29.5t-16 38.5q0 21 14.5 37.5t41.5 34.5l7 5q-47 28 -47 93q0 50 28 93.5t77 69.5t107 26q28 0 54 -7q30 33 67 57.5t56 24.5q22 0 31.5 -11.5zM289 279.5
q4 29.5 4 54.5q0 33 -14.5 51t-45.5 18q-32 0 -54 -17.5t-36 -55.5q-8 -20 -12 -49.5t-4 -54.5q0 -33 14.5 -51t45.5 -18q32 0 54 17.5t36 55.5q8 20 12 49.5zM275 -67q-33 21 -94 40l-61 18q-41 -16 -72.5 -50.5t-31.5 -78.5q0 -81 113 -81q75 0 127 26t52 68q0 37 -33 58z
M334 551.5q-37 -33.5 -92 -33.5t-82.5 33.5t-25.5 90.5h44q3 -32 19 -53t52 -21q35 0 58.5 21.5t34.5 52.5h43q-14 -57 -51 -90.5z" />
    <glyph glyph-name="gcommaaccent" unicode="&#x123;" horiz-adv-x="428" 
d="M221 501.5q-14 15.5 -14 37.5q0 40 30 74t69 52l14 -13q-21 -12 -38.5 -29.5t-18.5 -30.5q-4 -29 24 -29q12 0 19 -9t7 -21q0 -18 -14.5 -32.5t-38.5 -14.5q-25 0 -39 15.5zM461.5 493.5q9.5 -11.5 9.5 -26.5t-11.5 -29t-27.5 -14q-12 0 -17.5 3.5t-10.5 11.5t-12 8
q-9 0 -29 -9.5t-35 -23.5q51 -29 51 -95q0 -50 -28.5 -93.5t-78 -69.5t-107.5 -26q-30 0 -54 8q-20 -24 -20 -37q0 -17 20 -27t63 -22q9 -3 21 -6.5t26 -8.5q55 -19 84 -32.5t50.5 -39.5t21.5 -67q0 -69 -72 -106t-179 -37q-162 0 -162 105q0 43 34 79t89 64
q-30 13 -46 29.5t-16 38.5q0 21 14.5 37.5t41.5 34.5l7 5q-47 28 -47 93q0 50 28 93.5t77 69.5t107 26q28 0 54 -7q30 33 67 57.5t56 24.5q22 0 31.5 -11.5zM289 279.5q4 29.5 4 54.5q0 33 -14.5 51t-45.5 18q-32 0 -54 -17.5t-36 -55.5q-8 -20 -12 -49.5t-4 -54.5
q0 -33 14.5 -51t45.5 -18q32 0 54 17.5t36 55.5q8 20 12 49.5zM275 -67q-33 21 -94 40l-61 18q-41 -16 -72.5 -50.5t-31.5 -78.5q0 -81 113 -81q75 0 127 26t52 68q0 37 -33 58z" />
    <glyph glyph-name="h" unicode="h" horiz-adv-x="499" 
d="M466 60q-31 -32 -63.5 -51t-54.5 -19q-14 0 -23 12t-9 33q0 17 7 54t15 77q26 118 26 158q0 23 -11.5 37t-31.5 14q-30 0 -67.5 -40.5t-69 -102t-46.5 -120.5l-14 -112h-79q19 119 53.5 362t34.5 289q0 12 -9 18t-24 6t-24 -2l-6 25q33 16 65 24t53 8q20 0 29 -4.5
t9 -17.5q0 -11 -10 -68q-3 -20 -6 -38.5t-6 -35.5l-17 -102l-35 -242q38 87 89.5 147.5t115.5 60.5q41 0 65 -25t24 -65q0 -22 -6.5 -54.5t-13.5 -63t-9 -39.5q-19 -78 -19 -93q0 -8 4 -15.5t15 -7.5q17 0 37 13z" />
    <glyph glyph-name="i" unicode="i" horiz-adv-x="260" 
d="M212.5 632q12.5 -11 12.5 -30q0 -25 -17 -39.5t-44 -14.5q-21 0 -34.5 11t-13.5 30q0 24 18 39t44 15q22 0 34.5 -11zM152.5 8.5q-28.5 -18.5 -50.5 -18.5q-18 0 -28 11.5t-10 34.5q0 17 6 57.5t8 53.5l12 76q13 87 13 124q0 14 -9.5 20t-21.5 6q-8 0 -16 -2l-5 29
q63 26 114 26q15 0 23 -4.5t8 -17.5q0 -8 -12 -70q-19 -99 -20 -104q-16 -91 -16 -136q0 -27 17 -27q16 0 36 13l12 -20q-32 -33 -60.5 -51.5z" />
    <glyph glyph-name="dotlessi" unicode="&#x131;" horiz-adv-x="256" 
d="M152.5 8.5q-28.5 -18.5 -50.5 -18.5q-18 0 -28 11.5t-10 34.5q0 17 6 57.5t8 53.5l12 76q13 87 13 124q0 14 -9.5 20t-21.5 6q-8 0 -16 -2l-5 29q63 26 114 26q15 0 23 -4.5t8 -17.5q0 -8 -12 -70q-19 -99 -20 -104q-16 -91 -16 -136q0 -27 17 -27q16 0 36 13l12 -20
q-32 -33 -60.5 -51.5z" />
    <glyph glyph-name="iacute" unicode="&#xed;" horiz-adv-x="256" 
d="M51 0zM152.5 8.5q-28.5 -18.5 -50.5 -18.5q-18 0 -28 11.5t-10 34.5q0 17 6 57.5t8 53.5l12 76q13 87 13 124q0 14 -9.5 20t-21.5 6q-8 0 -16 -2l-5 29q63 26 114 26q15 0 23 -4.5t8 -17.5q0 -8 -12 -70q-19 -99 -20 -104q-16 -91 -16 -136q0 -27 17 -27q16 0 36 13
l12 -20q-32 -33 -60.5 -51.5zM305 615l-171 -113q-12 -9 -21 -9q-14 0 -14 7q0 4 9 13l11 11l107 108q12 13 18 17t17 4q17 0 35.5 -9.5t18.5 -16.5q0 -4 -10 -12z" />
    <glyph glyph-name="icircumflex" unicode="&#xee;" horiz-adv-x="256" 
d="M35 0zM152.5 8.5q-28.5 -18.5 -50.5 -18.5q-18 0 -28 11.5t-10 34.5q0 17 6 57.5t8 53.5l12 76q13 87 13 124q0 14 -9.5 20t-21.5 6q-8 0 -16 -2l-5 29q63 26 114 26q15 0 23 -4.5t8 -17.5q0 -8 -12 -70q-19 -99 -20 -104q-16 -91 -16 -136q0 -27 17 -27q16 0 36 13
l12 -20q-32 -33 -60.5 -51.5zM201 644l79 -123q13 -19 13 -21q0 -3 -3.5 -5t-7.5 -2q-14 0 -27 13l-79 77l-101 -77q-17 -13 -31 -13q-3 0 -6 2t-3 4t18 22l116 123q5 6 10.5 10.5t7.5 4.5q6 0 14 -15z" />
    <glyph glyph-name="idieresis" unicode="&#xef;" horiz-adv-x="256" 
d="M36 0zM152.5 8.5q-28.5 -18.5 -50.5 -18.5q-18 0 -28 11.5t-10 34.5q0 17 6 57.5t8 53.5l12 76q13 87 13 124q0 14 -9.5 20t-21.5 6q-8 0 -16 -2l-5 29q63 26 114 26q15 0 23 -4.5t8 -17.5q0 -8 -12 -70q-19 -99 -20 -104q-16 -91 -16 -136q0 -27 17 -27q16 0 36 13
l12 -20q-32 -33 -60.5 -51.5zM132.5 632q12.5 -11 12.5 -30q0 -25 -17 -39.5t-44 -14.5q-21 0 -34.5 11t-13.5 30q0 24 18 39t44 15q22 0 34.5 -11zM306.5 632q12.5 -11 12.5 -30q0 -25 -17 -39.5t-44 -14.5q-21 0 -34.5 11t-13.5 30q0 24 18 39t44 15q22 0 34.5 -11z" />
    <glyph glyph-name="i.loclTRK" horiz-adv-x="256" 
d="M51 0zM152.5 8.5q-28.5 -18.5 -50.5 -18.5q-18 0 -28 11.5t-10 34.5q0 17 6 57.5t8 53.5l12 76q13 87 13 124q0 14 -9.5 20t-21.5 6q-8 0 -16 -2l-5 29q63 26 114 26q15 0 23 -4.5t8 -17.5q0 -8 -12 -70q-19 -99 -20 -104q-16 -91 -16 -136q0 -27 17 -27q16 0 36 13
l12 -20q-32 -33 -60.5 -51.5zM218.5 632q12.5 -11 12.5 -30q0 -25 -17 -39.5t-44 -14.5q-21 0 -34.5 11t-13.5 30q0 24 18 39t44 15q22 0 34.5 -11z" />
    <glyph glyph-name="igrave" unicode="&#xec;" horiz-adv-x="256" 
d="M50 0zM152.5 8.5q-28.5 -18.5 -50.5 -18.5q-18 0 -28 11.5t-10 34.5q0 17 6 57.5t8 53.5l12 76q13 87 13 124q0 14 -9.5 20t-21.5 6q-8 0 -16 -2l-5 29q63 26 114 26q15 0 23 -4.5t8 -17.5q0 -8 -12 -70q-19 -99 -20 -104q-16 -91 -16 -136q0 -27 17 -27q16 0 36 13
l12 -20q-32 -33 -60.5 -51.5zM123.5 650q4.5 -3 9 -9.5t6.5 -8.5l82 -114q9 -14 9 -17q0 -8 -17 -8q-9 0 -18 9l-139 113q-6 6 -6 11q0 7 21 17t39 10q9 0 13.5 -3z" />
    <glyph glyph-name="ij" unicode="&#x133;" horiz-adv-x="502" 
d="M51 0zM212.5 632q12.5 -11 12.5 -30q0 -25 -17 -39.5t-44 -14.5q-21 0 -34.5 11t-13.5 30q0 24 18 39t44 15q22 0 34.5 -11zM152.5 8.5q-28.5 -18.5 -50.5 -18.5q-18 0 -28 11.5t-10 34.5q0 17 6 57.5t8 53.5l12 76q13 87 13 124q0 14 -9.5 20t-21.5 6q-8 0 -16 -2l-5 29
q63 26 114 26q15 0 23 -4.5t8 -17.5q0 -8 -12 -70q-19 -99 -20 -104q-16 -91 -16 -136q0 -27 17 -27q16 0 36 13l12 -20q-32 -33 -60.5 -51.5zM473.5 632q12.5 -11 12.5 -30q0 -25 -17 -39.5t-44 -14.5q-21 0 -34.5 11t-13.5 30q0 24 18 39t44 15q22 0 34.5 -11zM445 421.5
q8 -4.5 8 -18.5q-8 -48 -30 -192.5t-29 -199.5q-17 -126 -57 -191t-114 -65q-41 0 -70 18.5t-29 48.5q0 18 11.5 31t33.5 13q15 0 26 -6.5t11 -21.5q0 -6 -3 -16t-3 -15q0 -12 8.5 -18.5t21.5 -6.5q27 0 43 30.5t26.5 86.5t26.5 173l21 153q13 96 13 117q0 31 -30 31
q-9 0 -17 -2l-5 29q63 26 114 26q15 0 23 -4.5z" />
    <glyph glyph-name="imacron" unicode="&#x12b;" horiz-adv-x="256" 
d="M51 0zM152.5 8.5q-28.5 -18.5 -50.5 -18.5q-18 0 -28 11.5t-10 34.5q0 17 6 57.5t8 53.5l12 76q13 87 13 124q0 14 -9.5 20t-21.5 6q-8 0 -16 -2l-5 29q63 26 114 26q15 0 23 -4.5t8 -17.5q0 -8 -12 -70q-19 -99 -20 -104q-16 -91 -16 -136q0 -27 17 -27q16 0 36 13
l12 -20q-32 -33 -60.5 -51.5zM301 607l-6 -40h-242l6 40h242z" />
    <glyph glyph-name="iogonek" unicode="&#x12f;" horiz-adv-x="256" 
d="M135.5 559q-13.5 11 -13.5 30q0 24 18 39t44 15q22 0 34.5 -11t12.5 -30q0 -25 -17 -39.5t-44 -14.5q-21 0 -34.5 11zM215 -86l12 -14q-27 -29 -58.5 -44.5t-62.5 -15.5q-26 0 -44.5 16.5t-18.5 45.5q0 24 13 47t37 42q-29 5 -29 45q0 17 6 57.5t8 53.5l12 76
q13 87 13 124q0 14 -9.5 20t-21.5 6q-8 0 -16 -2l-5 29q63 26 114 26q15 0 23 -4.5t8 -17.5q0 -8 -12 -70q-19 -99 -20 -104q-16 -91 -16 -136q0 -27 17 -27q16 0 36 13l12 -20q-41 -42 -74 -59q-18 -14 -28 -32.5t-10 -40.5q0 -20 11 -32.5t34 -12.5q30 0 69 31z" />
    <glyph glyph-name="j" unicode="j" horiz-adv-x="242" 
d="M213.5 632q12.5 -11 12.5 -30q0 -25 -17 -39.5t-44 -14.5q-21 0 -34.5 11t-13.5 30q0 24 18 39t44 15q22 0 34.5 -11zM185 421.5q8 -4.5 8 -18.5q-8 -48 -30 -192.5t-29 -199.5q-17 -126 -57 -191t-114 -65q-41 0 -70 18.5t-29 48.5q0 18 11.5 31t33.5 13q15 0 26 -6.5
t11 -21.5q0 -6 -3 -16t-3 -15q0 -12 8.5 -18.5t21.5 -6.5q27 0 43 30.5t26.5 86.5t26.5 173l21 153q13 96 13 117q0 31 -30 31q-9 0 -17 -2l-5 29q63 26 114 26q15 0 23 -4.5z" />
    <glyph glyph-name="uni0237" unicode="&#x237;" horiz-adv-x="242" 
d="M185 421.5q8 -4.5 8 -18.5q-8 -48 -30 -192.5t-29 -199.5q-17 -126 -57 -191t-114 -65q-41 0 -70 18.5t-29 48.5q0 18 11.5 31t33.5 13q15 0 26 -6.5t11 -21.5q0 -6 -3 -16t-3 -15q0 -12 8.5 -18.5t21.5 -6.5q27 0 43 30.5t26.5 86.5t26.5 173l21 153q13 96 13 117
q0 31 -30 31q-9 0 -17 -2l-5 29q63 26 114 26q15 0 23 -4.5z" />
    <glyph glyph-name="k" unicode="k" horiz-adv-x="481" 
d="M448 60q-29 -33 -57 -51.5t-49 -18.5q-23 0 -35.5 12.5t-20.5 37.5l-57 166q62 21 93 56t31 71q0 20 -9.5 31t-22.5 11q-30 0 -67.5 -40.5t-69 -102t-46.5 -120.5l-14 -112h-79q19 119 53.5 362t34.5 289q0 12 -9 18t-24 6t-24 -2l-6 25q33 16 65 24t53 8q20 0 29 -4.5
t9 -17.5q0 -11 -10 -68q-3 -20 -6 -38.5t-6 -35.5l-17 -102l-35 -242q38 87 89.5 147.5t115.5 60.5q36 0 58 -21t22 -52q0 -37 -34.5 -74t-95.5 -64l50 -134q8 -25 25 -25q8 0 22.5 4.5t31.5 15.5z" />
    <glyph glyph-name="kcommaaccent" unicode="&#x137;" horiz-adv-x="481" 
d="M45 0zM448 60q-29 -33 -57 -51.5t-49 -18.5q-23 0 -35.5 12.5t-20.5 37.5l-57 166q62 21 93 56t31 71q0 20 -9.5 31t-22.5 11q-30 0 -67.5 -40.5t-69 -102t-46.5 -120.5l-14 -112h-79q19 119 53.5 362t34.5 289q0 12 -9 18t-24 6t-24 -2l-6 25q33 16 65 24t53 8
q20 0 29 -4.5t9 -17.5q0 -11 -10 -68q-3 -20 -6 -38.5t-6 -35.5l-17 -102l-35 -242q38 87 89.5 147.5t115.5 60.5q36 0 58 -21t22 -52q0 -37 -34.5 -74t-95.5 -64l50 -134q8 -25 25 -25q8 0 22.5 4.5t31.5 15.5zM262 -49.5q14 -15.5 14 -37.5q0 -40 -30 -74t-69 -52l-14 13
q21 12 38.5 29.5t18.5 30.5q4 29 -24 29q-12 0 -19 9t-7 21q0 18 14.5 32.5t38.5 14.5q25 0 39 -15.5z" />
    <glyph glyph-name="l" unicode="l" horiz-adv-x="236" 
d="M114 669q-9 6 -24 6t-24 -2l-6 25q67 32 123 32q16 0 24.5 -4.5t8.5 -17.5q0 -15 -13 -87l-14 -82q-22 -136 -39.5 -263t-19.5 -182q0 -12 3.5 -19.5t15.5 -7.5q7 0 18.5 3t22.5 10l12 -20q-31 -33 -63.5 -51.5t-56.5 -18.5q-18 0 -28.5 11.5t-10.5 34.5q0 27 33 243
l13 91q34 229 34 281q0 12 -9 18z" />
    <glyph glyph-name="lacute" unicode="&#x13a;" horiz-adv-x="236" 
d="M324 834l-170 -72q-10 -4 -18 -4q-13 0 -13 9q2 7 15 16l125 83q17 12 28 12q13 0 29 -12.5t15 -20.5q-1 -6 -11 -11zM114 669q-9 6 -24 6t-24 -2l-6 25q67 32 123 32q16 0 24.5 -4.5t8.5 -17.5q0 -15 -13 -87l-14 -82q-22 -136 -39.5 -263t-19.5 -182q0 -12 3.5 -19.5
t15.5 -7.5q7 0 18.5 3t22.5 10l12 -20q-31 -33 -63.5 -51.5t-56.5 -18.5q-18 0 -28.5 11.5t-10.5 34.5q0 27 33 243l13 91q34 229 34 281q0 12 -9 18z" />
    <glyph glyph-name="lcaron" unicode="&#x13e;" horiz-adv-x="236" 
d="M43 0zM114 669q-9 6 -24 6t-24 -2l-6 25q67 32 123 32q16 0 24.5 -4.5t8.5 -17.5q0 -15 -13 -87l-14 -82q-22 -136 -39.5 -263t-19.5 -182q0 -12 3.5 -19.5t15.5 -7.5q7 0 18.5 3t22.5 10l12 -20q-31 -33 -63.5 -51.5t-56.5 -18.5q-18 0 -28.5 11.5t-10.5 34.5
q0 27 33 243l13 91q34 229 34 281q0 12 -9 18zM313 591.5q13 -15.5 13 -37.5q0 -36 -27 -68t-62 -48l-14 13q18 12 32 29.5t15 30.5v4q0 15 -14 15q-12 0 -19 9t-7 21q0 18 12.5 32.5t35.5 14.5q22 0 35 -15.5z" />
    <glyph glyph-name="lcommaaccent" unicode="&#x13c;" horiz-adv-x="236" 
d="M28 0zM114 669q-9 6 -24 6t-24 -2l-6 25q67 32 123 32q16 0 24.5 -4.5t8.5 -17.5q0 -15 -13 -87l-14 -82q-22 -136 -39.5 -263t-19.5 -182q0 -12 3.5 -19.5t15.5 -7.5q7 0 18.5 3t22.5 10l12 -20q-31 -33 -63.5 -51.5t-56.5 -18.5q-18 0 -28.5 11.5t-10.5 34.5
q0 27 33 243l13 91q34 229 34 281q0 12 -9 18zM127 -49.5q14 -15.5 14 -37.5q0 -40 -30 -74t-69 -52l-14 13q21 12 38.5 29.5t18.5 30.5q4 29 -24 29q-12 0 -19 9t-7 21q0 18 14.5 32.5t38.5 14.5q25 0 39 -15.5z" />
    <glyph glyph-name="ldot" unicode="&#x140;" horiz-adv-x="236" 
d="M114 669q-9 6 -24 6t-24 -2l-6 25q67 32 123 32q16 0 24.5 -4.5t8.5 -17.5q0 -15 -13 -87l-14 -82q-22 -136 -39.5 -263t-19.5 -182q0 -12 3.5 -19.5t15.5 -7.5q7 0 18.5 3t22.5 10l12 -20q-31 -33 -63.5 -51.5t-56.5 -18.5q-18 0 -28.5 11.5t-10.5 34.5q0 27 33 243
l13 91q34 229 34 281q0 12 -9 18zM204 371.5q18 17.5 43 17.5q20 0 32.5 -12.5t12.5 -32.5q0 -26 -17.5 -43t-43.5 -17q-19 0 -32 13t-13 32q0 25 18 42.5z" />
    <glyph glyph-name="lslash" unicode="&#x142;" horiz-adv-x="249" 
d="M169 409q-37 -242 -39 -315q0 -12 3.5 -19.5t15.5 -7.5q7 0 18.5 3t22.5 10l12 -20q-31 -33 -63.5 -51.5t-56.5 -18.5q-18 0 -28.5 11.5t-10.5 34.5q0 21 32 239q3 25 11 77l-69 -53l7 47l69 53q30 208 30 252q0 12 -9 18t-24 6t-24 -2l-6 25q67 32 123 32
q16 0 24.5 -4.5t8.5 -17.5q0 -15 -13 -87l-14 -82l-13 -83l73 57l-7 -48z" />
    <glyph glyph-name="m" unicode="m" horiz-adv-x="761" 
d="M728 60q-31 -32 -63.5 -51t-54.5 -19q-16 0 -24 12t-8 33q0 17 7 54t15 77q26 118 26 158q0 23 -11.5 37t-31.5 14q-30 0 -66 -40.5t-66.5 -102t-44.5 -119.5l-14 -113h-78q21 125 33.5 206.5t12.5 121.5q0 22 -9.5 34.5t-26.5 12.5q-29 0 -64.5 -37.5t-67 -95.5
t-48.5 -115v-2l-15 -125h-78q1 7 5 28q20 120 31 197.5t11 115.5q0 32 -29 32q-8 0 -16 -2l-5 29q29 12 53.5 19t49.5 7q37 0 37 -19q0 -11 -15 -92q-3 -23 -7 -44t-7 -41q37 85 87.5 142.5t113.5 57.5q35 0 58 -25t23 -65q0 -30 -12 -90q85 180 190 180q41 0 65 -25t24 -65
q0 -22 -6.5 -54.5t-13.5 -63t-9 -39.5q-19 -78 -19 -93q0 -8 4 -15.5t15 -7.5q17 0 37 13z" />
    <glyph glyph-name="n" unicode="n" horiz-adv-x="504" 
d="M471 60q-31 -32 -63.5 -51t-54.5 -19q-14 0 -23 12t-9 33q0 17 7 54t15 77q26 118 26 158q0 23 -11.5 37t-31.5 14q-30 0 -67 -40.5t-69 -101.5t-47 -119l-14 -114h-78q1 7 5 28q20 120 31 197.5t11 115.5q0 32 -29 32q-8 0 -16 -2l-5 29q29 12 53.5 19t49.5 7
q37 0 37 -19q0 -12 -15 -98l-15 -87q36 87 88 147.5t116 60.5q41 0 65 -25t24 -65q0 -22 -6.5 -54.5t-13.5 -63t-9 -39.5q-19 -78 -19 -93q0 -8 4 -15.5t15 -7.5q17 0 37 13z" />
    <glyph glyph-name="nacute" unicode="&#x144;" horiz-adv-x="504" 
d="M48 0zM471 60q-31 -32 -63.5 -51t-54.5 -19q-14 0 -23 12t-9 33q0 17 7 54t15 77q26 118 26 158q0 23 -11.5 37t-31.5 14q-30 0 -67 -40.5t-69 -101.5t-47 -119l-14 -114h-78q1 7 5 28q20 120 31 197.5t11 115.5q0 32 -29 32q-8 0 -16 -2l-5 29q29 12 53.5 19t49.5 7
q37 0 37 -19q0 -12 -15 -98l-15 -87q36 87 88 147.5t116 60.5q41 0 65 -25t24 -65q0 -22 -6.5 -54.5t-13.5 -63t-9 -39.5q-19 -78 -19 -93q0 -8 4 -15.5t15 -7.5q17 0 37 13zM428 615l-171 -113q-12 -9 -21 -9q-14 0 -14 7q0 4 9 13l11 11l107 108q12 13 18 17t17 4
q17 0 35.5 -9.5t18.5 -16.5q0 -4 -10 -12z" />
    <glyph glyph-name="ncaron" unicode="&#x148;" horiz-adv-x="504" 
d="M48 0zM471 60q-31 -32 -63.5 -51t-54.5 -19q-14 0 -23 12t-9 33q0 17 7 54t15 77q26 118 26 158q0 23 -11.5 37t-31.5 14q-30 0 -67 -40.5t-69 -101.5t-47 -119l-14 -114h-78q1 7 5 28q20 120 31 197.5t11 115.5q0 32 -29 32q-8 0 -16 -2l-5 29q29 12 53.5 19t49.5 7
q37 0 37 -19q0 -12 -15 -98l-15 -87q36 87 88 147.5t116 60.5q41 0 65 -25t24 -65q0 -22 -6.5 -54.5t-13.5 -63t-9 -39.5q-19 -78 -19 -93q0 -8 4 -15.5t15 -7.5q17 0 37 13zM458 650q0 -4 -27 -25q-7 -6 -25 -21t-34 -30l-50 -48q-27 -25 -34 -25q-3 0 -10.5 7t-15.5 18
l-36 48q-19 25 -49 55q-16 16 -16 20q0 3 3 5.5t10 2.5q10 0 27 -12l97 -73l120 73q22 12 29 12q11 0 11 -7z" />
    <glyph glyph-name="ncommaaccent" unicode="&#x146;" horiz-adv-x="504" 
d="M48 0zM471 60q-31 -32 -63.5 -51t-54.5 -19q-14 0 -23 12t-9 33q0 17 7 54t15 77q26 118 26 158q0 23 -11.5 37t-31.5 14q-30 0 -67 -40.5t-69 -101.5t-47 -119l-14 -114h-78q1 7 5 28q20 120 31 197.5t11 115.5q0 32 -29 32q-8 0 -16 -2l-5 29q29 12 53.5 19t49.5 7
q37 0 37 -19q0 -12 -15 -98l-15 -87q36 87 88 147.5t116 60.5q41 0 65 -25t24 -65q0 -22 -6.5 -54.5t-13.5 -63t-9 -39.5q-19 -78 -19 -93q0 -8 4 -15.5t15 -7.5q17 0 37 13zM254 -49.5q14 -15.5 14 -37.5q0 -40 -30 -74t-69 -52l-14 13q21 12 38.5 29.5t18.5 30.5
q4 29 -24 29q-12 0 -19 9t-7 21q0 18 14.5 32.5t38.5 14.5q25 0 39 -15.5z" />
    <glyph glyph-name="ntilde" unicode="&#xf1;" horiz-adv-x="504" 
d="M48 0zM471 60q-31 -32 -63.5 -51t-54.5 -19q-14 0 -23 12t-9 33q0 17 7 54t15 77q26 118 26 158q0 23 -11.5 37t-31.5 14q-30 0 -67 -40.5t-69 -101.5t-47 -119l-14 -114h-78q1 7 5 28q20 120 31 197.5t11 115.5q0 32 -29 32q-8 0 -16 -2l-5 29q29 12 53.5 19t49.5 7
q37 0 37 -19q0 -12 -15 -98l-15 -87q36 87 88 147.5t116 60.5q41 0 65 -25t24 -65q0 -22 -6.5 -54.5t-13.5 -63t-9 -39.5q-19 -78 -19 -93q0 -8 4 -15.5t15 -7.5q17 0 37 13zM311 599q53 -21 75 -21q14 0 25.5 12t13.5 30h20q-5 -37 -27.5 -64t-49.5 -27q-15 0 -34 5.5
t-49 16.5q-53 21 -75 21q-14 0 -25 -12t-14 -30h-20q5 37 27.5 64t49.5 27q23 0 83 -22z" />
    <glyph glyph-name="o" unicode="o" horiz-adv-x="451" 
d="M386.5 384.5q36.5 -45.5 36.5 -120.5q0 -71 -30.5 -134t-86 -101.5t-127.5 -38.5q-78 0 -114.5 45.5t-36.5 120.5q0 71 30.5 134t86 101.5t127.5 38.5q78 0 114.5 -45.5zM188.5 366q-30.5 -32 -48.5 -81q-24 -66 -24 -137q0 -62 20 -94t57 -32q41 0 73.5 36.5t50.5 93.5
q18 59 18 120q0 62 -20 94t-57 32q-39 0 -69.5 -32z" />
    <glyph glyph-name="oacute" unicode="&#xf3;" horiz-adv-x="451" 
d="M28 0zM386.5 384.5q36.5 -45.5 36.5 -120.5q0 -71 -30.5 -134t-86 -101.5t-127.5 -38.5q-78 0 -114.5 45.5t-36.5 120.5q0 71 30.5 134t86 101.5t127.5 38.5q78 0 114.5 -45.5zM188.5 366q-30.5 -32 -48.5 -81q-24 -66 -24 -137q0 -62 20 -94t57 -32q41 0 73.5 36.5
t50.5 93.5q18 59 18 120q0 62 -20 94t-57 32q-39 0 -69.5 -32zM423 615l-171 -113q-12 -9 -21 -9q-14 0 -14 7q0 4 9 13l11 11l107 108q12 13 18 17t17 4q17 0 35.5 -9.5t18.5 -16.5q0 -4 -10 -12z" />
    <glyph glyph-name="ocircumflex" unicode="&#xf4;" horiz-adv-x="451" 
d="M28 0zM386.5 384.5q36.5 -45.5 36.5 -120.5q0 -71 -30.5 -134t-86 -101.5t-127.5 -38.5q-78 0 -114.5 45.5t-36.5 120.5q0 71 30.5 134t86 101.5t127.5 38.5q78 0 114.5 -45.5zM188.5 366q-30.5 -32 -48.5 -81q-24 -66 -24 -137q0 -62 20 -94t57 -32q41 0 73.5 36.5
t50.5 93.5q18 59 18 120q0 62 -20 94t-57 32q-39 0 -69.5 -32zM134 500q0 4 27 25q7 6 25 21t34 30l50 48q27 25 34 25q3 0 10.5 -7t15.5 -18l36 -48q19 -25 49 -55q16 -16 16 -20q0 -3 -3 -5.5t-10 -2.5q-10 0 -27 12l-97 73l-120 -73q-22 -12 -29 -12q-11 0 -11 7z" />
    <glyph glyph-name="odieresis" unicode="&#xf6;" horiz-adv-x="451" 
d="M28 0zM386.5 384.5q36.5 -45.5 36.5 -120.5q0 -71 -30.5 -134t-86 -101.5t-127.5 -38.5q-78 0 -114.5 45.5t-36.5 120.5q0 71 30.5 134t86 101.5t127.5 38.5q78 0 114.5 -45.5zM188.5 366q-30.5 -32 -48.5 -81q-24 -66 -24 -137q0 -62 20 -94t57 -32q41 0 73.5 36.5
t50.5 93.5q18 59 18 120q0 62 -20 94t-57 32q-39 0 -69.5 -32zM250.5 632q12.5 -11 12.5 -30q0 -25 -17 -39.5t-44 -14.5q-21 0 -34.5 11t-13.5 30q0 24 18 39t44 15q22 0 34.5 -11zM424.5 632q12.5 -11 12.5 -30q0 -25 -17 -39.5t-44 -14.5q-21 0 -34.5 11t-13.5 30
q0 24 18 39t44 15q22 0 34.5 -11z" />
    <glyph glyph-name="ograve" unicode="&#xf2;" horiz-adv-x="451" 
d="M28 0zM386.5 384.5q36.5 -45.5 36.5 -120.5q0 -71 -30.5 -134t-86 -101.5t-127.5 -38.5q-78 0 -114.5 45.5t-36.5 120.5q0 71 30.5 134t86 101.5t127.5 38.5q78 0 114.5 -45.5zM188.5 366q-30.5 -32 -48.5 -81q-24 -66 -24 -137q0 -62 20 -94t57 -32q41 0 73.5 36.5
t50.5 93.5q18 59 18 120q0 62 -20 94t-57 32q-39 0 -69.5 -32zM241.5 650q4.5 -3 9 -9.5t6.5 -8.5l82 -114q9 -14 9 -17q0 -8 -17 -8q-9 0 -18 9l-139 113q-6 6 -6 11q0 7 21 17t39 10q9 0 13.5 -3z" />
    <glyph glyph-name="ohungarumlaut" unicode="&#x151;" horiz-adv-x="451" 
d="M28 0zM386.5 384.5q36.5 -45.5 36.5 -120.5q0 -71 -30.5 -134t-86 -101.5t-127.5 -38.5q-78 0 -114.5 45.5t-36.5 120.5q0 71 30.5 134t86 101.5t127.5 38.5q78 0 114.5 -45.5zM188.5 366q-30.5 -32 -48.5 -81q-24 -66 -24 -137q0 -62 20 -94t57 -32q41 0 73.5 36.5
t50.5 93.5q18 59 18 120q0 62 -20 94t-57 32q-39 0 -69.5 -32zM318 644q17 -9 17 -16q0 -3 -9 -12q-10 -11 -126 -117q-6 -6 -17 -6q-10 0 -10 7q0 5 4 10q52 76 93 134q4 6 7 7.5t9 1.5q15 0 32 -9zM429 644.5q17 -8.5 17 -15.5q0 -4 -8 -13q-17 -20 -126 -117
q-7 -6 -17 -6q-5 0 -8 2t-3 5q0 2 4 10q44 60 66.5 93.5t27.5 40.5q5 6 8 7.5t8 1.5q14 0 31 -8.5z" />
    <glyph glyph-name="omacron" unicode="&#x14d;" horiz-adv-x="451" 
d="M28 0zM386.5 384.5q36.5 -45.5 36.5 -120.5q0 -71 -30.5 -134t-86 -101.5t-127.5 -38.5q-78 0 -114.5 45.5t-36.5 120.5q0 71 30.5 134t86 101.5t127.5 38.5q78 0 114.5 -45.5zM188.5 366q-30.5 -32 -48.5 -81q-24 -66 -24 -137q0 -62 20 -94t57 -32q41 0 73.5 36.5
t50.5 93.5q18 59 18 120q0 62 -20 94t-57 32q-39 0 -69.5 -32zM419 607l-6 -40h-242l6 40h242z" />
    <glyph glyph-name="oslash" unicode="&#xf8;" horiz-adv-x="459" 
d="M381 391q42 -43 42 -127q0 -71 -30.5 -134t-86 -101.5t-127.5 -38.5q-36 0 -66 11l-59 -86l-36 18l61 88q-51 43 -51 135q0 71 30.5 134t86 101.5t127.5 38.5q43 0 77 -16l62 90l32 -22zM123 86l192 279q-19 33 -57 33q-39 0 -69.5 -32t-48.5 -81q-24 -66 -24 -137
q0 -38 7 -62zM331 319l-188 -274q20 -23 50 -23q41 0 73.5 36.5t50.5 93.5q18 59 18 120q0 28 -4 47z" />
    <glyph glyph-name="otilde" unicode="&#xf5;" horiz-adv-x="451" 
d="M28 0zM386.5 384.5q36.5 -45.5 36.5 -120.5q0 -71 -30.5 -134t-86 -101.5t-127.5 -38.5q-78 0 -114.5 45.5t-36.5 120.5q0 71 30.5 134t86 101.5t127.5 38.5q78 0 114.5 -45.5zM188.5 366q-30.5 -32 -48.5 -81q-24 -66 -24 -137q0 -62 20 -94t57 -32q41 0 73.5 36.5
t50.5 93.5q18 59 18 120q0 62 -20 94t-57 32q-39 0 -69.5 -32zM306 599q53 -21 75 -21q14 0 25.5 12t13.5 30h20q-5 -37 -27.5 -64t-49.5 -27q-15 0 -34 5.5t-49 16.5q-53 21 -75 21q-14 0 -25 -12t-14 -30h-20q5 37 27.5 64t49.5 27q23 0 83 -22z" />
    <glyph glyph-name="oe" unicode="&#x153;" horiz-adv-x="699" 
d="M662 262q-28 -32 -89.5 -54.5t-156.5 -29.5q-1 -9 -1 -27q0 -50 21.5 -79.5t55.5 -29.5q45 0 132 55l22 -16q-40 -41 -86.5 -67t-92.5 -26q-40 0 -72 19t-50 54q-69 -71 -166 -71q-78 0 -114.5 45.5t-36.5 120.5q0 71 30.5 134t86 101.5t127.5 38.5q103 0 136 -82
q33 37 73.5 58t82.5 21q54 0 90 -28.5t36 -69.5q0 -35 -28 -67zM266.5 58.5q32.5 36.5 50.5 93.5q18 59 18 120q0 62 -20 94t-57 32q-39 0 -69.5 -32t-48.5 -81q-24 -66 -24 -137q0 -62 20 -94t57 -32q41 0 73.5 36.5zM453 316q-26 -51 -33 -106q95 7 147 41.5t52 83.5
q0 26 -14.5 44t-42.5 18q-66 0 -109 -81z" />
    <glyph glyph-name="p" unicode="p" horiz-adv-x="472" 
d="M422.5 394.5q27.5 -35.5 27.5 -94.5q0 -70 -31 -142.5t-84.5 -120t-116.5 -47.5q-30 0 -54 11t-38 29q-27 -187 -28 -233q0 -12 9 -12l63 2l-4 -26h-194l4 26l31 -2q11 1 14 20q17 103 45 302t28 234q0 32 -29 32q-8 0 -16 -2l-5 29q29 12 53.5 19t49.5 7q37 0 37 -19
q0 -12 -20 -122q-2 -19 -8 -47q44 99 94 145.5t98 46.5q47 0 74.5 -35.5zM361 276q0 46 -14 72.5t-35 26.5q-28 0 -70 -50t-73.5 -117t-31.5 -114q0 -42 24.5 -58t52.5 -16q53 0 86 46.5t49 115.5q12 47 12 94z" />
    <glyph glyph-name="thorn" unicode="&#xfe;" horiz-adv-x="460" 
d="M410.5 394.5q27.5 -35.5 27.5 -94.5q0 -70 -31 -142.5t-84.5 -120t-116.5 -47.5q-30 0 -54.5 11t-37.5 30q-26 -185 -28 -234q0 -12 9 -12l63 2l-4 -26h-194l4 26l31 -2q11 1 14 20q7 56 23 153q43 288 66 459t23 234q0 12 -9 18t-24 6t-24 -2l-6 25q33 16 65 24t53 8
q20 0 29 -4.5t9 -17.5q0 -12 -22 -140l-17 -104l-33 -232q44 102 94.5 150t99.5 48q47 0 74.5 -35.5zM339.5 191q9.5 48 9.5 85q0 46 -14 72.5t-35 26.5q-28 0 -70 -50t-73.5 -117t-31.5 -114q0 -42 24.5 -58t52.5 -16q68 0 109 83q19 40 28.5 88z" />
    <glyph glyph-name="q" unicode="q" horiz-adv-x="452" 
d="M393 198q-22 -137 -36 -257.5t-14 -142.5q0 -13 9 -13l63 2l-4 -26h-198l4 26l31 -2q11 1 14 20q4 30 13 103q23 180 40 275q-44 -100 -94 -146.5t-98 -46.5q-46 0 -73 35.5t-27 94.5q0 71 31 143.5t84 119.5t115 47q60 0 88 -40l6 21l92 17q-24 -93 -46 -230zM229 95
q42 50 73.5 117t31.5 114q0 42 -24.5 58t-52.5 16q-51 0 -84 -45.5t-49 -112.5q-12 -55 -12 -98q0 -46 13.5 -72.5t33.5 -26.5q28 0 70 50z" />
    <glyph glyph-name="r" unicode="r" horiz-adv-x="368" 
d="M356 408.5q19 -21.5 19 -50.5q0 -23 -13 -41.5t-39 -18.5q-16 0 -25 7.5t-9 20.5q0 9 6 20.5t6 16.5q0 7 -5 12t-13 5q-23 0 -52 -44.5t-53.5 -111t-36.5 -128.5l-12 -96h-78q1 7 5 28q20 120 31 197.5t11 115.5q0 32 -29 32q-8 0 -16 -2l-5 29q29 12 53.5 19t49.5 7
q37 0 37 -19q0 -16 -16 -98l-9 -54q30 77 65 126t79 49q30 0 49 -21.5z" />
    <glyph glyph-name="racute" unicode="&#x155;" horiz-adv-x="368" 
d="M48 0zM356 408.5q19 -21.5 19 -50.5q0 -23 -13 -41.5t-39 -18.5q-16 0 -25 7.5t-9 20.5q0 9 6 20.5t6 16.5q0 7 -5 12t-13 5q-23 0 -52 -44.5t-53.5 -111t-36.5 -128.5l-12 -96h-78q1 7 5 28q20 120 31 197.5t11 115.5q0 32 -29 32q-8 0 -16 -2l-5 29q29 12 53.5 19
t49.5 7q37 0 37 -19q0 -16 -16 -98l-9 -54q30 77 65 126t79 49q30 0 49 -21.5zM316 615l-171 -113q-12 -9 -21 -9q-14 0 -14 7q0 4 9 13l11 11l107 108q12 13 18 17t17 4q17 0 35.5 -9.5t18.5 -16.5q0 -4 -10 -12z" />
    <glyph glyph-name="rcaron" unicode="&#x159;" horiz-adv-x="368" 
d="M48 0zM356 408.5q19 -21.5 19 -50.5q0 -23 -13 -41.5t-39 -18.5q-16 0 -25 7.5t-9 20.5q0 9 6 20.5t6 16.5q0 7 -5 12t-13 5q-23 0 -52 -44.5t-53.5 -111t-36.5 -128.5l-12 -96h-78q1 7 5 28q20 120 31 197.5t11 115.5q0 32 -29 32q-8 0 -16 -2l-5 29q29 12 53.5 19
t49.5 7q37 0 37 -19q0 -16 -16 -98l-9 -54q30 77 65 126t79 49q30 0 49 -21.5zM346 650q0 -4 -27 -25q-7 -6 -25 -21t-34 -30l-50 -48q-27 -25 -34 -25q-3 0 -10.5 7t-15.5 18l-36 48q-19 25 -49 55q-16 16 -16 20q0 3 3 5.5t10 2.5q10 0 27 -12l97 -73l120 73q22 12 29 12
q11 0 11 -7z" />
    <glyph glyph-name="rcommaaccent" unicode="&#x157;" horiz-adv-x="368" 
d="M36 0zM356 408.5q19 -21.5 19 -50.5q0 -23 -13 -41.5t-39 -18.5q-16 0 -25 7.5t-9 20.5q0 9 6 20.5t6 16.5q0 7 -5 12t-13 5q-23 0 -52 -44.5t-53.5 -111t-36.5 -128.5l-12 -96h-78q1 7 5 28q20 120 31 197.5t11 115.5q0 32 -29 32q-8 0 -16 -2l-5 29q29 12 53.5 19
t49.5 7q37 0 37 -19q0 -16 -16 -98l-9 -54q30 77 65 126t79 49q30 0 49 -21.5zM135 -49.5q14 -15.5 14 -37.5q0 -40 -30 -74t-69 -52l-14 13q21 12 38.5 29.5t18.5 30.5q4 29 -24 29q-12 0 -19 9t-7 21q0 18 14.5 32.5t38.5 14.5q25 0 39 -15.5z" />
    <glyph glyph-name="s" unicode="s" horiz-adv-x="352" 
d="M266.5 294.5q-10.5 7.5 -10.5 18.5q0 13 7 25q6 14 6 24q0 19 -16.5 30t-45.5 11q-40 0 -65.5 -21.5t-25.5 -52.5q1 -29 23.5 -48t68.5 -42q54 -27 82 -52t28 -66q0 -62 -52 -96.5t-128 -34.5q-66 0 -105.5 26t-39.5 65q0 25 14.5 40.5t37.5 15.5q16 0 27.5 -7.5
t11.5 -18.5t-8 -27q-7 -19 -7 -26q0 -19 18 -30t54 -11q40 0 68.5 18.5t28.5 55.5q-1 27 -22.5 44.5t-65.5 38.5q-55 27 -84 53t-29 71q0 37 23.5 67.5t63 47.5t84.5 17q60 0 98.5 -26t38.5 -63q0 -24 -14.5 -39t-38.5 -15q-15 0 -25.5 7.5z" />
    <glyph glyph-name="sacute" unicode="&#x15b;" horiz-adv-x="352" 
d="M0 0zM266.5 294.5q-10.5 7.5 -10.5 18.5q0 13 7 25q6 14 6 24q0 19 -16.5 30t-45.5 11q-40 0 -65.5 -21.5t-25.5 -52.5q1 -29 23.5 -48t68.5 -42q54 -27 82 -52t28 -66q0 -62 -52 -96.5t-128 -34.5q-66 0 -105.5 26t-39.5 65q0 25 14.5 40.5t37.5 15.5q16 0 27.5 -7.5
t11.5 -18.5t-8 -27q-7 -19 -7 -26q0 -19 18 -30t54 -11q40 0 68.5 18.5t28.5 55.5q-1 27 -22.5 44.5t-65.5 38.5q-55 27 -84 53t-29 71q0 37 23.5 67.5t63 47.5t84.5 17q60 0 98.5 -26t38.5 -63q0 -24 -14.5 -39t-38.5 -15q-15 0 -25.5 7.5zM356 615l-171 -113
q-12 -9 -21 -9q-14 0 -14 7q0 4 9 13l11 11l107 108q12 13 18 17t17 4q17 0 35.5 -9.5t18.5 -16.5q0 -4 -10 -12z" />
    <glyph glyph-name="scaron" unicode="&#x161;" horiz-adv-x="352" 
d="M0 0zM266.5 294.5q-10.5 7.5 -10.5 18.5q0 13 7 25q6 14 6 24q0 19 -16.5 30t-45.5 11q-40 0 -65.5 -21.5t-25.5 -52.5q1 -29 23.5 -48t68.5 -42q54 -27 82 -52t28 -66q0 -62 -52 -96.5t-128 -34.5q-66 0 -105.5 26t-39.5 65q0 25 14.5 40.5t37.5 15.5q16 0 27.5 -7.5
t11.5 -18.5t-8 -27q-7 -19 -7 -26q0 -19 18 -30t54 -11q40 0 68.5 18.5t28.5 55.5q-1 27 -22.5 44.5t-65.5 38.5q-55 27 -84 53t-29 71q0 37 23.5 67.5t63 47.5t84.5 17q60 0 98.5 -26t38.5 -63q0 -24 -14.5 -39t-38.5 -15q-15 0 -25.5 7.5zM386 650q0 -4 -27 -25
q-7 -6 -25 -21t-34 -30l-50 -48q-27 -25 -34 -25q-3 0 -10.5 7t-15.5 18l-36 48q-19 25 -49 55q-16 16 -16 20q0 3 3 5.5t10 2.5q10 0 27 -12l97 -73l120 73q22 12 29 12q11 0 11 -7z" />
    <glyph glyph-name="scedilla" unicode="&#x15f;" horiz-adv-x="352" 
d="M266.5 294.5q-10.5 7.5 -10.5 18.5q0 13 7 25q6 14 6 24q0 19 -16.5 30t-45.5 11q-40 0 -65.5 -21.5t-25.5 -52.5q1 -29 23.5 -48t68.5 -42q54 -27 82 -52t28 -66q0 -58 -46 -92t-117 -39l-24 -33q-9 -12 -9 -20q0 -6 6.5 -9t21.5 -7q23 -7 34.5 -14t11.5 -24
q0 -42 -27.5 -69.5t-76.5 -27.5q-44 0 -66 16l12 27q10 -16 32 -16q23 0 40.5 17t17.5 40q0 17 -25 36l-20 14q-10 7 -10 14q0 6 9 14l37 43q-58 4 -92 29.5t-34 60.5q0 25 14.5 40.5t37.5 15.5q16 0 27.5 -7.5t11.5 -18.5t-8 -27q-7 -19 -7 -26q0 -19 18 -30t54 -11
q40 0 68.5 18.5t28.5 55.5q-1 27 -22.5 44.5t-65.5 38.5q-55 27 -84 53t-29 71q0 37 23.5 67.5t63 47.5t84.5 17q60 0 98.5 -26t38.5 -63q0 -24 -14.5 -39t-38.5 -15q-15 0 -25.5 7.5z" />
    <glyph glyph-name="scommaaccent" unicode="&#x219;" horiz-adv-x="352" 
d="M0 0zM266.5 294.5q-10.5 7.5 -10.5 18.5q0 13 7 25q6 14 6 24q0 19 -16.5 30t-45.5 11q-40 0 -65.5 -21.5t-25.5 -52.5q1 -29 23.5 -48t68.5 -42q54 -27 82 -52t28 -66q0 -62 -52 -96.5t-128 -34.5q-66 0 -105.5 26t-39.5 65q0 25 14.5 40.5t37.5 15.5q16 0 27.5 -7.5
t11.5 -18.5t-8 -27q-7 -19 -7 -26q0 -19 18 -30t54 -11q40 0 68.5 18.5t28.5 55.5q-1 27 -22.5 44.5t-65.5 38.5q-55 27 -84 53t-29 71q0 37 23.5 67.5t63 47.5t84.5 17q60 0 98.5 -26t38.5 -63q0 -24 -14.5 -39t-38.5 -15q-15 0 -25.5 7.5zM171 -49.5q14 -15.5 14 -37.5
q0 -40 -30 -74t-69 -52l-14 13q21 12 38.5 29.5t18.5 30.5q4 29 -24 29q-12 0 -19 9t-7 21q0 18 14.5 32.5t38.5 14.5q25 0 39 -15.5z" />
    <glyph glyph-name="germandbls" unicode="&#xdf;" horiz-adv-x="558" 
d="M198.5 648.5q63.5 81.5 166.5 81.5q62 0 99.5 -30t37.5 -76q0 -27 -12.5 -47t-29.5 -33t-49 -34t-48.5 -40.5t-16.5 -45.5q0 -28 18 -51.5t56 -57.5q33 -29 53 -51t34.5 -52.5t14.5 -67.5q0 -47 -23 -82t-61.5 -53.5t-84.5 -18.5q-57 0 -92.5 26t-35.5 64q0 22 13.5 39.5
t40.5 17.5q32 0 32 -26q0 -10 -6 -26q-7 -16 -7 -28q0 -40 64 -40q39 0 61 17.5t22 61.5q0 46 -22 79t-66 75q-43 40 -65 72.5t-22 77.5q0 30 10.5 50t25.5 32.5t42 28.5q23 12 36 23q21 16 32.5 37t11.5 52q0 40 -19.5 60t-52.5 20q-119 0 -147 -249l-39 -352
q-39 -347 -207 -347q-41 0 -70 18.5t-29 48.5q0 18 11.5 31t33.5 13q15 0 26 -6.5t11 -21.5q0 -6 -3 -16t-3 -15q0 -12 8.5 -18.5t22.5 -6.5q31 0 51 31t33 93t25 166l41 368q14 127 77.5 208.5z" />
    <glyph glyph-name="t" unicode="t" horiz-adv-x="322" 
d="M177 254q-21 -124 -21 -163q0 -40 28 -40q31 0 80 49l22 -16q-33 -44 -68 -68.5t-78 -24.5q-37 0 -54 18t-17 48q0 24 17 129l6 40l26 163h-75l27 31h53l17 104l90 16l-23 -120h107v-15l-29 -16h-84z" />
    <glyph glyph-name="tcaron" unicode="&#x165;" horiz-adv-x="322" 
d="M43 0zM177 254q-21 -124 -21 -163q0 -40 28 -40q31 0 80 49l22 -16q-33 -44 -68 -68.5t-78 -24.5q-37 0 -54 18t-17 48q0 24 17 129l6 40l26 163h-75l27 31h53l17 104l90 16l-23 -120h107v-15l-29 -16h-84zM350 591.5q13 -15.5 13 -37.5q0 -36 -27 -68t-62 -48l-14 13
q18 12 32 29.5t15 30.5v4q0 15 -14 15q-12 0 -19 9t-7 21q0 18 12.5 32.5t35.5 14.5q22 0 35 -15.5z" />
    <glyph glyph-name="uni0163" unicode="&#x163;" horiz-adv-x="322" 
d="M177 254q-21 -124 -21 -163q0 -40 28 -40q31 0 80 49l22 -16q-29 -38 -58.5 -61.5t-63.5 -29.5l-26 -36q-9 -12 -9 -20q0 -6 6.5 -9t21.5 -7q23 -7 34.5 -14t11.5 -24q0 -42 -27.5 -69.5t-76.5 -27.5q-44 0 -66 16l12 27q10 -16 32 -16q23 0 40.5 17t17.5 40q0 17 -25 36
l-20 14q-10 7 -10 14q0 6 9 14l38 44q-30 3 -44 20.5t-14 44.5q0 24 17 129l6 40l26 163h-75l27 31h53l17 104l90 16l-23 -120h107v-15l-29 -16h-84z" />
    <glyph glyph-name="uni021B" unicode="&#x21b;" horiz-adv-x="322" 
d="M43 0zM177 254q-21 -124 -21 -163q0 -40 28 -40q31 0 80 49l22 -16q-33 -44 -68 -68.5t-78 -24.5q-37 0 -54 18t-17 48q0 24 17 129l6 40l26 163h-75l27 31h53l17 104l90 16l-23 -120h107v-15l-29 -16h-84zM178 -49.5q14 -15.5 14 -37.5q0 -40 -30 -74t-69 -52l-14 13
q21 12 38.5 29.5t18.5 30.5q4 29 -24 29q-12 0 -19 9t-7 21q0 18 14.5 32.5t38.5 14.5q25 0 39 -15.5z" />
    <glyph glyph-name="u" unicode="u" horiz-adv-x="489" 
d="M463 60q-34 -37 -66.5 -53.5t-58.5 -16.5q-14 0 -19 11t-5 35q0 28 17 143q-56 -103 -101.5 -146t-93.5 -43q-40 0 -61 22.5t-21 57.5q0 37 30 170q20 87 20 106q0 27 -37 27q-12 0 -20 -2l-5 29q41 14 65 20t50 6q32 0 32 -19q0 -14 -20 -112q-12 -57 -22.5 -115.5
t-10.5 -80.5q0 -24 8 -39t26 -15q28 0 64 39t67.5 97.5t46.5 110.5l18 119l92 17q-32 -165 -45 -239.5t-13 -104.5q0 -17 13 -17q18 0 38 13z" />
    <glyph glyph-name="uacute" unicode="&#xfa;" horiz-adv-x="489" 
d="M42 0zM463 60q-34 -37 -66.5 -53.5t-58.5 -16.5q-14 0 -19 11t-5 35q0 28 17 143q-56 -103 -101.5 -146t-93.5 -43q-40 0 -61 22.5t-21 57.5q0 37 30 170q20 87 20 106q0 27 -37 27q-12 0 -20 -2l-5 29q41 14 65 20t50 6q32 0 32 -19q0 -14 -20 -112
q-12 -57 -22.5 -115.5t-10.5 -80.5q0 -24 8 -39t26 -15q28 0 64 39t67.5 97.5t46.5 110.5l18 119l92 17q-32 -165 -45 -239.5t-13 -104.5q0 -17 13 -17q18 0 38 13zM427 615l-171 -113q-12 -9 -21 -9q-14 0 -14 7q0 4 9 13l11 11l107 108q12 13 18 17t17 4q17 0 35.5 -9.5
t18.5 -16.5q0 -4 -10 -12z" />
    <glyph glyph-name="ucircumflex" unicode="&#xfb;" horiz-adv-x="489" 
d="M42 0zM463 60q-34 -37 -66.5 -53.5t-58.5 -16.5q-14 0 -19 11t-5 35q0 28 17 143q-56 -103 -101.5 -146t-93.5 -43q-40 0 -61 22.5t-21 57.5q0 37 30 170q20 87 20 106q0 27 -37 27q-12 0 -20 -2l-5 29q41 14 65 20t50 6q32 0 32 -19q0 -14 -20 -112
q-12 -57 -22.5 -115.5t-10.5 -80.5q0 -24 8 -39t26 -15q28 0 64 39t67.5 97.5t46.5 110.5l18 119l92 17q-32 -165 -45 -239.5t-13 -104.5q0 -17 13 -17q18 0 38 13zM138 500q0 4 27 25q7 6 25 21t34 30l50 48q27 25 34 25q3 0 10.5 -7t15.5 -18l36 -48q19 -25 49 -55
q16 -16 16 -20q0 -3 -3 -5.5t-10 -2.5q-10 0 -27 12l-97 73l-120 -73q-22 -12 -29 -12q-11 0 -11 7z" />
    <glyph glyph-name="udieresis" unicode="&#xfc;" horiz-adv-x="489" 
d="M42 0zM463 60q-34 -37 -66.5 -53.5t-58.5 -16.5q-14 0 -19 11t-5 35q0 28 17 143q-56 -103 -101.5 -146t-93.5 -43q-40 0 -61 22.5t-21 57.5q0 37 30 170q20 87 20 106q0 27 -37 27q-12 0 -20 -2l-5 29q41 14 65 20t50 6q32 0 32 -19q0 -14 -20 -112
q-12 -57 -22.5 -115.5t-10.5 -80.5q0 -24 8 -39t26 -15q28 0 64 39t67.5 97.5t46.5 110.5l18 119l92 17q-32 -165 -45 -239.5t-13 -104.5q0 -17 13 -17q18 0 38 13zM254.5 632q12.5 -11 12.5 -30q0 -25 -17 -39.5t-44 -14.5q-21 0 -34.5 11t-13.5 30q0 24 18 39t44 15
q22 0 34.5 -11zM428.5 632q12.5 -11 12.5 -30q0 -25 -17 -39.5t-44 -14.5q-21 0 -34.5 11t-13.5 30q0 24 18 39t44 15q22 0 34.5 -11z" />
    <glyph glyph-name="ugrave" unicode="&#xf9;" horiz-adv-x="489" 
d="M42 0zM463 60q-34 -37 -66.5 -53.5t-58.5 -16.5q-14 0 -19 11t-5 35q0 28 17 143q-56 -103 -101.5 -146t-93.5 -43q-40 0 -61 22.5t-21 57.5q0 37 30 170q20 87 20 106q0 27 -37 27q-12 0 -20 -2l-5 29q41 14 65 20t50 6q32 0 32 -19q0 -14 -20 -112
q-12 -57 -22.5 -115.5t-10.5 -80.5q0 -24 8 -39t26 -15q28 0 64 39t67.5 97.5t46.5 110.5l18 119l92 17q-32 -165 -45 -239.5t-13 -104.5q0 -17 13 -17q18 0 38 13zM245.5 650q4.5 -3 9 -9.5t6.5 -8.5l82 -114q9 -14 9 -17q0 -8 -17 -8q-9 0 -18 9l-139 113q-6 6 -6 11
q0 7 21 17t39 10q9 0 13.5 -3z" />
    <glyph glyph-name="uhungarumlaut" unicode="&#x171;" horiz-adv-x="489" 
d="M42 0zM463 60q-34 -37 -66.5 -53.5t-58.5 -16.5q-14 0 -19 11t-5 35q0 28 17 143q-56 -103 -101.5 -146t-93.5 -43q-40 0 -61 22.5t-21 57.5q0 37 30 170q20 87 20 106q0 27 -37 27q-12 0 -20 -2l-5 29q41 14 65 20t50 6q32 0 32 -19q0 -14 -20 -112
q-12 -57 -22.5 -115.5t-10.5 -80.5q0 -24 8 -39t26 -15q28 0 64 39t67.5 97.5t46.5 110.5l18 119l92 17q-32 -165 -45 -239.5t-13 -104.5q0 -17 13 -17q18 0 38 13zM322 644q17 -9 17 -16q0 -3 -9 -12q-10 -11 -126 -117q-6 -6 -17 -6q-10 0 -10 7q0 5 4 10q52 76 93 134
q4 6 7 7.5t9 1.5q15 0 32 -9zM433 644.5q17 -8.5 17 -15.5q0 -4 -8 -13q-17 -20 -126 -117q-7 -6 -17 -6q-5 0 -8 2t-3 5q0 2 4 10q44 60 66.5 93.5t27.5 40.5q5 6 8 7.5t8 1.5q14 0 31 -8.5z" />
    <glyph glyph-name="umacron" unicode="&#x16b;" horiz-adv-x="489" 
d="M42 0zM463 60q-34 -37 -66.5 -53.5t-58.5 -16.5q-14 0 -19 11t-5 35q0 28 17 143q-56 -103 -101.5 -146t-93.5 -43q-40 0 -61 22.5t-21 57.5q0 37 30 170q20 87 20 106q0 27 -37 27q-12 0 -20 -2l-5 29q41 14 65 20t50 6q32 0 32 -19q0 -14 -20 -112
q-12 -57 -22.5 -115.5t-10.5 -80.5q0 -24 8 -39t26 -15q28 0 64 39t67.5 97.5t46.5 110.5l18 119l92 17q-32 -165 -45 -239.5t-13 -104.5q0 -17 13 -17q18 0 38 13zM423 607l-6 -40h-242l6 40h242z" />
    <glyph glyph-name="uogonek" unicode="&#x173;" horiz-adv-x="489" 
d="M477 -99q-27 -29 -58.5 -44.5t-62.5 -15.5q-26 0 -44.5 16.5t-18.5 45.5q0 49 48 87h-3q-14 0 -19 11t-5 35q0 28 17 143q-56 -103 -101.5 -146t-93.5 -43q-40 0 -61 22.5t-21 57.5q0 37 30 170q20 87 20 106q0 27 -37 27q-12 0 -20 -2l-5 29q41 14 65 20t50 6
q32 0 32 -19q0 -14 -20 -112q-12 -57 -22.5 -115.5t-10.5 -80.5q0 -24 8 -39t26 -15q28 0 64 39t67.5 97.5t46.5 110.5l18 119l92 17q-32 -165 -45 -239.5t-13 -104.5q0 -17 13 -17q18 0 38 13l12 -20q-27 -29 -54 -46l-14 -8q-21 -14 -32.5 -34t-11.5 -43q0 -20 11 -32.5
t34 -12.5q30 0 69 31z" />
    <glyph glyph-name="uring" unicode="&#x16f;" horiz-adv-x="489" 
d="M42 0zM463 60q-34 -37 -66.5 -53.5t-58.5 -16.5q-14 0 -19 11t-5 35q0 28 17 143q-56 -103 -101.5 -146t-93.5 -43q-40 0 -61 22.5t-21 57.5q0 37 30 170q20 87 20 106q0 27 -37 27q-12 0 -20 -2l-5 29q41 14 65 20t50 6q32 0 32 -19q0 -14 -20 -112
q-12 -57 -22.5 -115.5t-10.5 -80.5q0 -24 8 -39t26 -15q28 0 64 39t67.5 97.5t46.5 110.5l18 119l92 17q-32 -165 -45 -239.5t-13 -104.5q0 -17 13 -17q18 0 38 13zM245.5 629.5q27.5 26.5 64.5 26.5q34 0 52.5 -19t18.5 -52q0 -40 -26.5 -66t-67.5 -26q-33 0 -51 19.5
t-18 52.5q0 38 27.5 64.5zM270.5 540q7.5 -11 21.5 -11q18 0 30.5 15.5t12.5 36.5q0 18 -7.5 28.5t-22.5 10.5q-18 0 -30 -15t-12 -36q0 -18 7.5 -29z" />
    <glyph glyph-name="v" unicode="v" horiz-adv-x="411" 
d="M387.5 413q16.5 -16 16.5 -45q0 -45 -37 -118.5t-89 -145.5t-93 -109h-27l-84 346q-4 18 -11.5 25.5t-21.5 7.5q-10 0 -25 -3l-5 29q23 10 49.5 18t43.5 8q19 0 31 -12.5t18 -45.5l64 -290q52 60 91.5 128t39.5 109q0 14 -7 18.5t-26 5.5q-13 1 -20.5 12.5t-7.5 29.5
q0 48 53 48q31 0 47.5 -16z" />
    <glyph glyph-name="w" unicode="w" horiz-adv-x="662" 
d="M638.5 413q16.5 -16 16.5 -45q0 -45 -37 -118.5t-89 -145.5t-93 -109h-27l-53 233q-36 -67 -84.5 -133.5t-86.5 -99.5h-27l-84 346q-4 18 -11.5 25.5t-21.5 7.5q-10 0 -25 -3l-5 29q23 10 49.5 18t43.5 8q19 0 31 -12.5t18 -45.5l64 -289q42 48 78 105.5t48 99.5l-19 69
q-5 18 -12.5 38.5t-10.5 28.5h92l75 -341q52 60 91.5 129t39.5 107q0 14 -7 18.5t-26 5.5q-13 1 -20.5 12.5t-7.5 29.5q0 48 53 48q31 0 47.5 -16z" />
    <glyph glyph-name="wacute" unicode="&#x1e83;" horiz-adv-x="662" 
d="M11 0zM638.5 413q16.5 -16 16.5 -45q0 -45 -37 -118.5t-89 -145.5t-93 -109h-27l-53 233q-36 -67 -84.5 -133.5t-86.5 -99.5h-27l-84 346q-4 18 -11.5 25.5t-21.5 7.5q-10 0 -25 -3l-5 29q23 10 49.5 18t43.5 8q19 0 31 -12.5t18 -45.5l64 -289q42 48 78 105.5t48 99.5
l-19 69q-5 18 -12.5 38.5t-10.5 28.5h92l75 -341q52 60 91.5 129t39.5 107q0 14 -7 18.5t-26 5.5q-13 1 -20.5 12.5t-7.5 29.5q0 48 53 48q31 0 47.5 -16zM513 615l-171 -113q-12 -9 -21 -9q-14 0 -14 7q0 4 9 13l11 11l107 108q12 13 18 17t17 4q17 0 35.5 -9.5t18.5 -16.5
q0 -4 -10 -12z" />
    <glyph glyph-name="wcircumflex" unicode="&#x175;" horiz-adv-x="662" 
d="M11 0zM638.5 413q16.5 -16 16.5 -45q0 -45 -37 -118.5t-89 -145.5t-93 -109h-27l-53 233q-36 -67 -84.5 -133.5t-86.5 -99.5h-27l-84 346q-4 18 -11.5 25.5t-21.5 7.5q-10 0 -25 -3l-5 29q23 10 49.5 18t43.5 8q19 0 31 -12.5t18 -45.5l64 -289q42 48 78 105.5t48 99.5
l-19 69q-5 18 -12.5 38.5t-10.5 28.5h92l75 -341q52 60 91.5 129t39.5 107q0 14 -7 18.5t-26 5.5q-13 1 -20.5 12.5t-7.5 29.5q0 48 53 48q31 0 47.5 -16zM224 500q0 4 27 25q7 6 25 21t34 30l50 48q27 25 34 25q3 0 10.5 -7t15.5 -18l36 -48q19 -25 49 -55q16 -16 16 -20
q0 -3 -3 -5.5t-10 -2.5q-10 0 -27 12l-97 73l-120 -73q-22 -12 -29 -12q-11 0 -11 7z" />
    <glyph glyph-name="wdieresis" unicode="&#x1e85;" horiz-adv-x="662" 
d="M11 0zM638.5 413q16.5 -16 16.5 -45q0 -45 -37 -118.5t-89 -145.5t-93 -109h-27l-53 233q-36 -67 -84.5 -133.5t-86.5 -99.5h-27l-84 346q-4 18 -11.5 25.5t-21.5 7.5q-10 0 -25 -3l-5 29q23 10 49.5 18t43.5 8q19 0 31 -12.5t18 -45.5l64 -289q42 48 78 105.5t48 99.5
l-19 69q-5 18 -12.5 38.5t-10.5 28.5h92l75 -341q52 60 91.5 129t39.5 107q0 14 -7 18.5t-26 5.5q-13 1 -20.5 12.5t-7.5 29.5q0 48 53 48q31 0 47.5 -16zM340.5 632q12.5 -11 12.5 -30q0 -25 -17 -39.5t-44 -14.5q-21 0 -34.5 11t-13.5 30q0 24 18 39t44 15q22 0 34.5 -11z
M514.5 632q12.5 -11 12.5 -30q0 -25 -17 -39.5t-44 -14.5q-21 0 -34.5 11t-13.5 30q0 24 18 39t44 15q22 0 34.5 -11z" />
    <glyph glyph-name="wgrave" unicode="&#x1e81;" horiz-adv-x="662" 
d="M11 0zM638.5 413q16.5 -16 16.5 -45q0 -45 -37 -118.5t-89 -145.5t-93 -109h-27l-53 233q-36 -67 -84.5 -133.5t-86.5 -99.5h-27l-84 346q-4 18 -11.5 25.5t-21.5 7.5q-10 0 -25 -3l-5 29q23 10 49.5 18t43.5 8q19 0 31 -12.5t18 -45.5l64 -289q42 48 78 105.5t48 99.5
l-19 69q-5 18 -12.5 38.5t-10.5 28.5h92l75 -341q52 60 91.5 129t39.5 107q0 14 -7 18.5t-26 5.5q-13 1 -20.5 12.5t-7.5 29.5q0 48 53 48q31 0 47.5 -16zM331.5 650q4.5 -3 9 -9.5t6.5 -8.5l82 -114q9 -14 9 -17q0 -8 -17 -8q-9 0 -18 9l-139 113q-6 6 -6 11q0 7 21 17
t39 10q9 0 13.5 -3z" />
    <glyph glyph-name="x" unicode="x" horiz-adv-x="471" 
d="M352.5 342.5q-6.5 -3.5 -13.5 -13.5l-67 -100l63 -148q4 -9 8.5 -12t11.5 -3q18 0 60 19l12 -20q-34 -34 -66 -54.5t-52 -20.5q-12 0 -20.5 6t-15.5 21l-59 137l-69 -105q-39 -59 -94 -59q-42 0 -42 43q0 21 12 36t31 15q11 0 29 -10q14 -9 25 -9q8 1 14.5 5t13.5 14
l67 100l-67 157q-9 20 -14.5 26.5t-18.5 6.5q-18 0 -45 -3l-5 29q28 11 60 18.5t53 7.5q16 0 25 -11.5t24 -46.5l46 -109l69 104q39 59 94 59q42 0 42 -43q0 -21 -12 -36t-31 -15q-11 0 -29 10q-14 9 -25 9q-8 -1 -14.5 -4.5z" />
    <glyph glyph-name="y" unicode="y" horiz-adv-x="411" 
d="M387.5 413q16.5 -16 16.5 -45q0 -48 -41.5 -143.5t-99.5 -185.5q-68 -106 -134 -168t-114.5 -86t-72.5 -24q-22 0 -36 8.5t-14 35.5q0 19 13 34.5t32 15.5q12 0 34 -12q9 -5 18.5 -8.5t18.5 -3.5q10 0 35.5 17t61.5 52t76 85l-107 356q-4 18 -11.5 25.5t-21.5 7.5
q-10 0 -25 -3l-5 29q23 10 49.5 18t43.5 8q18 0 29 -12t20 -46l86 -302q48 72 80 140.5t32 108.5q0 15 -6.5 18.5t-29.5 5.5q-13 1 -20.5 12.5t-7.5 29.5q0 48 53 48q31 0 47.5 -16z" />
    <glyph glyph-name="yacute" unicode="&#xfd;" horiz-adv-x="411" 
d="M0 0zM387.5 413q16.5 -16 16.5 -45q0 -48 -41.5 -143.5t-99.5 -185.5q-68 -106 -134 -168t-114.5 -86t-72.5 -24q-22 0 -36 8.5t-14 35.5q0 19 13 34.5t32 15.5q12 0 34 -12q9 -5 18.5 -8.5t18.5 -3.5q10 0 35.5 17t61.5 52t76 85l-107 356q-4 18 -11.5 25.5t-21.5 7.5
q-10 0 -25 -3l-5 29q23 10 49.5 18t43.5 8q18 0 29 -12t20 -46l86 -302q48 72 80 140.5t32 108.5q0 15 -6.5 18.5t-29.5 5.5q-13 1 -20.5 12.5t-7.5 29.5q0 48 53 48q31 0 47.5 -16zM388 615l-171 -113q-12 -9 -21 -9q-14 0 -14 7q0 4 9 13l11 11l107 108q12 13 18 17t17 4
q17 0 35.5 -9.5t18.5 -16.5q0 -4 -10 -12z" />
    <glyph glyph-name="ycircumflex" unicode="&#x177;" horiz-adv-x="411" 
d="M0 0zM387.5 413q16.5 -16 16.5 -45q0 -48 -41.5 -143.5t-99.5 -185.5q-68 -106 -134 -168t-114.5 -86t-72.5 -24q-22 0 -36 8.5t-14 35.5q0 19 13 34.5t32 15.5q12 0 34 -12q9 -5 18.5 -8.5t18.5 -3.5q10 0 35.5 17t61.5 52t76 85l-107 356q-4 18 -11.5 25.5t-21.5 7.5
q-10 0 -25 -3l-5 29q23 10 49.5 18t43.5 8q18 0 29 -12t20 -46l86 -302q48 72 80 140.5t32 108.5q0 15 -6.5 18.5t-29.5 5.5q-13 1 -20.5 12.5t-7.5 29.5q0 48 53 48q31 0 47.5 -16zM99 500q0 4 27 25q7 6 25 21t34 30l50 48q27 25 34 25q3 0 10.5 -7t15.5 -18l36 -48
q19 -25 49 -55q16 -16 16 -20q0 -3 -3 -5.5t-10 -2.5q-10 0 -27 12l-97 73l-120 -73q-22 -12 -29 -12q-11 0 -11 7z" />
    <glyph glyph-name="ydieresis" unicode="&#xff;" horiz-adv-x="411" 
d="M0 0zM387.5 413q16.5 -16 16.5 -45q0 -48 -41.5 -143.5t-99.5 -185.5q-68 -106 -134 -168t-114.5 -86t-72.5 -24q-22 0 -36 8.5t-14 35.5q0 19 13 34.5t32 15.5q12 0 34 -12q9 -5 18.5 -8.5t18.5 -3.5q10 0 35.5 17t61.5 52t76 85l-107 356q-4 18 -11.5 25.5t-21.5 7.5
q-10 0 -25 -3l-5 29q23 10 49.5 18t43.5 8q18 0 29 -12t20 -46l86 -302q48 72 80 140.5t32 108.5q0 15 -6.5 18.5t-29.5 5.5q-13 1 -20.5 12.5t-7.5 29.5q0 48 53 48q31 0 47.5 -16zM215.5 632q12.5 -11 12.5 -30q0 -25 -17 -39.5t-44 -14.5q-21 0 -34.5 11t-13.5 30
q0 24 18 39t44 15q22 0 34.5 -11zM389.5 632q12.5 -11 12.5 -30q0 -25 -17 -39.5t-44 -14.5q-21 0 -34.5 11t-13.5 30q0 24 18 39t44 15q22 0 34.5 -11z" />
    <glyph glyph-name="ygrave" unicode="&#x1ef3;" horiz-adv-x="411" 
d="M0 0zM387.5 413q16.5 -16 16.5 -45q0 -48 -41.5 -143.5t-99.5 -185.5q-68 -106 -134 -168t-114.5 -86t-72.5 -24q-22 0 -36 8.5t-14 35.5q0 19 13 34.5t32 15.5q12 0 34 -12q9 -5 18.5 -8.5t18.5 -3.5q10 0 35.5 17t61.5 52t76 85l-107 356q-4 18 -11.5 25.5t-21.5 7.5
q-10 0 -25 -3l-5 29q23 10 49.5 18t43.5 8q18 0 29 -12t20 -46l86 -302q48 72 80 140.5t32 108.5q0 15 -6.5 18.5t-29.5 5.5q-13 1 -20.5 12.5t-7.5 29.5q0 48 53 48q31 0 47.5 -16zM206.5 650q4.5 -3 9 -9.5t6.5 -8.5l82 -114q9 -14 9 -17q0 -8 -17 -8q-9 0 -18 9l-139 113
q-6 6 -6 11q0 7 21 17t39 10q9 0 13.5 -3z" />
    <glyph glyph-name="z" unicode="z" horiz-adv-x="376" 
d="M325 84l16 -14q-20 -36 -47.5 -58t-71.5 -22q-19 0 -34.5 4.5t-35.5 13.5q-34 15 -55 15q-31 0 -66 -21l-10 -12l-4 3v0l-18 14l278 330q-18 -2 -25 -2q-21 0 -37.5 5t-34.5 15q-19 9 -29 12.5t-23 3.5q-35 0 -70 -34l-16 14q21 36 51.5 58t76.5 22q19 0 33.5 -4
t33.5 -11q28 -11 47 -11q30 0 68 22l2 2l22 -18l-268 -318q21 10 42 10q20 0 34.5 -7.5t32.5 -21.5q15 -12 25.5 -18t23.5 -6q29 0 59 34z" />
    <glyph glyph-name="zacute" unicode="&#x17a;" horiz-adv-x="376" 
d="M0 0zM325 84l16 -14q-20 -36 -47.5 -58t-71.5 -22q-19 0 -34.5 4.5t-35.5 13.5q-34 15 -55 15q-31 0 -66 -21l-10 -12l-4 3v0l-18 14l278 330q-18 -2 -25 -2q-21 0 -37.5 5t-34.5 15q-19 9 -29 12.5t-23 3.5q-35 0 -70 -34l-16 14q21 36 51.5 58t76.5 22q19 0 33.5 -4
t33.5 -11q28 -11 47 -11q30 0 68 22l2 2l22 -18l-268 -318q21 10 42 10q20 0 34.5 -7.5t32.5 -21.5q15 -12 25.5 -18t23.5 -6q29 0 59 34zM360 615l-171 -113q-12 -9 -21 -9q-14 0 -14 7q0 4 9 13l11 11l107 108q12 13 18 17t17 4q17 0 35.5 -9.5t18.5 -16.5q0 -4 -10 -12z
" />
    <glyph glyph-name="zcaron" unicode="&#x17e;" horiz-adv-x="376" 
d="M0 0zM325 84l16 -14q-20 -36 -47.5 -58t-71.5 -22q-19 0 -34.5 4.5t-35.5 13.5q-34 15 -55 15q-31 0 -66 -21l-10 -12l-4 3v0l-18 14l278 330q-18 -2 -25 -2q-21 0 -37.5 5t-34.5 15q-19 9 -29 12.5t-23 3.5q-35 0 -70 -34l-16 14q21 36 51.5 58t76.5 22q19 0 33.5 -4
t33.5 -11q28 -11 47 -11q30 0 68 22l2 2l22 -18l-268 -318q21 10 42 10q20 0 34.5 -7.5t32.5 -21.5q15 -12 25.5 -18t23.5 -6q29 0 59 34zM390 650q0 -4 -27 -25q-7 -6 -25 -21t-34 -30l-50 -48q-27 -25 -34 -25q-3 0 -10.5 7t-15.5 18l-36 48q-19 25 -49 55q-16 16 -16 20
q0 3 3 5.5t10 2.5q10 0 27 -12l97 -73l120 73q22 12 29 12q11 0 11 -7z" />
    <glyph glyph-name="zdotaccent" unicode="&#x17c;" horiz-adv-x="376" 
d="M0 0zM325 84l16 -14q-20 -36 -47.5 -58t-71.5 -22q-19 0 -34.5 4.5t-35.5 13.5q-34 15 -55 15q-31 0 -66 -21l-10 -12l-4 3v0l-18 14l278 330q-18 -2 -25 -2q-21 0 -37.5 5t-34.5 15q-19 9 -29 12.5t-23 3.5q-35 0 -70 -34l-16 14q21 36 51.5 58t76.5 22q19 0 33.5 -4
t33.5 -11q28 -11 47 -11q30 0 68 22l2 2l22 -18l-268 -318q21 10 42 10q20 0 34.5 -7.5t32.5 -21.5q15 -12 25.5 -18t23.5 -6q29 0 59 34zM273.5 632q12.5 -11 12.5 -30q0 -25 -17 -39.5t-44 -14.5q-21 0 -34.5 11t-13.5 30q0 24 18 39t44 15q22 0 34.5 -11z" />
    <glyph glyph-name="f.ss01" horiz-adv-x="287" 
d="M356.5 706.5q27.5 -23.5 27.5 -57.5q0 -18 -11.5 -29.5t-35.5 -11.5q-36 0 -36 29q0 6 4.5 17t4.5 19q0 30 -30 30q-28 0 -45 -51q-12 -36 -19 -115l-12 -117h106v-15l-29 -16h-81l-30 -287q-39 -347 -207 -347q-41 0 -70 18.5t-29 48.5q0 18 11.5 31t33.5 13
q15 0 26 -6.5t11 -21.5q0 -6 -3 -16t-3 -15q0 -12 8.5 -18.5t22.5 -6.5q31 0 51 31t33 93t25 166l34 317h-85l27 31h61l11 103q10 93 50.5 150t106.5 57q44 0 71.5 -23.5z" />
    <glyph glyph-name="j.ss01" horiz-adv-x="242" 
d="M213 631.5q14 -11.5 14 -29.5q0 -25 -18 -39.5t-45 -14.5q-22 0 -34.5 11t-12.5 30q0 24 17 39t44 15q21 0 35 -11.5zM185 421.5q8 -4.5 8 -18.5q-8 -48 -30 -192.5t-29 -199.5q-12 -86 -31.5 -141t-55.5 -85t-94 -30q-45 0 -98 35l23 25q30 -28 82 -28q30 0 47 22.5
t26 64t22 127.5q4 20 6.5 38t4.5 33l21 153q13 96 13 117q0 31 -30 31q-9 0 -17 -2l-5 29q63 26 114 26q15 0 23 -4.5z" />
    <glyph glyph-name="y.ss01" horiz-adv-x="412" 
d="M404 362q0 -64 -52 -151.5t-126 -169.5q-17 -19 -52 -54q-52 -55 -74.5 -83.5t-22.5 -50.5q0 -15 15 -24q8 -7 12 -13t4 -17q0 -21 -15.5 -34.5t-37.5 -13.5q-25 0 -33 16t-8 33q0 37 32.5 89t107.5 126l-80 326q-4 18 -11.5 25.5t-21.5 7.5q-10 0 -25 -3l-5 29
q23 10 49.5 18t43.5 8q19 0 30.5 -12.5t18.5 -45.5l64 -290q60 68 95.5 125t35.5 110q0 16 -5.5 20t-27.5 6q-13 1 -20.5 12.5t-7.5 29.5q0 48 54 48q63 0 63 -67z" />
    <glyph glyph-name="yacute.ss01" horiz-adv-x="412" 
d="M11 0zM404 362q0 -64 -52 -151.5t-126 -169.5q-17 -19 -52 -54q-52 -55 -74.5 -83.5t-22.5 -50.5q0 -15 15 -24q8 -7 12 -13t4 -17q0 -21 -15.5 -34.5t-37.5 -13.5q-25 0 -33 16t-8 33q0 37 32.5 89t107.5 126l-80 326q-4 18 -11.5 25.5t-21.5 7.5q-10 0 -25 -3l-5 29
q23 10 49.5 18t43.5 8q19 0 30.5 -12.5t18.5 -45.5l64 -290q60 68 95.5 125t35.5 110q0 16 -5.5 20t-27.5 6q-13 1 -20.5 12.5t-7.5 29.5q0 48 54 48q63 0 63 -67zM388 615l-171 -113q-12 -9 -21 -9q-14 0 -14 7q0 4 9 13l11 11l107 108q12 13 18 17t17 4q17 0 35.5 -9.5
t18.5 -16.5q0 -4 -10 -12z" />
    <glyph glyph-name="ycircumflex.ss01" horiz-adv-x="412" 
d="M11 0zM404 362q0 -64 -52 -151.5t-126 -169.5q-17 -19 -52 -54q-52 -55 -74.5 -83.5t-22.5 -50.5q0 -15 15 -24q8 -7 12 -13t4 -17q0 -21 -15.5 -34.5t-37.5 -13.5q-25 0 -33 16t-8 33q0 37 32.5 89t107.5 126l-80 326q-4 18 -11.5 25.5t-21.5 7.5q-10 0 -25 -3l-5 29
q23 10 49.5 18t43.5 8q19 0 30.5 -12.5t18.5 -45.5l64 -290q60 68 95.5 125t35.5 110q0 16 -5.5 20t-27.5 6q-13 1 -20.5 12.5t-7.5 29.5q0 48 54 48q63 0 63 -67zM99 500q0 4 27 25q7 6 25 21t34 30l50 48q27 25 34 25q3 0 10.5 -7t15.5 -18l36 -48q19 -25 49 -55
q16 -16 16 -20q0 -3 -3 -5.5t-10 -2.5q-10 0 -27 12l-97 73l-120 -73q-22 -12 -29 -12q-11 0 -11 7z" />
    <glyph glyph-name="ydieresis.ss01" horiz-adv-x="412" 
d="M11 0zM404 362q0 -64 -52 -151.5t-126 -169.5q-17 -19 -52 -54q-52 -55 -74.5 -83.5t-22.5 -50.5q0 -15 15 -24q8 -7 12 -13t4 -17q0 -21 -15.5 -34.5t-37.5 -13.5q-25 0 -33 16t-8 33q0 37 32.5 89t107.5 126l-80 326q-4 18 -11.5 25.5t-21.5 7.5q-10 0 -25 -3l-5 29
q23 10 49.5 18t43.5 8q19 0 30.5 -12.5t18.5 -45.5l64 -290q60 68 95.5 125t35.5 110q0 16 -5.5 20t-27.5 6q-13 1 -20.5 12.5t-7.5 29.5q0 48 54 48q63 0 63 -67zM215.5 632q12.5 -11 12.5 -30q0 -25 -17 -39.5t-44 -14.5q-21 0 -34.5 11t-13.5 30q0 24 18 39t44 15
q22 0 34.5 -11zM389.5 632q12.5 -11 12.5 -30q0 -25 -17 -39.5t-44 -14.5q-21 0 -34.5 11t-13.5 30q0 24 18 39t44 15q22 0 34.5 -11z" />
    <glyph glyph-name="ygrave.ss01" horiz-adv-x="412" 
d="M11 0zM404 362q0 -64 -52 -151.5t-126 -169.5q-17 -19 -52 -54q-52 -55 -74.5 -83.5t-22.5 -50.5q0 -15 15 -24q8 -7 12 -13t4 -17q0 -21 -15.5 -34.5t-37.5 -13.5q-25 0 -33 16t-8 33q0 37 32.5 89t107.5 126l-80 326q-4 18 -11.5 25.5t-21.5 7.5q-10 0 -25 -3l-5 29
q23 10 49.5 18t43.5 8q19 0 30.5 -12.5t18.5 -45.5l64 -290q60 68 95.5 125t35.5 110q0 16 -5.5 20t-27.5 6q-13 1 -20.5 12.5t-7.5 29.5q0 48 54 48q63 0 63 -67zM206.5 650q4.5 -3 9 -9.5t6.5 -8.5l82 -114q9 -14 9 -17q0 -8 -17 -8q-9 0 -18 9l-139 113q-6 6 -6 11
q0 7 21 17t39 10q9 0 13.5 -3z" />
    <glyph glyph-name="f.ss02" horiz-adv-x="284" 
d="M445.5 675q27.5 -26 27.5 -65q-34 0 -45 6.5t-11 31.5q0 13 -10.5 19t-37.5 6q-136 0 -160 -219l-4 -34h105v-15l-29 -16h-79l-32 -287q-39 -347 -207 -347q-41 0 -70 18.5t-29 48.5q0 18 11.5 31t33.5 13q15 0 26 -6.5t11 -21.5q0 -6 -3 -16t-3 -15q0 -12 8.5 -18.5
t22.5 -6.5q31 0 51 31t33 93t25 166l35 317h-86l27 31h63l2 20q8 74 40.5 133t86.5 93.5t126 34.5q44 0 71.5 -26z" />
    <glyph glyph-name="f.ss03" horiz-adv-x="284" 
d="M446 674.5q27 -25.5 27 -65.5q-25 0 -37 3.5t-15.5 12t-3.5 27.5q0 10 -11.5 15.5t-42.5 5.5q-56 0 -98.5 -49.5t-58.5 -169.5l-4 -34h108v-15l-29 -16h-84l-78 -598l-82 -30q26 169 75 574l6 54h-89l27 31h66q21 128 82.5 204t163.5 76q51 0 78 -25.5z" />
    <glyph glyph-name="f.ss04" horiz-adv-x="284" 
d="M402.5 704q30.5 -26 30.5 -65q0 -22 -11.5 -36.5t-35.5 -14.5q-36 0 -36 29q0 7 4 21q5 12 5 25q0 17 -9 28.5t-31 11.5q-40 0 -67.5 -55t-45.5 -194l-4 -34h108v-15l-29 -16h-84l-78 -598l-82 -30q26 169 75 574l6 54h-89l27 31h66q17 141 68.5 225.5t133.5 84.5
q48 0 78.5 -26z" />
    <glyph glyph-name="f.ss05" horiz-adv-x="284" 
d="M356 706.5q28 -23.5 28 -57.5q0 -18 -11.5 -29.5t-35.5 -11.5q-36 0 -36 29q0 6 4.5 17t4.5 19q0 30 -32 30q-23 0 -38 -42q-18 -51 -34 -184l-7 -57h111v-15l-29 -16h-86l-73 -598l-85 -30q35 230 79 628h-87l27 31h63l3 23q14 129 55.5 208t105.5 79q45 0 73 -23.5z
" />
    <glyph glyph-name="f.ss06" horiz-adv-x="284" 
d="M437 684q36 -26 36 -65q0 -22 -11.5 -36.5t-35.5 -14.5q-36 0 -36 29q0 7 4 21q5 12 5 25q0 17 -13.5 28.5t-46.5 11.5q-47 0 -79.5 -50.5t-50.5 -178.5l-4 -34h165v-15l-29 -16h-139l-32 -287q-39 -347 -207 -347q-41 0 -70 18.5t-29 48.5q0 18 11.5 31t33.5 13
q15 0 26 -6.5t11 -21.5q0 -6 -3 -16t-3 -15q0 -12 8.5 -18.5t22.5 -6.5q31 0 51 31t33 93t25 166l35 317h-86l27 31h63l2 20q16 119 73 194.5t150 75.5q57 0 93 -26z" />
    <glyph glyph-name="f.ss07" horiz-adv-x="284" 
d="M437 684q36 -26 36 -65q0 -22 -11.5 -36.5t-35.5 -14.5q-36 0 -36 29q0 7 4 21q5 12 5 25q0 17 -13.5 28.5t-46.5 11.5q-47 0 -79.5 -50.5t-50.5 -178.5l-5 -34h166v-15l-29 -16h-141l-60 -445l-80 -30q30 208 59 475h-90l27 31h67l2 20q9 78 40 139.5t77.5 96
t101.5 34.5q57 0 93 -26z" />
    <glyph glyph-name="fl" unicode="&#xfb02;" horiz-adv-x="520" 
d="M451.5 70q11.5 3 22.5 10l12 -20q-31 -33 -63.5 -51.5t-56.5 -18.5q-18 0 -28.5 11.5t-10.5 34.5q0 27 33 243l13 91q34 229 34 281q0 14 -12 20q-14 2 -26 2q-136 0 -160 -219l-4 -34h105v-15l-29 -16h-79l-32 -287q-39 -347 -207 -347q-41 0 -70 18.5t-29 48.5
q0 18 11.5 31t33.5 13q15 0 26 -6.5t11 -21.5q0 -6 -3 -16t-3 -15q0 -12 8.5 -18.5t22.5 -6.5q31 0 51 31t33 93t25 166l35 317h-86l27 31h63l2 20q12 106 71.5 178.5t155.5 81.5q63 30 119 30q16 0 24.5 -4.5t8.5 -17.5q0 -15 -13 -87l-14 -82q-22 -136 -39.5 -263
t-19.5 -182q0 -12 3.5 -19.5t15.5 -7.5q7 0 18.5 3z" />
    <glyph glyph-name="f_j.ss01" horiz-adv-x="528" 
d="M482.5 687q35.5 -14 35.5 -48q0 -25 -17 -39.5t-44 -14.5q-21 0 -34.5 11t-13.5 30q0 24 -11 35.5t-40 11.5q-55 0 -94 -48.5t-56 -170.5l-5 -34h106v-15l-29 -16h-81l-81 -598l-82 -30q44 310 81 628h-89l27 31h66q0 6 2 20q9 74 41.5 133t88 93.5t130.5 34.5
q64 0 99.5 -14zM468 421.5q8 -4.5 8 -18.5q-8 -48 -30 -192.5t-29 -199.5q-17 -126 -57 -191t-114 -65q-41 0 -70 18.5t-29 48.5q0 18 11.5 31t33.5 13q15 0 26 -6.5t11 -21.5q0 -6 -3 -16t-3 -15q0 -12 8.5 -18.5t21.5 -6.5q27 0 43 30.5t26.5 86.5t26.5 173l21 153
q13 96 13 117q0 31 -30 31q-9 0 -17 -2l-5 29q63 26 114 26q15 0 23 -4.5z" />
    <glyph glyph-name="fi.ss01" horiz-adv-x="546" 
d="M482.5 687q35.5 -14 35.5 -48q0 -25 -17 -39.5t-44 -14.5q-21 0 -34.5 11t-13.5 30q0 24 -11 35.5t-40 11.5q-55 0 -94 -48.5t-56 -170.5l-5 -34h106v-15l-29 -16h-81l-81 -598l-82 -30q44 310 81 628h-89l27 31h66q0 6 2 20q9 74 41.5 133t88 93.5t130.5 34.5
q64 0 99.5 -14zM487 80l12 -20q-32 -33 -60.5 -51.5t-50.5 -18.5q-18 0 -28 11.5t-10 34.5q0 17 6 57.5t8 53.5l12 76q13 87 13 124q0 14 -9 20t-22 6q-8 0 -16 -2l-5 29q63 26 114 26q15 0 23 -4.5t8 -17.5q0 -8 -12 -70q-19 -99 -20 -104q-16 -91 -16 -136q0 -27 17 -27
q16 0 36 13z" />
    <glyph glyph-name="ordfeminine" unicode="&#xaa;" horiz-adv-x="255" 
d="M69 479q41 26 132 26l3 23q3 21 3 28q0 36 -42 36t-42 -30q0 -33 -35 -33q-28 0 -28 26q0 28 27.5 44t80.5 16q51 0 74.5 -17t23.5 -54q0 -13 -2 -25l-20 -139q-1 -7 3 -7l31 1l-4 -24h-94l7 37q-29 -45 -86 -45q-73 0 -73 58q0 53 41 79zM100.5 381.5
q7.5 -8.5 20.5 -8.5q25 0 46.5 24.5t26.5 59.5l4 25q-55 0 -80 -18.5t-25 -56.5q0 -17 7.5 -25.5z" />
    <glyph glyph-name="ordmasculine" unicode="&#xba;" horiz-adv-x="339" 
d="M118 574.5q41 43.5 108 43.5q52 0 81.5 -30t29.5 -84q0 -73 -40 -116.5t-110 -43.5q-55 0 -82.5 31.5t-27.5 82.5q0 73 41 116.5zM156.5 383q10.5 -15 34.5 -15q36 0 56 32t20 127q0 36 -10 51.5t-35 15.5q-36 0 -56 -35.5t-20 -126.5q0 -34 10.5 -49z" />
    <glyph glyph-name="uni0394" unicode="&#x394;" horiz-adv-x="583" 
d="M355 607l160 -607h-519l331 607h28zM408 28l-118 456l-249 -456h367z" />
    <glyph glyph-name="uni03A9" unicode="&#x3a9;" horiz-adv-x="650" 
d="M546 75q23 19 34 65h33q-12 -38 -24 -82.5t-15 -61.5q-8 3 -36.5 3.5t-63.5 0.5h-118l-2 5q56 63 90 115t55.5 124t21.5 169q0 87 -35.5 127t-108.5 40q-111 0 -160.5 -75t-49.5 -238q0 -84 19 -145t53 -117l-2 -5h-118q-89 0 -102 -4q2 11 2 52q0 40 -2 92h33
q-1 -46 16.5 -65t59.5 -19h54q-37 49 -57.5 82t-34 74.5t-13.5 92.5q0 84 37.5 153t107 109t161.5 40q74 0 126.5 -29t79.5 -79t27 -114q0 -71 -20.5 -123t-54 -91t-98.5 -101l-15 -14h55q42 0 65 19z" />
    <glyph glyph-name="uni03BC" unicode="&#x3bc;" horiz-adv-x="493" 
d="M467 60q-34 -37 -66.5 -53.5t-58.5 -16.5q-14 0 -19 11t-5 35q0 28 17 143q-56 -103 -101.5 -146t-93.5 -43q-8 0 -20 2l-27 -187v-5q0 -6 3 -10t8 -4l45 1l-4 -26h-201l4 26l46 -1q5 1 9.5 6.5t5.5 12.5l82 572l1 7q0 12 -10 12l-36 -2l4 26h133l-43 -291h1
q-2 -12 -2 -30q0 -54 35 -54q28 0 64 39t67.5 97.5t46.5 110.5l18 119l92 17q-32 -165 -45 -239.5t-13 -104.5q0 -17 13 -17q18 0 38 13z" />
    <glyph glyph-name="pi" unicode="&#x3c0;" horiz-adv-x="589" 
d="M608 458q-23 -51 -27 -86l-3 -19q-12 2 -30 2h-76l-15 -77q-17 -85 -24 -128t-7 -71q0 -56 27 -56q28 0 60 41l16 -14q-22 -31 -44.5 -43.5t-57.5 -12.5q-49 0 -68 23t-19 62t12 92t35 142q7 23 12 44l-31 1q-68 4 -111 5q-38 -149 -63 -219q-55 -154 -142 -154
q-19 0 -31.5 9.5t-12.5 30.5q0 23 13 38.5t32 15.5q11 0 25 -6q2 -1 9 -3t13 -2q20 0 35.5 24t24.5 56l21 70q31 104 40 142h-18q-43 0 -74 -12.5t-56 -43.5l-18 13q65 108 171 108q62 0 182 -6q94 -4 117 -4t34.5 9t23.5 34z" />
    <glyph glyph-name="zero" unicode="0" horiz-adv-x="538" 
d="M471.5 547q54.5 -60 54.5 -174q0 -89 -29 -176.5t-94 -147t-166 -59.5q-95 0 -148 59.5t-53 171.5q0 90 29 178.5t93.5 148t164.5 59.5q94 0 148.5 -60zM121 180q0 -89 30 -124.5t90 -35.5q77 0 123.5 62t68.5 216q9 69 9 117q0 91 -30.5 128t-91.5 37q-75 0 -121 -64
t-68 -218q-10 -77 -10 -118z" />
    <glyph glyph-name="one" unicode="1" horiz-adv-x="388" 
d="M219 43v-5q0 -15 16 -15l65 1l-3 -24h-248l3 24l66 -1q21 0 24 20l63 454v4q0 8 -5 11.5t-13 -0.5l-79 -33l-3 34q61 17 126 63q24 17 51 41h17z" />
    <glyph glyph-name="two" unicode="2" horiz-adv-x="506" 
d="M369 87.5q30 21.5 44 77.5h36q-41 -129 -49 -168q-9 3 -53 3h-327l4 45l132 111q82 69 128.5 120.5t68 100t21.5 104.5q0 48 -23.5 73.5t-67.5 25.5q-53 0 -79.5 -25t-26.5 -61q0 -8 2.5 -20.5t2.5 -19.5q0 -19 -14.5 -30.5t-37.5 -11.5q-21 0 -32 13t-11 38q0 32 21 65
t67.5 56t118.5 23q76 0 122.5 -35.5t46.5 -93.5q0 -46 -15.5 -85.5t-64.5 -93t-147 -131.5l-130 -102h177q56 0 86 21.5z" />
    <glyph glyph-name="three" unicode="3" horiz-adv-x="499" 
d="M234 318q224 -6 224 -133q0 -58 -32 -102t-89.5 -68.5t-133.5 -24.5q-54 0 -95.5 15.5t-64 41.5t-22.5 57q0 27 15 44t42 17q20 0 31 -9.5t11 -24.5q0 -13 -9 -29q-9 -20 -9 -32q0 -25 27.5 -39t68.5 -14q54 0 92.5 24t58 61.5t19.5 78.5q0 55 -47 84.5t-148 33.5l4 28
q51 7 96.5 31t73.5 62t28 85q0 34 -24.5 54.5t-65.5 20.5q-44 0 -76 -19t-32 -49q0 -6 3 -16.5t3 -17.5q0 -23 -16.5 -34.5t-37.5 -11.5q-22 0 -32.5 11t-10.5 30q0 36 29 67t78.5 49t107.5 18q74 0 118.5 -29t44.5 -77q0 -47 -32.5 -85.5t-85 -63t-112.5 -32.5v-2z" />
    <glyph glyph-name="four" unicode="4" horiz-adv-x="470" 
d="M366 224h80l-10 -69h-80l-15 -112v-5q0 -15 16 -15l46 1l-3 -24h-228l3 24l67 -1q18 0 21 20l15 112h-269l9 60q20 16 34 30l33 31l265 278l20 22l24 28h25zM325 488l-251 -264h214z" />
    <glyph glyph-name="five" unicode="5" horiz-adv-x="492" 
d="M162 531l-40 -200q30 22 73 36.5t80 14.5q82 0 129.5 -40.5t47.5 -117.5q0 -56 -28 -110t-84.5 -89t-136.5 -35q-71 0 -124.5 32t-53.5 90q0 31 15.5 48t43.5 17q17 0 28.5 -9.5t11.5 -26.5q0 -14 -10 -30q-9 -18 -9 -29q0 -33 30.5 -49t72.5 -16q53 0 87.5 34.5t50 82
t15.5 86.5q0 56 -32 88.5t-88 32.5q-39 0 -75 -15t-58 -38h-27l58 309h264q42 0 84 3q-13 -21 -24 -69h-301z" />
    <glyph glyph-name="six" unicode="6" horiz-adv-x="487" 
d="M414 355q44 -44 44 -117q0 -74 -30 -130.5t-84 -87.5t-125 -31q-83 0 -126.5 51t-43.5 149q0 124 36 219t102 147t152 52q36 0 66 -12.5t48 -33.5t18 -45t-16.5 -41.5t-44.5 -17.5q-18 0 -29 8t-11 23q0 11 7 23q7 14 7 25q0 19 -16.5 31t-43.5 12q-67 0 -113.5 -74.5
t-62.5 -187.5q24 38 61.5 60t88.5 22q72 0 116 -44zM340.5 88q31.5 74 31.5 158q0 55 -21 90.5t-71 35.5q-54 0 -88.5 -36.5t-50 -88t-15.5 -96.5q0 -60 26 -98.5t80 -38.5q77 0 108.5 74z" />
    <glyph glyph-name="seven" unicode="7" horiz-adv-x="428" 
d="M472 597l-2 -42q-247 -238 -265 -555h-94q14 86 41 165t88.5 171.5t166.5 193.5h-207q-44 0 -66 -13.5t-31 -44.5h-36q10 33 20.5 74t12.5 54q13 -3 119 -3h253z" />
    <glyph glyph-name="eight" unicode="8" horiz-adv-x="494" 
d="M424 255q33 -34 33 -82q0 -54 -31.5 -95.5t-89 -64.5t-132.5 -23q-80 0 -129.5 33t-49.5 88q0 64 49 116t123 78q-49 31 -74.5 61.5t-25.5 71.5q0 50 28 88.5t79 59.5t118 21q74 0 119.5 -31t45.5 -82q0 -54 -44 -102t-114 -65q62 -38 95 -72zM230 550q-37 -30 -37 -80
q0 -40 28.5 -67.5t85.5 -62.5q60 26 89 66t29 90q0 38 -27.5 61t-72.5 23q-58 0 -95 -30zM316.5 49q41.5 32 41.5 89q0 34 -20 61.5t-47.5 47t-70.5 44.5q-52 -24 -90 -73t-38 -101q0 -45 33 -72.5t88 -27.5q62 0 103.5 32z" />
    <glyph glyph-name="nine" unicode="9" horiz-adv-x="487" 
d="M419.5 556q43.5 -51 43.5 -149q0 -124 -36 -219t-102 -147t-152 -52q-36 0 -66 12.5t-48 33.5t-18 45t16.5 41.5t44.5 17.5q18 0 29 -8t11 -23q0 -11 -7 -23q-7 -14 -7 -25q0 -19 16.5 -31t43.5 -12q67 0 113.5 74.5t62.5 187.5q-24 -38 -61.5 -60t-88.5 -22
q-72 0 -116 44t-44 117q0 74 30 130.5t84 87.5t125 31q83 0 126.5 -51zM320.5 260.5q34.5 36.5 50 88t15.5 96.5q0 60 -26 98.5t-80 38.5q-77 0 -108.5 -74t-31.5 -158q0 -55 21 -90.5t71 -35.5q54 0 88.5 36.5z" />
    <glyph glyph-name="uni00B9" unicode="&#xb9;" horiz-adv-x="192" 
d="M166 439l-1 -5q0 -13 11 -13l30 1l-3 -18h-153l3 18l41 -1q9 0 12 18l23 165v3q0 9 -6 9q-3 0 -17 -5t-22 -8l-1 26q24 6 44 19t46 35h27z" />
    <glyph glyph-name="uni00B2" unicode="&#xb2;" horiz-adv-x="262" 
d="M240.5 459.5q13.5 5.5 18.5 20.5h20q-8 -19 -14 -44t-7 -35q-8 2 -31 2h-171l4 44l64 46q43 31 63.5 53t26.5 39t6 41q0 34 -32 34q-19 0 -27 -8t-8 -18q0 -5 1 -12.5t0 -12.5q-2 -12 -13 -19t-26 -7q-17 0 -25 8.5t-8 22.5q0 26 31 45t80 19q45 0 73 -16t28 -46
q0 -22 -8.5 -38t-36 -37t-84.5 -53l-61 -34h95q28 0 41.5 5.5z" />
    <glyph glyph-name="uni00B3" unicode="&#xb3;" horiz-adv-x="251" 
d="M257.5 664.5q27.5 -13.5 27.5 -38.5q0 -31 -31 -51t-77 -25l-1 -3q52 -1 79.5 -16t27.5 -43q0 -40 -41 -65.5t-101 -25.5q-43 0 -70.5 14t-27.5 37q0 16 11.5 27t31.5 11q14 0 22 -6t8 -17q0 -4 -3.5 -14t-3.5 -13q0 -10 10 -15t24 -5q29 0 47 20t18 50q0 24 -21.5 35
t-73.5 16l2 16q41 0 68 24t27 53q0 13 -8.5 21.5t-23.5 8.5q-16 0 -25 -7.5t-9 -17.5l1 -15q0 -15 -11.5 -22.5t-27.5 -7.5t-24 8t-8 20q0 28 34.5 44t79.5 16q42 0 69.5 -13.5z" />
    <glyph glyph-name="fraction" unicode="&#x2044;" horiz-adv-x="124" 
d="M325 607l32 -21l-487 -591l-31 24z" />
    <glyph glyph-name="onehalf" unicode="&#xbd;" horiz-adv-x="615" 
d="M33 0zM519 607l32 -21l-487 -591l-31 24zM185 368l-1 -5q0 -13 11 -13l30 1l-3 -18h-153l3 18l41 -1q9 0 12 18l23 165v3q0 9 -6 9q-3 0 -17 -5t-22 -8l-1 26q24 6 44 19t46 35h27zM532.5 56.5q13.5 5.5 18.5 20.5h20q-8 -19 -14 -44t-7 -35q-8 2 -31 2h-171l4 44l64 46
q43 31 63.5 53t26.5 39t6 41q0 34 -32 34q-19 0 -27 -8t-8 -18q0 -5 1 -12.5t0 -12.5q-2 -12 -13 -19t-26 -7q-17 0 -25 8.5t-8 22.5q0 26 31 45t80 19q45 0 73 -16t28 -46q0 -22 -8.5 -38t-36 -37t-84.5 -53l-61 -34h95q28 0 41.5 5.5z" />
    <glyph glyph-name="onequarter" unicode="&#xbc;" horiz-adv-x="559" 
d="M222 333h-153l3 18l41 -1q9 0 12 18l23 165v3q0 9 -6 9q-3 0 -17 -5t-22 -8l-1 26q24 6 44 19t46 35h27l-34 -244l-1 -5q0 -13 11 -13l30 1zM519 607l32 -21l-487 -591l-31 24zM478 102h36l-5 -37h-36l-5 -35v-2q0 -7 8 -7h20l-3 -21h-140l3 21h33q9 0 10 9l5 35h-127
l5 33l187 176h33zM319 102h90l14 96z" />
    <glyph glyph-name="threequarters" unicode="&#xbe;" horiz-adv-x="559" 
d="M529 607l32 -21l-487 -591l-31 24zM84.5 340q-27.5 14 -27.5 37q0 16 11.5 27t31.5 11q14 0 22 -6t8 -17q0 -4 -3.5 -14t-3.5 -13q0 -10 10 -15t24 -5q29 0 47 20t18 50q0 24 -21.5 35t-73.5 16l2 16q41 0 68 24t27 53q0 13 -8.5 21.5t-23.5 8.5q-16 0 -25 -7.5t-9 -17.5
l1 -15q0 -15 -11.5 -22.5t-27.5 -7.5t-24 8t-8 20q0 28 34.5 44t79.5 16q42 0 69.5 -13.5t27.5 -38.5q0 -31 -31 -51t-77 -25l-1 -3q52 -1 79.5 -16t27.5 -43q0 -40 -41 -65.5t-101 -25.5q-43 0 -70.5 14zM478 102h36l-5 -37h-36l-5 -35v-2q0 -7 8 -7h20l-3 -21h-140l3 21
h33q9 0 10 9l5 35h-127l5 33l187 176h33zM319 102h90l14 96z" />
    <glyph glyph-name="asterisk" unicode="*" horiz-adv-x="327" 
d="M298 617q15 -13 15 -22q0 -11 -9 -21t-19 -10q-13 0 -27 -18t-20 -35q8 -5 25 -5q15 0 22 3.5t12 10.5q5 5 9 7.5t12 2.5q17 0 23.5 -6t6.5 -21q0 -28 -9.5 -38.5t-30.5 -10.5q-7 0 -10.5 2.5t-6.5 7.5q-5 7 -11 10.5t-21 3.5q-16 0 -26 -5q-1 -11 6.5 -28t13.5 -21
q4 -2 12.5 -4t13.5 -7t5 -17t-19 -27t-35 -15q-7 0 -15 7.5t-8 18.5q0 4 3.5 12.5t3.5 14.5q0 10 -5.5 24.5t-11.5 20.5q-12 -9 -21.5 -25t-9.5 -25q0 -6 1 -10.5t1 -7.5q0 -13 -11.5 -21.5t-19.5 -8.5q-14 0 -29 12t-15 23q0 14 9 23t19 9q13 0 27.5 19t16.5 33q-5 5 -23 5
q-15 0 -22 -3.5t-13 -10.5q-4 -5 -8 -7.5t-12 -2.5q-17 0 -23.5 6t-6.5 21q0 28 9.5 38.5t30.5 10.5q7 0 10.5 -2.5t6.5 -7.5q5 -7 11 -10.5t21 -3.5t25 5q2 15 -4 32t-17 18q-15 1 -22 9.5t-7 18.5q0 14 19 27.5t35 13.5q7 0 15.5 -7.5t8.5 -18.5q0 -5 -4.5 -13t-4.5 -14
q0 -9 5.5 -24t12.5 -21q11 7 21 24t10 27q0 6 -1 9.5t-1 6.5q0 13 12 22t20 9q14 0 29 -13z" />
    <glyph glyph-name="backslash" unicode="\" horiz-adv-x="242" 
d="M91 636l124 -629l-44 -12l-121 632z" />
    <glyph glyph-name="periodcentered" unicode="&#xb7;" horiz-adv-x="244" 
d="M76.5 223.5q20.5 18.5 50.5 18.5q24 0 39 -13.5t15 -36.5q0 -29 -20.5 -47t-49.5 -18q-25 0 -40 13.5t-15 35.5q0 29 20.5 47.5z" />
    <glyph glyph-name="bullet" unicode="&#x2022;" horiz-adv-x="452" 
d="M123.5 299q19.5 30 52.5 47t71 17q48 0 78 -28.5t30 -73.5q0 -37 -19.5 -66.5t-52 -46.5t-69.5 -17q-50 0 -80 28t-30 73q0 37 19.5 67z" />
    <glyph glyph-name="colon" unicode=":" horiz-adv-x="244" 
d="M34 0zM54.5 86.5q20.5 18.5 50.5 18.5q24 0 39 -13.5t15 -36.5q0 -29 -20.5 -47t-49.5 -18q-25 0 -40 13.5t-15 35.5q0 29 20.5 47.5zM99.5 384.5q20.5 18.5 50.5 18.5q24 0 39 -13.5t15 -36.5q0 -29 -20.5 -47t-49.5 -18q-25 0 -40 13.5t-15 35.5q0 29 20.5 47.5z" />
    <glyph glyph-name="comma" unicode="," horiz-adv-x="243" 
d="M142 75q15 -17 15 -48q0 -55 -41 -104.5t-92 -82.5l-17 12q30 27 56 62t26 58q0 24 -29 24q-15 0 -21.5 10t-6.5 24q0 25 20.5 43.5t45.5 18.5q29 0 44 -17z" />
    <glyph glyph-name="ellipsis" unicode="&#x2026;" horiz-adv-x="684" 
d="M37 0zM57.5 86.5q20.5 18.5 50.5 18.5q24 0 39 -13.5t15 -36.5q0 -29 -20.5 -47t-49.5 -18q-25 0 -40 13.5t-15 35.5q0 29 20.5 47.5zM277.5 86.5q20.5 18.5 50.5 18.5q24 0 39 -13.5t15 -36.5q0 -29 -20.5 -47t-49.5 -18q-25 0 -40 13.5t-15 35.5q0 29 20.5 47.5z
M497.5 86.5q20.5 18.5 50.5 18.5q24 0 39 -13.5t15 -36.5q0 -29 -20.5 -47t-49.5 -18q-25 0 -40 13.5t-15 35.5q0 29 20.5 47.5z" />
    <glyph glyph-name="exclam" unicode="!" horiz-adv-x="263" 
d="M233.5 626.5q11.5 -10.5 11.5 -29.5q0 -13 -4.5 -33.5t-10.5 -43.5l-25 -92q-36 -136 -45 -211q-1 -16 -13 -16q-11 0 -11 9q1 14 4.5 58t4.5 68l-1 92l-1 92q-1 38 2 68q3 23 17.5 36t37.5 13q22 0 33.5 -10.5zM85 86.5q22 18.5 52 18.5q24 0 39.5 -15t15.5 -37
q0 -25 -22.5 -44t-49.5 -19q-23 0 -40 15t-17 37q0 26 22 44.5z" />
    <glyph glyph-name="exclamdown" unicode="&#xa1;" horiz-adv-x="262" 
d="M183.5 430q16.5 -15 16.5 -36q0 -26 -21 -45t-50 -19q-25 0 -41.5 14.5t-16.5 36.5q0 25 22 44.5t49 19.5q25 0 41.5 -15zM124.5 231q1.5 -3 1.5 -13l-3 -38q-1 -14 -5.5 -80.5t-3.5 -133.5q3 -63 3 -105q0 -52 -10.5 -77.5t-48.5 -25.5q-42 0 -44 39q0 16 10.5 63.5
t28.5 105.5q17 64 30.5 136.5t19.5 115.5q1 16 14 16q6 0 7.5 -3z" />
    <glyph glyph-name="numbersign" unicode="#" horiz-adv-x="489" 
d="M491 639l-84 -194h97l-15 -40h-99l-73 -171h98l-18 -40h-97l-88 -203h-42l88 203h-107l-88 -203h-41l87 203h-95l17 40h95l74 171h-96l15 40h97l85 194h41l-85 -194h108l84 194h42zM349 405h-107l-74 -171h108z" />
    <glyph glyph-name="period" unicode="." horiz-adv-x="240" 
d="M54.5 86.5q20.5 18.5 50.5 18.5q24 0 39 -13.5t15 -36.5q0 -29 -20.5 -47t-49.5 -18q-25 0 -40 13.5t-15 35.5q0 29 20.5 47.5z" />
    <glyph glyph-name="question" unicode="?" horiz-adv-x="392" 
d="M173.5 239.5q-21.5 15.5 -36.5 37.5t-15 44q0 26 22.5 52t70.5 69q51 46 76.5 76.5t25.5 61.5q0 27 -21.5 45t-61.5 18q-34 0 -59.5 -12t-25.5 -34q0 -6 2.5 -14t2.5 -13q0 -17 -12 -24.5t-29 -7.5q-21 0 -31 12t-10 29q0 43 55 67t126 24q70 0 111.5 -26t41.5 -72
q0 -42 -28.5 -73.5t-83.5 -71.5q-50 -36 -75.5 -63.5t-25.5 -62.5q0 -42 36 -63l-15 -19q-19 5 -40.5 20.5zM105.5 3q-17.5 13 -17.5 36q0 26 21.5 46t51.5 20q24 0 41 -13t17 -37q0 -29 -22 -47t-51 -18q-23 0 -40.5 13z" />
    <glyph glyph-name="questiondown" unicode="&#xbf;" horiz-adv-x="389" 
d="M286.5 432q17.5 -13 17.5 -36q0 -26 -21.5 -46t-51.5 -20q-24 0 -41 13t-17 37q0 29 22 47t51 18q23 0 40.5 -13zM218.5 195.5q21.5 -15.5 36.5 -37.5t15 -44q0 -26 -22.5 -52t-70.5 -69q-51 -46 -76.5 -76.5t-25.5 -61.5q0 -27 21.5 -45t61.5 -18q34 0 59.5 12t25.5 34
q0 6 -2.5 14t-2.5 13q0 17 12 24.5t29 7.5q21 0 31 -12t10 -29q0 -43 -55 -67t-126 -24q-70 0 -111.5 26t-41.5 72q0 42 28.5 73.5t83.5 71.5q50 36 75.5 63.5t25.5 62.5q0 42 -36 63l15 19q19 -5 40.5 -20.5z" />
    <glyph glyph-name="quotedbl" unicode="&#x22;" horiz-adv-x="247" 
d="M84 409zM101 629q12 11 28 11q27 0 27 -33q0 -13 -21 -91l-22 -93q-3 -14 -17 -14q-6 0 -9.5 5t-2.5 12l1 23l2 70q0 27 2 81q0 18 12 29zM214 629q12 11 28 11q27 0 27 -33q0 -13 -21 -91l-22 -93q-3 -14 -17 -14q-6 0 -9.5 5t-2.5 12l1 23l2 70q0 27 2 81q0 18 12 29z
" />
    <glyph glyph-name="quotesingle" unicode="'" horiz-adv-x="132" 
d="M99 629q12 11 28 11q27 0 27 -33q0 -13 -21 -91l-22 -93q-3 -14 -17 -14q-6 0 -9.5 5t-2.5 12l1 23l2 70q0 27 2 81q0 18 12 29z" />
    <glyph glyph-name="semicolon" unicode=";" horiz-adv-x="243" 
d="M19 0zM154 75q15 -17 15 -48q0 -55 -41 -104.5t-92 -82.5l-17 12q30 27 56 62t26 58q0 24 -29 24q-15 0 -21.5 10t-6.5 24q0 25 20.5 43.5t45.5 18.5q29 0 44 -17zM86.5 384.5q20.5 18.5 50.5 18.5q24 0 39 -13.5t15 -36.5q0 -29 -20.5 -47t-49.5 -18q-25 0 -40 13.5
t-15 35.5q0 29 20.5 47.5z" />
    <glyph glyph-name="slash" unicode="/" horiz-adv-x="241" 
d="M265 636l39 -9l-300 -632l-38 12z" />
    <glyph glyph-name="underscore" unicode="_" horiz-adv-x="503" 
d="M453 -143l-6 -40h-503l6 40h503z" />
    <glyph glyph-name="braceleft" unicode="{" horiz-adv-x="273" 
d="M291 645h-28q-36 0 -44 -56l-33 -231q-7 -45 -29 -63t-78 -28q47 -11 65.5 -24.5t18.5 -43.5q0 -22 -19 -140q-18 -122 -18 -137q0 -38 30 -38h28l-5 -30h-35q-49 0 -68 13t-19 47q0 18 18 136q20 128 20 155q0 25 -12 34t-48 18l3 20q39 6 57 24t23 57l32 224
q7 54 30.5 73.5t79.5 19.5h35z" />
    <glyph glyph-name="braceright" unicode="}" horiz-adv-x="283" 
d="M7 -116h28q36 0 44 56l33 231q7 45 29 63t78 28q-47 11 -65.5 24.5t-18.5 43.5q0 22 19 140q18 122 18 137q0 38 -30 38h-28l5 30h35q49 0 68 -13t19 -47q0 -18 -18 -136q-20 -128 -20 -155q0 -25 12 -34t48 -18l-3 -20q-39 -6 -57 -24t-23 -57l-32 -224
q-7 -54 -30.5 -73.5t-79.5 -19.5h-35z" />
    <glyph glyph-name="bracketleft" unicode="[" horiz-adv-x="250" 
d="M283 675l-4 -27h-101l-108 -768h101l-4 -27h-174l116 822h174z" />
    <glyph glyph-name="bracketright" unicode="]" horiz-adv-x="250" 
d="M-18 -147l4 27h101l108 768h-101l4 27h174l-116 -822h-174z" />
    <glyph glyph-name="parenleft" unicode="(" horiz-adv-x="248" 
d="M83 450.5q68 133.5 191 260.5h44q-58 -64 -106.5 -163t-76 -205.5t-27.5 -193.5q0 -102 20 -211t58 -169h-44q-60 87 -93.5 190t-33.5 210q0 148 68 281.5z" />
    <glyph glyph-name="parenright" unicode=")" horiz-adv-x="248" 
d="M172 29.5q-68 -133.5 -191 -260.5h-44q58 64 106.5 163t76 205.5t27.5 193.5q0 102 -20 211t-58 169h44q60 -87 93.5 -190t33.5 -210q0 -148 -68 -281.5z" />
    <glyph glyph-name="emdash" unicode="&#x2014;" horiz-adv-x="810" 
d="M812 230l-5 -39h-810l5 39h810z" />
    <glyph glyph-name="endash" unicode="&#x2013;" horiz-adv-x="484" 
d="M469 230l-5 -39h-450l5 39h450z" />
    <glyph glyph-name="hyphen" unicode="-" horiz-adv-x="253" 
d="M238 244l-8 -55h-212l8 55h212z" />
    <glyph glyph-name="uni00AD" unicode="&#xad;" horiz-adv-x="253" 
d="M18 189zM238 244l-8 -55h-212l8 55h212z" />
    <glyph glyph-name="guillemotleft" unicode="&#xab;" horiz-adv-x="441" 
d="M20 16zM392 358l-118 -171l70 -171h-37l-119 171l167 171h37zM224 358l-118 -171l70 -171h-37l-119 171l167 171h37z" />
    <glyph glyph-name="guillemotright" unicode="&#xbb;" horiz-adv-x="441" 
d="M27 16l118 171l-70 171h37l119 -171l-167 -171h-37zM195 16l118 171l-70 171h37l119 -171l-167 -171h-37z" />
    <glyph glyph-name="guilsinglleft" unicode="&#x2039;" horiz-adv-x="219" 
d="M225 358l-118 -171l70 -171h-37l-119 171l167 171h37z" />
    <glyph glyph-name="guilsinglright" unicode="&#x203a;" horiz-adv-x="218" 
d="M-14 16l118 171l-70 171h37l119 -171l-167 -171h-37z" />
    <glyph glyph-name="quotedblbase" unicode="&#x201e;" horiz-adv-x="445" 
d="M47 0zM182 75q15 -17 15 -49q0 -55 -41 -104t-92 -82l-17 12q30 27 56 62t26 58q0 24 -30 24q-14 0 -20.5 10t-6.5 24q0 25 20.5 43.5t45.5 18.5q29 0 44 -17zM362 75q15 -17 15 -49q0 -55 -41 -104t-92 -82l-17 12q30 27 56 62t26 58q0 24 -30 24q-14 0 -20.5 10
t-6.5 24q0 25 20.5 43.5t45.5 18.5q29 0 44 -17z" />
    <glyph glyph-name="quotedblleft" unicode="&#x201c;" horiz-adv-x="371" 
d="M87 411q-15 17 -15 49q0 55 41 104t92 82l17 -12q-30 -27 -56 -62t-26 -58q0 -24 30 -24q14 0 20.5 -10t6.5 -24q0 -25 -20.5 -43.5t-45.5 -18.5q-29 0 -44 17zM251 411q-15 17 -15 49q0 55 41 104t92 82l17 -12q-30 -27 -56 -62t-26 -58q0 -24 30 -24q14 0 20.5 -10
t6.5 -24q0 -25 -20.5 -43.5t-45.5 -18.5q-29 0 -44 17z" />
    <glyph glyph-name="quotedblright" unicode="&#x201d;" horiz-adv-x="382" 
d="M90 379zM225 614q15 -17 15 -49q0 -55 -41 -104t-92 -82l-17 12q30 27 56 62t26 58q0 24 -30 24q-14 0 -20.5 10t-6.5 24q0 25 20.5 43.5t45.5 18.5q29 0 44 -17zM389 614q15 -17 15 -49q0 -55 -41 -104t-92 -82l-17 12q30 27 56 62t26 58q0 24 -30 24q-14 0 -20.5 10
t-6.5 24q0 25 20.5 43.5t45.5 18.5q29 0 44 -17z" />
    <glyph glyph-name="quoteleft" unicode="&#x2018;" horiz-adv-x="218" 
d="M78 410q-15 17 -15 49q0 55 41 104t92 82l17 -12q-30 -27 -56 -62t-26 -58q0 -24 30 -24q14 0 20.5 -10t6.5 -24q0 -25 -20.5 -43.5t-45.5 -18.5q-29 0 -44 17z" />
    <glyph glyph-name="quoteright" unicode="&#x2019;" horiz-adv-x="214" 
d="M222 614q15 -17 15 -49q0 -55 -41 -104t-92 -82l-17 12q30 27 56 62t26 58q0 24 -30 24q-14 0 -20.5 10t-6.5 24q0 25 20.5 43.5t45.5 18.5q29 0 44 -17z" />
    <glyph glyph-name="quotesinglbase" unicode="&#x201a;" horiz-adv-x="256" 
d="M47 0zM182 75q15 -17 15 -49q0 -55 -41 -104t-92 -82l-17 12q30 27 56 62t26 58q0 24 -30 24q-14 0 -20.5 10t-6.5 24q0 25 20.5 43.5t45.5 18.5q29 0 44 -17z" />
    <glyph glyph-name="uni00A0" unicode="&#xa0;" horiz-adv-x="220" 
 />
    <glyph glyph-name="cent" unicode="&#xa2;" horiz-adv-x="382" 
d="M267.5 161.5q32.5 24.5 49.5 61.5l19 -14q-15 -36 -46 -61.5t-67 -30.5l-29 -212h-38l29 211q-128 7 -128 142q0 61 22.5 107.5t63 73t92.5 28.5l25 180h37l-26 -183q35 -7 56 -27t21 -45q0 -20 -13 -33.5t-29 -13.5q-31 0 -31 20q0 11 7 20q8 10 8 24q0 17 -16 26.5
t-39 9.5q-104 0 -104 -201q0 -53 18 -80t52 -27t66.5 24.5z" />
    <glyph glyph-name="currency" unicode="&#xa4;" horiz-adv-x="427" 
d="M389 284q0 -36 -14.5 -69.5t-40.5 -59.5l38 -48l-27 -24l-39 48q-52 -36 -109 -36t-97 38l-55 -49l-20 24l55 49q-26 38 -26 88q0 36 14.5 69.5t39.5 59.5l-38 47l26 24l40 -47q51 38 109 38q60 0 100 -40l52 48l20 -24l-53 -47q25 -41 25 -89zM276.5 148.5
q35.5 21.5 57 57.5t21.5 77q0 51 -32.5 86t-81.5 35q-39 0 -74.5 -21.5t-57 -57t-21.5 -76.5q0 -51 32.5 -86.5t81.5 -35.5q39 0 74.5 21.5z" />
    <glyph glyph-name="dollar" unicode="$" horiz-adv-x="452" 
d="M348 242q0 -53 -34 -85.5t-91 -36.5l-29 -215h-38l30 215q-25 3 -54 13q-23 7 -34 7q-14 0 -25 -6l15 107l21 1q2 -45 29.5 -73t72.5 -28q34 0 53 19.5t19 50.5q0 19 -10 31t-35 19l-74 22q-26 8 -42 29.5t-16 49.5q0 47 36 77t94 32l24 176h38l-25 -180l22 -6
q28 -8 41 -8q12 0 25 9l-18 -93h-20q1 3 1 10q0 29 -22.5 49.5t-60.5 20.5q-72 0 -72 -62q0 -35 43 -47l75 -22q61 -18 61 -76z" />
    <glyph glyph-name="Euro" unicode="&#x20ac;" horiz-adv-x="453" 
d="M382.5 601q19.5 -6 43.5 -18q21 -10 35.5 -14.5t29.5 -4.5q-7 -31 -13 -71t-6 -60h-21q-2 62 -36 105.5t-84 43.5q-55 0 -100 -60.5t-69 -149.5h233l-16 -41h-227q-8 -38 -9 -73h236l-16 -41h-221q0 -93 30 -146.5t84 -53.5q52 0 97 42.5t64 107.5h24l-5 -25
q-15 -65 -16 -97v-10h-6q-16 0 -32.5 -5.5t-40.5 -15.5q-30 -13 -50.5 -19t-42.5 -5q-86 0 -135.5 60.5t-50.5 166.5h-60l16 41h45q1 29 10 73h-55l16 41h49q29 101 93 168t163 67q24 0 43.5 -6z" />
    <glyph glyph-name="florin" unicode="&#x192;" horiz-adv-x="405" 
d="M428.5 587.5q31.5 -19.5 31.5 -53.5q0 -20 -11.5 -34.5t-35.5 -14.5q-15 0 -25.5 6.5t-10.5 21.5q0 8 4.5 18.5t4.5 17.5q0 13 -9 22t-26 9q-35 0 -59.5 -41.5t-45.5 -143.5l-6 -31h99v-15l-29 -16h-77l-51 -246q-22 -99 -75.5 -187t-141.5 -88q-40 0 -69 18.5t-29 48.5
q0 18 11.5 31t33.5 13q15 0 26 -6.5t11 -21.5q0 -6 -3 -16t-3 -15q0 -11 8 -18t24 -7q30 0 50.5 32t34.5 82.5t34 145.5q8 45 18 85l33 149h-97l27 31h77l16 70q9 41 33 80.5t62 66t89 26.5q45 0 76.5 -19.5z" />
    <glyph glyph-name="sterling" unicode="&#xa3;" horiz-adv-x="491" 
d="M356.5 81.5q27.5 8.5 41 28.5t19.5 58h27l-33 -171q-14 0 -25 1l-52 2h-247q-29 0 -89 -3l-1 4q42 25 70.5 66.5t35.5 88.5l21 150h-77l3 23h78l11 81q14 103 61 150t138 47q48 0 79.5 -22.5t31.5 -56.5q0 -20 -15 -34t-33 -14q-14 0 -25 9.5t-11 21.5q0 9 6 21t6 20
q0 32 -48 32q-30 0 -48.5 -11.5t-30.5 -33.5q-11 -21 -14.5 -48t-5.5 -71q-2 -43 -5 -64l-3 -27h116l-3 -23h-116l-10 -80q-5 -38 -38 -86.5t-63 -66.5h170q51 0 78.5 8.5z" />
    <glyph glyph-name="yen" unicode="&#xa5;" horiz-adv-x="491" 
d="M555 597l-4 -30l-30 2q-14 0 -29 -21l-141 -207h99l-4 -29h-115l-16 -24l-8 -57h128l-4 -29h-128l-22 -154v-6q0 -15 15 -15l48 2l-4 -29h-224l4 29l49 -2q17 0 20 22l21 153h-127l4 29h128l4 32l-22 49h-99l4 29h82l-92 209q-5 11 -9 15t-10 4l-28 -2l4 30h216l-4 -30
l-53 2q-11 0 -11 -11q0 -4 3 -13l99 -226l157 230q4 6 4 12q0 8 -7 8l-51 -2l4 30h149z" />
    <glyph glyph-name="uni2219" unicode="&#x2219;" horiz-adv-x="224" 
d="M46 127zM66.5 223.5q20.5 18.5 50.5 18.5q24 0 39 -13.5t15 -36.5q0 -29 -20.5 -47t-49.5 -18q-25 0 -40 13.5t-15 35.5q0 29 20.5 47.5z" />
    <glyph glyph-name="uni2215" unicode="&#x2215;" horiz-adv-x="124" 
d="M0 0zM325 607l32 -21l-487 -591l-31 24z" />
    <glyph glyph-name="plus" unicode="+" horiz-adv-x="447" 
d="M288 488l-26 -185h178l-6 -44h-178l-26 -186h-51l26 186h-178l6 44h178l26 185h51z" />
    <glyph glyph-name="minus" unicode="&#x2212;" 
d="M460 301l-6 -41h-428l6 41h428z" />
    <glyph glyph-name="multiply" unicode="&#xd7;" horiz-adv-x="445" 
d="M385 435l25 -30l-150 -136l112 -138l-32 -29l-113 137l-150 -136l-26 29l151 137l-111 135l33 30l110 -136z" />
    <glyph glyph-name="divide" unicode="&#xf7;" horiz-adv-x="445" 
d="M294.5 473q13.5 -11 13.5 -31q0 -24 -17.5 -38.5t-44.5 -14.5q-22 0 -34.5 11t-12.5 30q0 25 17 39.5t43 14.5q22 0 35.5 -11zM438 290l-6 -41h-409l6 41h409zM246.5 134q13.5 -11 13.5 -31q0 -24 -17.5 -38.5t-44.5 -14.5q-21 0 -34 11t-13 30q0 24 17.5 39t42.5 15
q22 0 35.5 -11z" />
    <glyph glyph-name="equal" unicode="=" horiz-adv-x="444" 
d="M428 345l-6 -43h-376l6 43h376zM400 146l-6 -43h-376l6 43h376z" />
    <glyph glyph-name="notequal" unicode="&#x2260;" horiz-adv-x="447" 
d="M422 302h-145l-74 -156h197l-6 -43h-211l-51 -108l-39 12l46 96h-121l6 43h135l75 156h-188l6 43h202l52 109l38 -9l-47 -100h131z" />
    <glyph glyph-name="greater" unicode="&#x3e;" horiz-adv-x="446" 
d="M84 446l312 -213l-3 -23l-372 -215l7 50l269 155l45 20l-39 22l-226 154z" />
    <glyph glyph-name="less" unicode="&#x3c;" horiz-adv-x="446" 
d="M376 -10l-312 213l3 23l372 215l-7 -50l-269 -155l-45 -20l39 -22l226 -154z" />
    <glyph glyph-name="greaterequal" unicode="&#x2265;" horiz-adv-x="447" 
d="M89 478l320 -167l-4 -24l-366 -168l6 47l239 106l72 26l-64 27l-209 107zM371 41l-6 -41h-343l6 41h343z" />
    <glyph glyph-name="lessequal" unicode="&#x2264;" horiz-adv-x="460" 
d="M68 311l376 166l-8 -56l-246 -106l-59 -17l54 -16l216 -106l-8 -56l-328 166zM384 51l-8 -51h-352l8 51h352z" />
    <glyph glyph-name="plusminus" unicode="&#xb1;" horiz-adv-x="446" 
d="M286 506l-27 -191h182l-5 -41h-182l-28 -194h-46l28 194h-180l5 41h180l27 191h46zM403 41l-6 -41h-408l6 41h408z" />
    <glyph glyph-name="approxequal" unicode="&#x2248;" horiz-adv-x="444" 
d="M196.5 371.5q20.5 -8.5 48.5 -25.5q26 -15 43.5 -23t34.5 -8q24 0 44 13t47 48l24 -31q-26 -37 -57.5 -57.5t-63.5 -20.5q-19 0 -37.5 8t-47.5 25q-28 16 -46.5 24t-35.5 8q-24 0 -41.5 -11t-44.5 -45l-24 31q52 73 116 73q20 0 40.5 -8.5zM168.5 171.5
q20.5 -8.5 48.5 -25.5q26 -15 43.5 -23t34.5 -8q24 0 44 13t47 48l24 -31q-26 -37 -58 -57.5t-64 -20.5q-18 0 -35.5 7.5t-49.5 25.5q-26 16 -45 24t-36 8q-24 0 -41.5 -11t-44.5 -45l-24 31q52 73 116 73q20 0 40.5 -8.5z" />
    <glyph glyph-name="asciitilde" unicode="~" horiz-adv-x="409" 
d="M400 292q-24 -36 -54 -56.5t-60 -20.5q-21 0 -39.5 8.5t-46.5 26.5q-25 16 -39.5 23t-29.5 7q-19 0 -35 -12t-43 -49l-25 36q48 73 109 73q21 0 40 -8.5t47 -26.5q23 -15 38 -22.5t31 -7.5q18 0 36 14.5t45 51.5z" />
    <glyph glyph-name="logicalnot" unicode="&#xac;" horiz-adv-x="440" 
d="M442 360l-30 -214h-45l24 173h-357l6 41h402z" />
    <glyph glyph-name="infinity" unicode="&#x221e;" horiz-adv-x="520" 
d="M498.5 383q29.5 -37 29.5 -97q0 -38 -13 -78.5t-44 -69.5t-83 -29q-43 0 -73.5 28.5t-41.5 69.5q-33 -46 -68 -72t-84 -26q-56 0 -85.5 39.5t-29.5 101.5q0 39 14.5 78t46.5 65.5t80 26.5q43 0 73.5 -29t42.5 -70q33 47 67 73t84 26q55 0 84.5 -37zM477 209q23 28 23 67
q0 33 -19 54t-51 21q-29 0 -52.5 -15.5t-40.5 -37t-45 -62.5q31 -55 102 -55q60 0 83 28zM159 193.5q24 15.5 41 37t43 61.5q-29 56 -102 56q-51 0 -79 -24.5t-28 -71.5q0 -33 19 -53.5t52 -20.5q30 0 54 15.5z" />
    <glyph glyph-name="integral" unicode="&#x222b;" horiz-adv-x="413" 
d="M425.5 765.5q20.5 -13.5 20.5 -38.5q0 -20 -14 -35t-41 -15q-30 0 -30 21q0 7 1 10q3 15 3 24t-4 12.5t-14 3.5q-19 0 -33.5 -43.5t-28.5 -144.5q-4 -25 -13 -165q-16 -232 -25 -297q-16 -115 -62.5 -190t-110.5 -75q-31 0 -51 13.5t-20 37.5q0 20 14 35.5t41 15.5
q17 0 23 -5.5t6 -15.5l-1 -10l-2 -24q0 -10 4 -13t14 -3q19 0 32.5 43.5t28.5 144.5q2 13 5.5 59.5t5.5 75.5q16 246 28 327q16 115 62 190t110 75q31 0 51.5 -13.5z" />
    <glyph glyph-name="uni2126" unicode="&#x2126;" horiz-adv-x="650" 
d="M17 0zM546 75q23 19 34 65h33q-12 -38 -24 -82.5t-15 -61.5q-8 3 -36.5 3.5t-63.5 0.5h-118l-2 5q56 63 90 115t55.5 124t21.5 169q0 87 -35.5 127t-108.5 40q-111 0 -160.5 -75t-49.5 -238q0 -84 19 -145t53 -117l-2 -5h-118q-89 0 -102 -4q2 11 2 52q0 40 -2 92h33
q-1 -46 16.5 -65t59.5 -19h54q-37 49 -57.5 82t-34 74.5t-13.5 92.5q0 84 37.5 153t107 109t161.5 40q74 0 126.5 -29t79.5 -79t27 -114q0 -71 -20.5 -123t-54 -91t-98.5 -101l-15 -14h55q42 0 65 19z" />
    <glyph glyph-name="uni2206" unicode="&#x2206;" horiz-adv-x="583" 
d="M0 0zM355 607l160 -607h-519l331 607h28zM408 28l-118 456l-249 -456h367z" />
    <glyph glyph-name="product" unicode="&#x220f;" horiz-adv-x="613" 
d="M616 567l-39 2q-17 0 -20 -21l-81 -579v-7q0 -15 14 -15l39 2l-4 -29h-214l4 29l49 -2q16 0 19 22l83 597h-221l-83 -597v-5q0 -17 15 -17l49 2l-4 -29h-215l4 29l39 -2q17 0 20 22l81 579l1 6q0 16 -15 15l-40 -2l5 30h518z" />
    <glyph glyph-name="summation" unicode="&#x2211;" horiz-adv-x="498" 
d="M462.5 597.5q28.5 0.5 37.5 3.5q-3 -24 -5.5 -61.5t-3.5 -71.5h-33q2 56 -14.5 78.5t-58.5 22.5h-178l103 -261l-234 -322h234q42 0 64.5 19t34.5 65h33q-12 -39 -25 -87t-16 -66q-8 3 -35.5 3.5t-62.5 0.5h-307l3 24l228 313l-129 315l4 24h297q35 0 63.5 0.5z" />
    <glyph glyph-name="radical" unicode="&#x221a;" horiz-adv-x="460" 
d="M537 786h26l-316 -881h-27l-108 426l-80 -25l-5 25l162 51l6 -25l73 -319z" />
    <glyph glyph-name="uni00B5" unicode="&#xb5;" horiz-adv-x="493" 
d="M0 0zM467 60q-34 -37 -66.5 -53.5t-58.5 -16.5q-14 0 -19 11t-5 35q0 28 17 143q-56 -103 -101.5 -146t-93.5 -43q-8 0 -20 2l-27 -187v-5q0 -6 3 -10t8 -4l45 1l-4 -26h-201l4 26l46 -1q5 1 9.5 6.5t5.5 12.5l82 572l1 7q0 12 -10 12l-36 -2l4 26h133l-43 -291h1
q-2 -12 -2 -30q0 -54 35 -54q28 0 64 39t67.5 97.5t46.5 110.5l18 119l92 17q-32 -165 -45 -239.5t-13 -104.5q0 -17 13 -17q18 0 38 13z" />
    <glyph glyph-name="partialdiff" unicode="&#x2202;" horiz-adv-x="448" 
d="M389.5 547.5q45.5 -57.5 45.5 -161.5q0 -61 -23.5 -154.5t-81 -168t-150.5 -74.5q-37 0 -72.5 14t-59.5 46t-24 82q0 57 26 101t70.5 68.5t96.5 24.5q29 0 60 -8.5t56 -28.5q18 78 18 126q0 75 -24 119.5t-68 44.5q-26 0 -46.5 -12t-20.5 -34q0 -6 2.5 -14.5t2.5 -13.5
q0 -15 -11.5 -23t-27.5 -8q-18 0 -30 10t-12 29q0 29 23.5 50t58.5 32t70 11q76 0 121.5 -57.5zM258 83.5q39 67.5 65 164.5q-14 18 -35 29t-44 11q-35 0 -66 -21.5t-50 -61t-19 -91.5q0 -44 16.5 -71t45.5 -27q48 0 87 67.5z" />
    <glyph glyph-name="percent" unicode="%" horiz-adv-x="597" 
d="M278.5 577.5q27.5 -30.5 27.5 -85.5q0 -80 -39.5 -124t-102.5 -44q-48 0 -75 30t-27 85q0 80 39.5 124.5t102.5 44.5q47 0 74.5 -30.5zM539 607l32 -21l-487 -591l-31 24zM144.5 547q-20.5 -43 -20.5 -126q0 -78 43 -78q37 0 56.5 42t19.5 127q0 42 -10.5 60t-31.5 18
q-36 0 -56.5 -43zM532.5 244.5q27.5 -30.5 27.5 -85.5q0 -79 -39.5 -123.5t-102.5 -44.5q-49 0 -76 30t-27 85q0 80 40 124.5t103 44.5q47 0 74.5 -30.5zM398.5 214q-20.5 -43 -20.5 -126q0 -78 42 -78q77 0 77 169q0 42 -10.5 60t-31.5 18q-36 0 -56.5 -43z" />
    <glyph glyph-name="perthousand" unicode="&#x2030;" horiz-adv-x="859" 
d="M279 577.5q28 -30.5 28 -85.5q0 -80 -40 -124t-103 -44q-48 0 -74.5 30t-26.5 85q0 80 39.5 124.5t101.5 44.5q47 0 75 -30.5zM539 607l32 -21l-487 -591l-31 24zM145 547q-20 -43 -20 -126q0 -43 11 -60.5t31 -17.5q77 0 77 169q0 78 -42 78q-37 0 -57 -43zM517.5 244
q27.5 -30 27.5 -86q0 -80 -39 -124t-103 -44q-48 0 -74.5 30t-26.5 85q0 80 39.5 124.5t101.5 44.5q47 0 74.5 -30zM793 243.5q28 -30.5 28 -85.5q0 -80 -39.5 -124t-103.5 -44q-48 0 -74.5 30t-26.5 85q0 80 39.5 124.5t101.5 44.5q47 0 75 -30.5zM383.5 212
q-19.5 -44 -19.5 -126q0 -42 11 -59.5t31 -17.5q37 0 57 41.5t20 126.5q0 43 -11 61t-32 18q-37 0 -56.5 -44zM658.5 212q-19.5 -44 -19.5 -126q0 -42 11 -59.5t31 -17.5q37 0 57 41.5t20 126.5q0 43 -11 61t-32 18q-37 0 -56.5 -44z" />
    <glyph glyph-name="lozenge" unicode="&#x25ca;" horiz-adv-x="448" 
d="M297 645l151 -364l-248 -360h-30l-151 365l248 359h30zM276 589l-25 -40l-181 -264l110 -269l12 -39l24 40l181 264l-109 269z" />
    <glyph glyph-name="at" unicode="@" horiz-adv-x="718" 
d="M590 563q56 -33 87 -91t31 -129q0 -103 -48 -183.5t-113.5 -125t-111.5 -44.5q-24 0 -24 26q0 27 7.5 73.5t20.5 97.5q-57 -108 -102 -152.5t-93 -44.5q-44 0 -68 32.5t-24 89.5q0 70 37.5 144.5t99.5 124t130 49.5q21 0 34 -9t23 -30l5 20l82 17l-23 -98
q-42 -191 -42 -238q0 -17 11 -17q26 0 66 32t70 91.5t30 138.5q0 63 -27.5 116t-77 83.5t-112.5 30.5q-97 0 -186 -58.5t-144 -159t-55 -218.5q0 -74 30 -129.5t87.5 -86.5t136.5 -31q86 0 156 29.5t142 96.5l15 -23q-75 -71 -152.5 -101.5t-173.5 -30.5q-92 0 -159 33.5
t-103 96t-36 147.5q0 115 61.5 222.5t164.5 174.5t220 67q72 0 128 -33zM332 357q-41 -43 -68 -116q-23 -64 -23 -118q0 -78 50 -78q20 0 63 53t76.5 124t33.5 126q0 21 -12.5 36.5t-30.5 15.5q-48 0 -89 -43z" />
    <glyph glyph-name="ampersand" unicode="&#x26;" horiz-adv-x="590" 
d="M536.5 289.5q-37.5 -27.5 -94.5 -40.5q41 -30 41 -85q0 -50 -31.5 -89.5t-85 -61.5t-118.5 -22t-117.5 22t-83 62t-30.5 93q0 47 25.5 88.5t76.5 68t124 27.5q-35 20 -58.5 52t-23.5 71q0 40 25 70t64.5 46t81.5 16q53 0 83 -23.5t30 -53.5q0 -22 -15 -36t-33 -14
q-14 0 -25 9t-11 23q0 7 6 19t6 21q0 16 -12 24t-33 8q-40 0 -63.5 -28t-23.5 -80q0 -47 20 -76.5t61 -43.5l-3 -23q-13 2 -37 2q-58 0 -98.5 -25.5t-60.5 -66t-20 -83.5q0 -66 44 -104t117 -38q50 0 94 18t70.5 51t26.5 75q0 38 -21.5 59.5t-56.5 21.5q-29 0 -50 -15
t-21 -43q0 -8 1.5 -16t1.5 -16q0 -18 -10.5 -27.5t-28.5 -9.5q-42 0 -42 47t42.5 72.5t110.5 33.5l8 1q50 6 78.5 17.5t28.5 40.5q0 8 -1.5 16t-1.5 16q0 18 10 27.5t28 9.5q21 0 32 -11.5t11 -31.5q0 -37 -37.5 -64.5z" />
    <glyph glyph-name="paragraph" unicode="&#xb6;" horiz-adv-x="484" 
d="M117.5 549q58.5 48 157.5 48h243l-4 -31h-97l-118 -835h-37l118 835h-38q-35 0 -41 -38l-112 -797h-37l78 557q-82 0 -126.5 34.5t-44.5 98.5q0 80 58.5 128z" />
    <glyph glyph-name="section" unicode="&#xa7;" horiz-adv-x="436" 
d="M341.5 466.5q-10.5 8.5 -10.5 23.5q0 10 3.5 16t11.5 15q5 4 8.5 9.5t3.5 12.5q0 17 -24.5 29t-54.5 12q-41 0 -71.5 -23t-30.5 -63q0 -21 12 -36.5t36 -33.5l112 -85q37 -27 54 -51t17 -55q0 -97 -107 -132q26 -24 37.5 -45.5t11.5 -46.5q0 -43 -24.5 -76.5t-69 -52.5
t-100.5 -19q-62 0 -99.5 22t-37.5 60q0 30 18 48.5t43 18.5q16 0 26.5 -8.5t10.5 -23.5q0 -10 -3.5 -16t-11.5 -15q-5 -4 -8.5 -9.5t-3.5 -12.5q0 -17 24.5 -29t54.5 -12q41 0 71.5 23t30.5 63q0 21 -12 36.5t-36 33.5l-112 85q-37 27 -54 51t-17 55q0 97 107 132
q-26 24 -37.5 45.5t-11.5 46.5q0 43 24.5 76.5t69 52.5t100.5 19q62 0 99.5 -22t37.5 -60q0 -30 -18 -48.5t-43 -18.5q-16 0 -26.5 8.5zM166 350q-31 -13 -43.5 -29t-12.5 -42q0 -13 8 -25t27 -27l115 -88l22 -17q31 13 43.5 29t12.5 42q0 13 -8 25t-27 27l-115 88z" />
    <glyph glyph-name="copyright" unicode="&#xa9;" horiz-adv-x="697" 
d="M538.5 571q62.5 -36 98 -98t35.5 -137t-36.5 -155t-115 -135.5t-197.5 -55.5q-77 0 -139 36t-97.5 97.5t-35.5 136.5t36.5 155.5t114.5 136t197 55.5q77 0 139.5 -36zM114.5 141q31.5 -56 87 -88.5t124.5 -32.5q108 0 178 51.5t102 124t32 136.5q0 68 -32 124t-87.5 88.5
t-124.5 32.5q-107 0 -177 -51.5t-102 -124t-32 -136.5q0 -68 31.5 -124zM428.5 467.5q15.5 -3.5 31.5 -10.5q10 -4 21.5 -7t24.5 -3q-2 -9 -5.5 -30t-3.5 -42h-19q-3 31 -27.5 53.5t-55.5 22.5q-39 0 -65 -31.5t-38.5 -73.5t-12.5 -73q0 -51 23 -85.5t58 -34.5
q36 0 63.5 21.5t38.5 54.5h22l-5 -28q-3 -13 -3.5 -22t-0.5 -23h-4q-17 0 -52 -11q-46 -14 -75 -14q-43 0 -78 19.5t-54.5 53t-19.5 74.5q0 40 20 85t64.5 76.5t112.5 31.5q24 0 39.5 -3.5z" />
    <glyph glyph-name="registered" unicode="&#xae;" horiz-adv-x="464" 
d="M361 582q46 -25 73 -69.5t27 -99.5q0 -54 -27 -98t-73 -69.5t-100 -25.5q-55 0 -101 25.5t-72.5 69.5t-26.5 98q0 55 26.5 99.5t72.5 69.5t101 25q54 0 100 -25zM173 559.5q-39 -21.5 -61 -59.5t-22 -87q0 -48 22 -86t61 -59.5t87 -21.5t87 21.5t61.5 59.5t22.5 86
q0 49 -22.5 87t-61.5 59.5t-87 21.5t-87 -21.5zM268 514q39 0 58 -11.5t19 -36.5q0 -22 -15 -36t-41 -19q23 0 42 -15t19 -40q0 -28 20 -22v-17h-37q-41 0 -41 31v14q0 19 -11.5 28.5t-27.5 9.5h-10v-58q0 -7 7 -7h17v-18h-101v18h12q6 0 6 7v147q0 7 -8 7h-10v18h102z
M248 496q-5 0 -5 -3v-74h19q12 0 18.5 11t6.5 29q0 37 -30 37h-9z" />
    <glyph glyph-name="trademark" unicode="&#x2122;" horiz-adv-x="758" 
d="M334 523h-19q2 10 2 15q0 40 -55 40h-15q-5 0 -7 -5l-33 -234v-2q0 -9 9 -8h26l-3 -19h-151l3 18h27q4 0 7 3.5t3 8.5l33 232q2 6 -5 6h-14q-33 0 -49.5 -13.5t-20.5 -41.5h-18l11 74h280zM792 597l-3 -20l-14 1q-4 0 -7.5 -3t-4.5 -7l-32 -231q0 -9 9 -9l17 1l-3 -19
h-140l3 18h25q9 0 11 11l29 208l-148 -242h-17l-93 258l-23 -164q-8 -61 -8 -62q0 -6 5 -7.5t28 -0.5l-3 -19h-85l3 19l19 -1q9 0 11 11l32 229l1 4q0 6 -12 6q-8 0 -13 -1l3 20h114l72 -198l122 198h102z" />
    <glyph glyph-name="degree" unicode="&#xb0;" horiz-adv-x="362" 
d="M159 575q32 32 77 32q37 0 59.5 -24t22.5 -64q0 -44 -32 -76t-77 -32q-37 0 -59.5 24t-22.5 63q0 45 32 77zM182.5 466.5q12.5 -13.5 32.5 -13.5q24 0 41 18.5t17 44.5q0 22 -12 35.5t-31 13.5q-25 0 -42.5 -18.5t-17.5 -44.5q0 -22 12.5 -35.5z" />
    <glyph glyph-name="bar" unicode="|" horiz-adv-x="226" 
d="M166 730h38l-136 -969h-38z" />
    <glyph glyph-name="brokenbar" unicode="&#xa6;" horiz-adv-x="226" 
d="M149 607h40l-48 -342h-40zM119 113l-48 -344h-40l48 344h40z" />
    <glyph glyph-name="uni2113" unicode="&#x2113;" horiz-adv-x="373" 
d="M227.5 42.5q23.5 19.5 45.5 57.5l19 -10q-29 -50 -60 -73t-75 -23q-52 0 -76.5 22t-24.5 70q0 15 3.5 40t12.5 74q-30 -14 -80 -34l-6 30q55 21 93 40l9 51l18 100q40 220 179 220q40 0 61 -21.5t21 -63.5q0 -60 -42.5 -133.5t-158.5 -143.5q-14 -80 -20 -118.5t-6 -53.5
q0 -27 10.5 -38.5t32.5 -11.5q21 0 44.5 19.5zM173 284q85 55 118.5 115t33.5 123q0 29 -12 43.5t-33 14.5q-30 0 -47 -22.5t-23.5 -49t-11.5 -62.5q-5 -53 -11 -86z" />
    <glyph glyph-name="dagger" unicode="&#x2020;" horiz-adv-x="513" 
d="M483 445q15 -13 15 -32q0 -22 -10 -38.5t-38 -16.5q-10 0 -15 4.5t-10 14.5q-6 10 -11.5 15t-16.5 5t-19 -1t-14 -2q-22 -4 -34 -4q-22 0 -37 8q-2 -22 2 -37t11 -31q8 -18 8 -26q0 -11 -7 -43q-10 -42 -17 -92q-18 -138 -38 -228.5t-42 -90.5q-15 0 -15 99q0 81 11 221
q7 86 7 114q0 19 5.5 30.5t16.5 25.5q11 13 18 25t10 33q-17 -8 -39 -8q-13 0 -33 4q-5 0 -14.5 1.5t-17.5 1.5q-10 0 -17 -5t-16 -15q-10 -10 -16.5 -14.5t-15.5 -4.5q-34 0 -34 38q0 28 20 45t48 17q14 0 24 -4t22 -12q18 -12 36 -18.5t51 -7.5q-3 27 -3 54q0 12 7 32
t8 24q7 19 7 22q0 12 -11 27q-10 14 -10 25q0 16 15.5 28t37.5 12q18 0 30.5 -9.5t12.5 -23.5q0 -11 -5 -18t-14 -15q-19 -15 -19 -32l1 -27l2 -32q0 -23 -21 -67q27 1 46.5 7t41.5 18q18 9 30.5 13t27.5 4q23 0 38 -13z" />
    <glyph glyph-name="daggerdbl" unicode="&#x2021;" horiz-adv-x="513" 
d="M295 398q-1 -6 -1 -18q0 -17 3.5 -26.5t10.5 -24.5q9 -16 9 -27q0 -10 -5 -22t-22 -36q11 -30 11 -44q0 -18 -4.5 -27t-14.5 -19q-11 -11 -19 -24.5t-13 -39.5q18 8 42 8q11 0 19 -1t14 -2q22 -4 34 -4t20 5.5t17 15.5q10 10 15.5 14t14.5 4q34 0 34 -35
q0 -26 -18.5 -45.5t-49.5 -19.5q-13 0 -22 3.5t-23 11.5q-22 12 -41.5 19t-52.5 8q3 -22 3 -40q0 -25 -13 -60q-8 -24 -8 -32q0 -7 2.5 -12.5t6.5 -10.5q6 -8 8.5 -14t2.5 -16q0 -15 -14.5 -27t-38.5 -12q-19 0 -31 9.5t-12 24.5q0 12 5 19t15 16t14.5 15.5t4.5 17.5l-1 21
q-2 18 -2 31q0 29 19 70q-33 -1 -54 -8t-44 -18q-16 -8 -27 -12t-25 -4q-23 0 -38 12.5t-15 31.5q0 21 11 38.5t36 17.5q9 0 14 -4.5t10 -13.5q6 -10 12.5 -15.5t18.5 -5.5q13 0 35 4q5 1 13.5 2t20.5 1q24 0 40 -8q1 6 1 18q0 17 -3.5 26.5t-10.5 24.5q-9 16 -9 27
q0 10 5 22t22 36q-11 30 -11 44q0 18 4.5 27t14.5 19q11 11 19 24.5t13 39.5q-18 -8 -42 -8q-11 0 -19 1t-14 2q-22 4 -34 4t-20 -5.5t-17 -15.5q-10 -10 -15.5 -14t-14.5 -4q-34 0 -34 35q0 26 18.5 45.5t49.5 19.5q13 0 22 -3.5t23 -11.5q22 -12 41.5 -19t52.5 -8
q-3 23 -3 40q0 25 13 60q8 24 8 32q0 7 -2.5 12.5t-6.5 10.5q-6 8 -8.5 14t-2.5 16q0 15 14.5 27t38.5 12q19 0 31 -9.5t12 -24.5q0 -12 -5 -19t-15 -16t-14.5 -15.5t-4.5 -17.5l1 -21q2 -18 2 -31q0 -29 -19 -70q33 1 54 8t44 18q16 8 27 12t25 4q23 0 38 -12.5t15 -33.5
q0 -19 -11 -36.5t-36 -17.5q-9 0 -14 4.5t-10 13.5q-6 10 -12.5 15.5t-18.5 5.5q-13 0 -35 -4q-5 -1 -13.5 -2t-20.5 -1q-24 0 -40 8z" />
    <glyph glyph-name="estimated" unicode="&#x212e;" horiz-adv-x="678" 
d="M576 525q78 -82 78 -226h-496v-211q73 -71 201 -71q82 0 142 30.5t93 87.5l25 -15q-36 -63 -103.5 -97t-156.5 -34q-145 0 -224.5 82t-79.5 228t79 227t221 81q143 0 221 -82zM158 511v-184h393v182q-73 70 -196 70q-124 0 -197 -68z" />
    <glyph glyph-name="asciicircum" unicode="^" horiz-adv-x="443" 
d="M297 657l144 -336h-48l-104 246l-12 37l-22 -37l-176 -246h-47l239 336h26z" />
    <glyph glyph-name="uni0326" unicode="&#x326;" horiz-adv-x="0" 
d="M-127 -49.5q14 -15.5 14 -37.5q0 -40 -30 -74t-69 -52l-14 13q21 12 38.5 29.5t18.5 30.5q4 29 -24 29q-12 0 -19 9t-7 21q0 18 14.5 32.5t38.5 14.5q25 0 39 -15.5z" />
    <glyph glyph-name="uni02C9" unicode="&#x2c9;" horiz-adv-x="442" 
d="M150 567zM398 607l-6 -40h-242l6 40h242z" />
    <glyph glyph-name="acute" unicode="&#xb4;" horiz-adv-x="266" 
d="M280 615l-171 -113q-12 -9 -21 -9q-14 0 -14 7q0 4 9 13l11 11l107 108q12 13 18 17t17 4q17 0 35.5 -9.5t18.5 -16.5q0 -4 -10 -12z" />
    <glyph glyph-name="breve" unicode="&#x2d8;" horiz-adv-x="319" 
d="M294 551.5q-37 -33.5 -92 -33.5t-82.5 33.5t-25.5 90.5h44q3 -32 19 -53t52 -21q35 0 58.5 21.5t34.5 52.5h43q-14 -57 -51 -90.5z" />
    <glyph glyph-name="caron" unicode="&#x2c7;" horiz-adv-x="365" 
d="M392 650q0 -4 -27 -25q-7 -6 -25 -21t-34 -30l-50 -48q-27 -25 -34 -25q-3 0 -10.5 7t-15.5 18l-36 48q-19 25 -49 55q-16 16 -16 20q0 3 3 5.5t10 2.5q10 0 27 -12l97 -73l120 73q22 12 29 12q11 0 11 -7z" />
    <glyph glyph-name="cedilla" unicode="&#xb8;" horiz-adv-x="227" 
d="M81 -43q-9 -12 -9 -20q0 -6 6.5 -9t21.5 -7q23 -7 34.5 -14t11.5 -24q0 -42 -27.5 -69.5t-76.5 -27.5q-44 0 -66 16l12 27q10 -16 32 -16q23 0 40.5 17t17.5 40q0 17 -25 36l-20 14q-10 7 -10 14q0 6 9 14l45 52h35z" />
    <glyph glyph-name="circumflex" unicode="&#x2c6;" horiz-adv-x="365" 
d="M74 500q0 4 27 25q7 6 25 21t34 30l50 48q27 25 34 25q3 0 10.5 -7t15.5 -18l36 -48q19 -25 49 -55q16 -16 16 -20q0 -3 -3 -5.5t-10 -2.5q-10 0 -27 12l-97 73l-120 -73q-22 -12 -29 -12q-11 0 -11 7z" />
    <glyph glyph-name="dieresis" unicode="&#xa8;" horiz-adv-x="282" 
d="M52 548zM148.5 632q12.5 -11 12.5 -30q0 -25 -17 -39.5t-44 -14.5q-21 0 -34.5 11t-13.5 30q0 24 18 39t44 15q22 0 34.5 -11zM322.5 632q12.5 -11 12.5 -30q0 -25 -17 -39.5t-44 -14.5q-21 0 -34.5 11t-13.5 30q0 24 18 39t44 15q22 0 34.5 -11z" />
    <glyph glyph-name="dotaccent" unicode="&#x2d9;" horiz-adv-x="168" 
d="M178.5 632q12.5 -11 12.5 -30q0 -25 -17 -39.5t-44 -14.5q-21 0 -34.5 11t-13.5 30q0 24 18 39t44 15q22 0 34.5 -11z" />
    <glyph glyph-name="grave" unicode="`" horiz-adv-x="266" 
d="M165.5 650q4.5 -3 9 -9.5t6.5 -8.5l82 -114q9 -14 9 -17q0 -8 -17 -8q-9 0 -18 9l-139 113q-6 6 -6 11q0 7 21 17t39 10q9 0 13.5 -3z" />
    <glyph glyph-name="hungarumlaut" unicode="&#x2dd;" horiz-adv-x="323" 
d="M219 644q17 -9 17 -16q0 -3 -9 -12q-10 -11 -126 -117q-6 -6 -17 -6q-10 0 -10 7q0 5 4 10q52 76 93 134q4 6 7 7.5t9 1.5q15 0 32 -9zM330 644.5q17 -8.5 17 -15.5q0 -4 -8 -13q-17 -20 -126 -117q-7 -6 -17 -6q-5 0 -8 2t-3 5q0 2 4 10q44 60 66.5 93.5t27.5 40.5
q5 6 8 7.5t8 1.5q14 0 31 -8.5z" />
    <glyph glyph-name="macron" unicode="&#xaf;" horiz-adv-x="442" 
d="M398 607l-6 -40h-242l6 40h242z" />
    <glyph glyph-name="ogonek" unicode="&#x2db;" horiz-adv-x="233" 
d="M54.5 -21.5q-15.5 -22.5 -15.5 -49.5q0 -20 11 -32.5t34 -12.5q30 0 69 31l12 -14q-27 -29 -58.5 -44.5t-62.5 -15.5q-26 0 -44.5 16.5t-18.5 45.5q0 32 22.5 61.5t64.5 49.5h29q-27 -13 -42.5 -35.5z" />
    <glyph glyph-name="ring" unicode="&#x2da;" horiz-adv-x="229" 
d="M111.5 629.5q27.5 26.5 64.5 26.5q34 0 52.5 -19t18.5 -52q0 -40 -26.5 -66t-67.5 -26q-33 0 -51 19.5t-18 52.5q0 38 27.5 64.5zM136.5 540q7.5 -11 21.5 -11q18 0 30.5 15.5t12.5 36.5q0 18 -7.5 28.5t-22.5 10.5q-18 0 -30 -15t-12 -36q0 -18 7.5 -29z" />
    <glyph glyph-name="tilde" unicode="&#x2dc;" horiz-adv-x="285" 
d="M239 599q53 -21 75 -21q14 0 25.5 12t13.5 30h20q-5 -37 -27.5 -64t-49.5 -27q-15 0 -34 5.5t-49 16.5q-53 21 -75 21q-14 0 -25 -12t-14 -30h-20q5 37 27.5 64t49.5 27q23 0 83 -22z" />
    <glyph glyph-name="caron.alt" horiz-adv-x="326" 
d="M231 591.5q13 -15.5 13 -37.5q0 -36 -27 -68t-62 -48l-14 13q18 12 32 29.5t15 30.5v4q0 15 -14 15q-12 0 -19 9t-7 21q0 18 12.5 32.5t35.5 14.5q22 0 35 -15.5z" />
    <glyph glyph-name="acute.case" horiz-adv-x="266" 
d="M305 788l-171 -113q-12 -9 -21 -9q-14 0 -14 7q0 4 9 13l11 11l107 108q12 13 18 17t17 4q17 0 35.5 -9.5t18.5 -16.5q0 -4 -10 -12z" />
    <glyph glyph-name="breve.case" horiz-adv-x="319" 
d="M315 699.5q-37 -33.5 -92 -33.5t-82.5 33.5t-25.5 90.5h44q3 -32 19 -53t52 -21q35 0 58.5 21.5t34.5 52.5h43q-14 -57 -51 -90.5z" />
    <glyph glyph-name="caron.case" horiz-adv-x="365" 
d="M416 817q0 -4 -27 -25q-7 -6 -25 -21t-34 -30l-50 -48q-27 -25 -34 -25q-3 0 -10.5 7t-15.5 18l-36 48q-19 25 -49 55q-16 16 -16 20q0 3 3 5.5t10 2.5q10 0 27 -12l97 -73l120 73q22 12 29 12q11 0 11 -7z" />
    <glyph glyph-name="circumflex.case" horiz-adv-x="365" 
d="M99 673q0 4 27 25q7 6 25 21t34 30l50 48q27 25 34 25q3 0 10.5 -7t15.5 -18l36 -48q19 -25 49 -55q16 -16 16 -20q0 -3 -3 -5.5t-10 -2.5q-10 0 -27 12l-97 73l-120 -73q-22 -12 -29 -12q-11 0 -11 7z" />
    <glyph glyph-name="dieresis.case" horiz-adv-x="282" 
d="M71 677zM167.5 761q12.5 -11 12.5 -30q0 -25 -17 -39.5t-44 -14.5q-21 0 -34.5 11t-13.5 30q0 24 18 39t44 15q22 0 34.5 -11zM341.5 761q12.5 -11 12.5 -30q0 -25 -17 -39.5t-44 -14.5q-21 0 -34.5 11t-13.5 30q0 24 18 39t44 15q22 0 34.5 -11z" />
    <glyph glyph-name="dotaccent.case" horiz-adv-x="168" 
d="M197.5 762q12.5 -11 12.5 -30q0 -25 -17 -39.5t-44 -14.5q-21 0 -34.5 11t-13.5 30q0 24 18 39t44 15q22 0 34.5 -11z" />
    <glyph glyph-name="grave.case" horiz-adv-x="266" 
d="M189.5 823q4.5 -3 9 -9.5t6.5 -8.5l82 -114q9 -14 9 -17q0 -8 -17 -8q-9 0 -18 9l-139 113q-6 6 -6 11q0 7 21 17t39 10q9 0 13.5 -3z" />
    <glyph glyph-name="hungarumlaut.case" horiz-adv-x="323" 
d="M244 817q17 -9 17 -16q0 -3 -9 -12q-10 -11 -126 -117q-6 -6 -17 -6q-10 0 -10 7q0 5 4 10q52 76 93 134q4 6 7 7.5t9 1.5q15 0 32 -9zM355 817.5q17 -8.5 17 -15.5q0 -4 -8 -13q-17 -20 -126 -117q-7 -6 -17 -6q-5 0 -8 2t-3 5q0 2 4 10q44 60 66.5 93.5t27.5 40.5
q5 6 8 7.5t8 1.5q14 0 31 -8.5z" />
    <glyph glyph-name="macron.case" horiz-adv-x="311" 
d="M347 716l-6 -40h-242l6 40h242z" />
    <glyph glyph-name="ring.case" horiz-adv-x="229" 
d="M136.5 802.5q27.5 26.5 64.5 26.5q34 0 52.5 -19t18.5 -52q0 -40 -26.5 -66t-67.5 -26q-33 0 -51 19.5t-18 52.5q0 38 27.5 64.5zM161.5 713q7.5 -11 21.5 -11q18 0 30.5 15.5t12.5 36.5q0 18 -7.5 28.5t-22.5 10.5q-18 0 -30 -15t-12 -36q0 -18 7.5 -29z" />
    <glyph glyph-name="tilde.case" horiz-adv-x="285" 
d="M262 745q53 -21 75 -21q14 0 25.5 12t13.5 30h20q-5 -37 -27.5 -64t-49.5 -27q-15 0 -34 5.5t-49 16.5q-53 21 -75 21q-14 0 -25 -12t-14 -30h-20q5 37 27.5 64t49.5 27q23 0 83 -22z" />
    <glyph glyph-name="circumflex.narrow" horiz-adv-x="326" 
d="M240 644l79 -123q13 -19 13 -21q0 -3 -3.5 -5t-7.5 -2q-14 0 -27 13l-79 77l-101 -77q-17 -13 -31 -13q-3 0 -6 2t-3 4t18 22l116 123q5 6 10.5 10.5t7.5 4.5q6 0 14 -15z" />
    <glyph glyph-name="uniE000" unicode="&#xe000;" horiz-adv-x="408" 
d="M434 420l-52 -420h-408l52 420h408z" />
    <glyph glyph-name=".ttfautohint" horiz-adv-x="408" 
d="M0 0z" />
    </font>
</defs>
</svg>
