<svg xmlns="http://www.w3.org/2000/svg" width="267.34" height="29.419" viewBox="0 0 267.34 29.419">
  <g id="gaia-logo" transform="translate(-1208.305 -201.207)">
    <path id="Path_272" data-name="Path 272" d="M299.053,203.813c-11.29-2.7-22.831-5.081-34.3-7.089a575.124,575.124,0,0,0-197.549,0c-11.474,2.007-23.015,4.392-34.3,7.088l-.591-2.478c11.339-2.707,22.932-5.1,34.456-7.119a577.675,577.675,0,0,1,198.426,0c11.525,2.017,23.118,4.412,34.457,7.12Z" transform="translate(1176 26.813)" fill="#1A1818"/>
    <path id="Path_273" data-name="Path 273" d="M117.7,195.3a14.567,14.567,0,0,1-5.734-4.945,12.55,12.55,0,0,1,0-13.911A14.567,14.567,0,0,1,117.7,171.5a17.718,17.718,0,0,1,8.022-1.81,17.3,17.3,0,0,1,7.1,1.428,14.4,14.4,0,0,1,5.34,4l-2.728,1.849a11.76,11.76,0,0,0-4.207-3.256,13.039,13.039,0,0,0-5.5-1.126,13.308,13.308,0,0,0-6.219,1.427,11.069,11.069,0,0,0-4.323,3.88,9.916,9.916,0,0,0-1.572,5.468,10.08,10.08,0,0,0,1.595,5.548,11.2,11.2,0,0,0,4.393,3.94,13.526,13.526,0,0,0,6.311,1.447,13.26,13.26,0,0,0,5.942-1.287,11.522,11.522,0,0,0,4.231-3.457V183.6h3.56v6.632a14.386,14.386,0,0,1-5.733,5.006,18.767,18.767,0,0,1-16.206.06" transform="translate(1153.119 31.516)" fill="#1A1818"/>
    <rect id="Rectangle_45" data-name="Rectangle 45" width="3.607" height="26.536" transform="translate(1361.373 201.65)" fill="#1A1818"/>
    <path id="Path_274" data-name="Path 274" d="M190.113,169.692h1.341l13.224,26.978H200.84l-3.7-7.639-7.074-15.158H191.5l-7.121,15.158-3.7,7.639h-3.791Z" transform="translate(1133.345 31.516)" fill="#1A1818"/>
    <path id="Path_275" data-name="Path 275" d="M300.892,169.692h1.341l13.224,26.978h-3.838l-3.7-7.639-7.075-15.158h1.434l-7.121,15.158-3.7,7.639h-3.791Z" transform="translate(1100.662 31.516)" fill="#1A1818"/>
  </g>
</svg>
